# Blender v2.83.20 OBJ File: ''
# www.blender.org
mtllib Puerta.mtl
o Arch_Door_bottompivot_Cube.044
v -1.210556 -0.000854 0.164810
v -1.210556 1.999146 0.164810
v 1.210556 -0.000854 0.164810
v 1.210556 1.999146 0.164810
v -1.085790 2.640072 0.164810
v -1.169533 2.448153 0.164810
v 1.169533 2.448153 0.164810
v 1.085790 2.640072 0.164810
v -0.747995 2.964608 0.164809
v -0.930203 2.821412 0.164810
v 0.930203 2.821412 0.164810
v 0.747995 2.964608 0.164809
v -0.182519 3.189192 0.164809
v -0.477326 3.106896 0.164809
v 0.477325 3.106896 0.164809
v 0.182519 3.189192 0.164809
v -1.021733 0.159844 0.164810
v -1.021733 1.913887 0.164810
v 1.021733 1.913887 0.164810
v 1.021733 0.159844 0.164810
v -0.987109 2.292859 0.164810
v -0.916429 2.454842 0.164810
v 0.916429 2.454842 0.164810
v 0.987109 2.292859 0.164810
v -0.785110 2.607896 0.164810
v -0.631322 2.728756 0.164810
v 0.631322 2.728756 0.164810
v 0.785110 2.607896 0.164810
v -0.402872 2.848850 0.164810
v -0.154050 2.922282 0.164809
v 0.154050 2.922282 0.164809
v 0.402872 2.848850 0.164810
v -1.021733 0.159844 0.094857
v -1.021733 1.913887 0.094857
v 1.021733 1.913887 0.094857
v 1.021733 0.159844 0.094857
v -0.987109 2.292859 0.094857
v -0.916429 2.454842 0.094857
v 0.916429 2.454842 0.094857
v 0.987109 2.292859 0.094857
v -0.785110 2.607896 0.094857
v -0.631322 2.728756 0.094857
v 0.631322 2.728756 0.094857
v 0.785110 2.607896 0.094857
v -0.402872 2.848850 0.094857
v -0.154050 2.922282 0.094857
v 0.154050 2.922282 0.094857
v 0.402872 2.848850 0.094857
v -1.210556 -0.000854 -0.158667
v -1.210556 1.999146 -0.158667
v 1.210556 -0.000854 -0.158667
v 1.210556 1.999146 -0.158667
v -1.085790 2.640072 -0.158667
v -1.169533 2.448153 -0.158667
v 1.169533 2.448153 -0.158667
v 1.085790 2.640072 -0.158667
v -0.747995 2.964608 -0.158668
v -0.930203 2.821412 -0.158668
v 0.930203 2.821412 -0.158668
v 0.747995 2.964608 -0.158668
v -0.182519 3.189192 -0.158668
v -0.477326 3.106896 -0.158668
v 0.477325 3.106896 -0.158668
v 0.182519 3.189192 -0.158668
v -1.021733 0.159844 -0.158667
v -1.021733 1.913887 -0.158667
v 1.021733 1.913887 -0.158667
v 1.021733 0.159844 -0.158667
v -0.987109 2.292859 -0.158667
v -0.916429 2.454842 -0.158667
v 0.916429 2.454842 -0.158667
v 0.987109 2.292859 -0.158667
v -0.785110 2.607896 -0.158667
v -0.631322 2.728756 -0.158668
v 0.631322 2.728756 -0.158668
v 0.785110 2.607896 -0.158667
v -0.402872 2.848850 -0.158668
v -0.154050 2.922282 -0.158668
v 0.154050 2.922282 -0.158668
v 0.402872 2.848850 -0.158668
v -1.210556 -0.000854 0.003071
v -1.210556 1.999146 0.003071
v 1.210556 -0.000854 0.003071
v 1.210556 1.999146 0.003071
v -1.085790 2.640072 0.003071
v -1.169533 2.448153 0.003071
v 1.085790 2.640072 0.003071
v 1.169533 2.448153 0.003071
v -0.747995 2.964608 0.003071
v -0.930203 2.821412 0.003071
v 0.747995 2.964608 0.003071
v 0.930203 2.821412 0.003071
v -0.182519 3.189192 0.003071
v -0.477326 3.106896 0.003071
v 0.182519 3.189192 0.003071
v 0.477325 3.106896 0.003071
v -1.021733 0.159844 -0.088714
v -1.021733 1.913887 -0.088714
v 1.021733 1.913887 -0.088714
v 1.021733 0.159844 -0.088714
v -0.987109 2.292859 -0.088715
v -0.916429 2.454842 -0.088715
v 0.916429 2.454842 -0.088715
v 0.987109 2.292859 -0.088715
v -0.785110 2.607896 -0.088715
v -0.631322 2.728756 -0.088715
v 0.631322 2.728756 -0.088715
v 0.785110 2.607896 -0.088715
v -0.402872 2.848850 -0.088715
v -0.154050 2.922282 -0.088715
v 0.154050 2.922282 -0.088715
v 0.402872 2.848850 -0.088715
v -0.837133 1.820652 0.158832
v -0.837133 1.820652 -0.164810
v -0.810922 1.835784 0.158832
v -0.810922 1.835784 -0.164810
v -0.810922 1.866050 0.158832
v -0.810922 1.866050 -0.164810
v -0.837133 1.881183 0.158832
v -0.837133 1.881182 -0.164810
v -0.863344 1.866050 0.158832
v -0.863344 1.866050 -0.164810
v -0.863344 1.835784 0.158832
v -0.863344 1.835784 -0.164810
v -0.433490 1.820652 0.158832
v -0.433490 1.820652 -0.164810
v -0.407279 1.835784 0.158832
v -0.407279 1.835784 -0.164810
v -0.407279 1.866050 0.158832
v -0.407279 1.866050 -0.164810
v -0.433490 1.881183 0.158832
v -0.433490 1.881182 -0.164810
v -0.459700 1.866050 0.158832
v -0.459700 1.866050 -0.164810
v -0.459700 1.835784 0.158832
v -0.459700 1.835784 -0.164810
v -0.029847 1.820652 0.158832
v -0.029847 1.820652 -0.164810
v -0.003636 1.835784 0.158832
v -0.003636 1.835784 -0.164810
v -0.003636 1.866050 0.158832
v -0.003636 1.866050 -0.164810
v -0.029847 1.881183 0.158832
v -0.029847 1.881182 -0.164810
v -0.056057 1.866050 0.158832
v -0.056057 1.866050 -0.164810
v -0.056057 1.835784 0.158832
v -0.056057 1.835784 -0.164810
v 0.373796 1.820652 0.158832
v 0.373796 1.820652 -0.164810
v 0.400007 1.835784 0.158832
v 0.400007 1.835784 -0.164810
v 0.400007 1.866050 0.158832
v 0.400007 1.866050 -0.164810
v 0.373796 1.881183 0.158832
v 0.373796 1.881182 -0.164810
v 0.347586 1.866050 0.158832
v 0.347586 1.866050 -0.164810
v 0.347586 1.835784 0.158832
v 0.347586 1.835784 -0.164810
v 0.777440 1.820652 0.158832
v 0.777440 1.820652 -0.164810
v 0.803650 1.835784 0.158832
v 0.803650 1.835784 -0.164810
v 0.803650 1.866050 0.158832
v 0.803650 1.866050 -0.164810
v 0.777440 1.881183 0.158832
v 0.777440 1.881182 -0.164810
v 0.751229 1.866050 0.158832
v 0.751229 1.866050 -0.164810
v 0.751229 1.835784 0.158832
v 0.751229 1.835784 -0.164810
v -0.837133 0.423965 0.158832
v -0.837133 0.423965 -0.164810
v -0.810922 0.439098 0.158832
v -0.810922 0.439098 -0.164810
v -0.810922 0.469363 0.158832
v -0.810922 0.469363 -0.164810
v -0.837133 0.484496 0.158832
v -0.837133 0.484496 -0.164810
v -0.863344 0.469363 0.158832
v -0.863344 0.469363 -0.164810
v -0.863344 0.439098 0.158832
v -0.863344 0.439098 -0.164810
v -0.433490 0.423965 0.158832
v -0.433490 0.423965 -0.164810
v -0.407279 0.439098 0.158832
v -0.407279 0.439098 -0.164810
v -0.407279 0.469363 0.158832
v -0.407279 0.469363 -0.164810
v -0.433490 0.484496 0.158832
v -0.433490 0.484496 -0.164810
v -0.459700 0.469363 0.158832
v -0.459700 0.469363 -0.164810
v -0.459700 0.439098 0.158832
v -0.459700 0.439098 -0.164810
v -0.029847 0.423965 0.158832
v -0.029847 0.423965 -0.164810
v -0.003636 0.439098 0.158832
v -0.003636 0.439098 -0.164810
v -0.003636 0.469363 0.158832
v -0.003636 0.469363 -0.164810
v -0.029847 0.484496 0.158832
v -0.029847 0.484496 -0.164810
v -0.056057 0.469363 0.158832
v -0.056057 0.469363 -0.164810
v -0.056057 0.439098 0.158832
v -0.056057 0.439098 -0.164810
v 0.373796 0.423965 0.158832
v 0.373796 0.423965 -0.164810
v 0.400007 0.439098 0.158832
v 0.400007 0.439098 -0.164810
v 0.400007 0.469363 0.158832
v 0.400007 0.469363 -0.164810
v 0.373796 0.484496 0.158832
v 0.373796 0.484496 -0.164810
v 0.347586 0.469363 0.158832
v 0.347586 0.469363 -0.164810
v 0.347586 0.439098 0.158832
v 0.347586 0.439098 -0.164810
v 0.777440 0.423965 0.158832
v 0.777440 0.423965 -0.164810
v 0.803650 0.439098 0.158832
v 0.803650 0.439098 -0.164810
v 0.803650 0.469363 0.158832
v 0.803650 0.469363 -0.164810
v 0.777440 0.484496 0.158832
v 0.777440 0.484496 -0.164810
v 0.751229 0.469363 0.158832
v 0.751229 0.469363 -0.164810
v 0.751229 0.439098 0.158832
v 0.751229 0.439098 -0.164810
v -1.032912 1.730949 0.125323
v -1.032912 1.750899 0.145623
v -1.032912 1.965500 0.145623
v -1.032912 1.985450 0.125323
v -1.032912 1.750899 -0.150081
v -1.032912 1.730949 -0.129781
v -1.032912 1.985450 -0.129781
v -1.032912 1.965500 -0.150081
v 1.040865 1.750899 0.145623
v 1.040865 1.730949 0.125323
v 1.040865 1.985450 0.125323
v 1.040865 1.965500 0.145623
v 1.040865 1.730949 -0.129781
v 1.040865 1.750899 -0.150081
v 1.040865 1.965500 -0.150081
v 1.040865 1.985450 -0.129781
v -1.032912 0.348532 0.125323
v -1.032912 0.368482 0.145623
v -1.032912 0.583082 0.145623
v -1.032912 0.603033 0.125323
v -1.032912 0.368482 -0.150081
v -1.032912 0.348532 -0.129781
v -1.032912 0.603033 -0.129781
v -1.032912 0.583082 -0.150081
v 1.040865 0.368482 0.145623
v 1.040865 0.348532 0.125323
v 1.040865 0.603033 0.125323
v 1.040865 0.583082 0.145623
v 1.040865 0.348532 -0.129781
v 1.040865 0.368482 -0.150081
v 1.040865 0.583082 -0.150081
v 1.040865 0.603033 -0.129781
v -0.033309 2.997727 0.125647
v -0.342171 2.963855 0.128381
v -0.364846 2.912927 0.128381
v -0.662528 2.823190 0.122914
v -0.015701 2.523959 0.128381
v -0.342171 2.501441 0.128381
v -0.364846 2.102193 0.128381
v -0.683279 2.105800 0.131479
v -0.364846 2.224846 0.128381
v -0.666122 2.224845 0.128381
v 0.031398 2.999694 0.120181
v 0.341888 2.974041 0.128381
v 0.352505 2.974041 0.128381
v 0.678976 2.874730 0.128381
v 0.015418 1.026339 0.112117
v 0.341888 1.305125 0.112117
v 0.373808 1.979722 0.128381
v 0.678975 1.979722 0.128381
v -0.015701 0.101199 0.128381
v -0.342171 0.101200 0.128381
v -0.691316 1.744451 0.128381
v -0.364846 1.697681 0.128381
v -0.364846 0.101199 0.128381
v -0.656270 0.087105 0.123236
v -0.364846 1.264056 0.114970
v -0.691315 1.041902 0.114970
v 0.000787 1.755434 0.121461
v -0.342171 2.285367 0.121461
v -0.046113 2.406944 0.128381
v -0.318876 2.406944 0.128381
v 0.306219 1.203042 0.122282
v 0.051087 0.924255 0.122282
v 0.047621 0.105995 0.119773
v 0.341888 0.101200 0.128381
v 0.678976 1.744451 0.128381
v 0.352505 1.744451 0.128381
v 0.352506 0.101199 0.128381
v 0.631753 0.109031 0.123362
v 0.015418 0.822172 0.128381
v 0.341888 1.100959 0.128381
v 0.373809 1.509180 0.128381
v 0.678976 1.509180 0.128381
v -1.061955 2.487874 0.128381
v -0.728151 2.747407 0.128381
v -1.054621 1.567747 0.112117
v -0.728151 1.846534 0.112117
v -0.763820 1.744451 0.122282
v -1.018952 1.465664 0.122282
v -1.054621 0.101199 0.128381
v -0.728151 0.101200 0.128381
v -1.054621 1.363581 0.128381
v -0.728151 1.642368 0.128381
v -0.015701 2.996960 0.065627
v -0.342171 2.963855 0.065627
v -0.015701 2.996960 0.097004
v -0.342171 2.963855 0.097004
v -0.364846 2.912927 0.065627
v -0.691316 2.821254 0.065627
v -0.364846 2.912927 0.097004
v -0.691316 2.821254 0.097004
v -0.015701 2.523959 0.065627
v -0.342171 2.501441 0.065627
v -0.015701 2.523959 0.097004
v -0.342171 2.501441 0.097004
v -0.364846 2.102193 0.065627
v -0.683279 2.105800 0.062529
v -0.364846 2.102193 0.097004
v -0.683279 2.105800 0.097004
v -0.364846 2.224846 0.065627
v -0.666122 2.224845 0.065627
v -0.364846 2.224846 0.097004
v -0.666122 2.224845 0.097004
v 0.015417 2.996960 0.065627
v 0.341888 2.974041 0.065627
v 0.015417 2.996960 0.097004
v 0.341888 2.974041 0.097004
v 0.352505 2.974041 0.065627
v 0.678976 2.874730 0.065628
v 0.352505 2.974041 0.097004
v 0.678975 2.874730 0.097004
v 0.015418 1.026339 0.081891
v 0.341888 1.305125 0.081891
v 0.015418 1.026339 0.097004
v 0.341888 1.305125 0.097004
v 0.373808 1.979722 0.065627
v 0.678975 1.979722 0.065628
v 0.373808 1.979722 0.097004
v 0.678975 1.979722 0.097004
v -0.015701 0.101199 0.065627
v -0.316990 0.092681 0.077632
v -0.015701 0.101199 0.097004
v -0.342171 0.101200 0.097004
v -0.691315 1.744451 0.065627
v -0.364846 1.697681 0.065627
v -0.364845 0.101199 0.065627
v -0.691315 0.101200 0.065627
v -0.691316 1.744451 0.097004
v -0.364846 1.697681 0.097004
v -0.364845 0.101199 0.097004
v -0.684406 0.098173 0.093574
v -0.364846 1.264056 0.079038
v -0.691315 1.041902 0.079038
v -0.364846 1.264056 0.097004
v -0.691315 1.041902 0.097004
v 0.000787 1.755434 0.072547
v -0.342171 2.285367 0.072547
v 0.000787 1.755434 0.097004
v -0.342171 2.285367 0.097004
v -0.046113 2.406944 0.065627
v -0.318876 2.406944 0.065627
v -0.046113 2.406944 0.097004
v -0.318876 2.406944 0.097004
v 0.306219 1.203042 0.071727
v 0.051087 0.924255 0.071726
v 0.015418 0.101199 0.065627
v 0.341888 0.101200 0.065628
v 0.306219 1.203042 0.097004
v 0.051086 0.924255 0.097004
v 0.015418 0.101199 0.097004
v 0.341888 0.101200 0.097004
v 0.678976 1.744451 0.065628
v 0.352506 1.744451 0.065627
v 0.352506 0.101199 0.065628
v 0.678976 0.101200 0.065628
v 0.678975 1.744451 0.097004
v 0.352505 1.744451 0.097004
v 0.352506 0.101199 0.097004
v 0.678976 0.101200 0.097004
v 0.015418 0.822172 0.065627
v 0.341888 1.100959 0.065628
v 0.015418 0.822172 0.097004
v 0.341888 1.100959 0.097004
v 0.373809 1.509180 0.065627
v 0.678976 1.509180 0.065628
v 0.373809 1.509180 0.097004
v 0.678976 1.509180 0.097004
v -1.061955 2.487874 0.065627
v -0.747321 2.743335 0.077927
v -1.061955 2.487874 0.097004
v -0.728151 2.747407 0.097004
v -1.054621 1.567747 0.081891
v -0.728151 1.846534 0.081891
v -1.054621 1.567747 0.097004
v -0.728151 1.846534 0.097004
v -0.763820 1.744451 0.071726
v -1.018952 1.465664 0.071726
v -1.054621 0.101199 0.065627
v -0.728151 0.101200 0.065627
v -0.763820 1.744451 0.097004
v -1.018952 1.465664 0.097004
v -1.054621 0.101199 0.097004
v -0.728151 0.101200 0.097004
v -1.054621 1.363581 0.065627
v -0.728151 1.642368 0.065627
v -1.054621 1.363581 0.097004
v -0.728151 1.642368 0.097004
v 0.015417 2.295833 0.120861
v 0.289558 2.424741 0.120861
v 0.015417 2.295833 0.097004
v 0.289558 2.424741 0.097004
v 0.015417 2.295833 0.073147
v 0.289558 2.424741 0.073148
v 0.015418 1.697656 0.116741
v 0.341888 1.897185 0.116741
v 0.015418 1.697656 0.097004
v 0.341888 1.897185 0.097004
v 0.015418 1.697656 0.077267
v 0.341888 1.897185 0.077268
v 0.735570 2.791464 0.125647
v 1.044433 2.584087 0.128381
v 0.717963 2.523959 0.128381
v 1.044433 2.501441 0.128381
v 0.717963 0.101199 0.128381
v 1.044432 0.101200 0.128381
v 0.701475 1.755434 0.121461
v 1.044433 2.285367 0.121461
v 0.748375 2.406944 0.128381
v 1.021138 2.406944 0.128381
v 0.717963 2.790697 0.065627
v 1.044433 2.584087 0.065627
v 0.717963 2.790697 0.097004
v 1.044433 2.584087 0.097004
v 0.717963 2.523959 0.065627
v 1.044433 2.501441 0.065627
v 0.717963 2.523959 0.097004
v 1.044433 2.501441 0.097004
v 0.717963 0.101199 0.065627
v 1.019252 0.092681 0.077632
v 0.717963 0.101199 0.097004
v 1.044432 0.101200 0.097004
v 0.701475 1.755434 0.072547
v 1.044433 2.285367 0.072547
v 0.701475 1.755434 0.097004
v 1.044433 2.285367 0.097004
v 0.748375 2.406944 0.065627
v 1.021138 2.406944 0.065627
v 0.748375 2.406944 0.097004
v 1.021138 2.406944 0.097004
v -0.033309 2.997727 -0.052663
v -0.342171 2.963855 -0.049930
v -0.364846 2.912927 -0.049930
v -0.662528 2.823190 -0.055396
v -0.015701 2.523959 -0.049930
v -0.342171 2.501441 -0.049930
v -0.364846 2.102193 -0.049930
v -0.683279 2.105800 -0.046832
v -0.364846 2.224846 -0.049930
v -0.666122 2.224845 -0.049930
v 0.031398 2.999694 -0.058130
v 0.341888 2.974041 -0.049930
v 0.352505 2.974041 -0.049930
v 0.678976 2.874730 -0.049930
v 0.015418 1.026339 -0.066193
v 0.341888 1.305125 -0.066193
v 0.373808 1.979722 -0.049930
v 0.678975 1.979722 -0.049930
v -0.015701 0.101199 -0.049930
v -0.342171 0.101200 -0.049930
v -0.691316 1.744451 -0.049930
v -0.364846 1.697681 -0.049930
v -0.364846 0.101199 -0.049930
v -0.656270 0.087105 -0.055074
v -0.364846 1.264056 -0.063341
v -0.691315 1.041902 -0.063340
v 0.000787 1.755434 -0.056849
v -0.342171 2.285367 -0.056849
v -0.046113 2.406944 -0.049930
v -0.318876 2.406944 -0.049930
v 0.306219 1.203042 -0.056029
v 0.051087 0.924255 -0.056029
v 0.047621 0.105995 -0.058538
v 0.341888 0.101200 -0.049930
v 0.678976 1.744451 -0.049930
v 0.352505 1.744451 -0.049930
v 0.352506 0.101199 -0.049930
v 0.631753 0.109031 -0.054948
v 0.015418 0.822172 -0.049930
v 0.341888 1.100959 -0.049930
v 0.373809 1.509180 -0.049930
v 0.678976 1.509180 -0.049930
v -1.061955 2.487874 -0.049930
v -0.728151 2.747407 -0.049930
v -1.054621 1.567747 -0.066193
v -0.728151 1.846534 -0.066193
v -0.763820 1.744451 -0.056029
v -1.018952 1.465664 -0.056029
v -1.054621 0.101199 -0.049929
v -0.728151 0.101200 -0.049929
v -1.054621 1.363581 -0.049930
v -0.728151 1.642368 -0.049930
v -0.015701 2.996960 -0.112683
v -0.342171 2.963855 -0.112683
v -0.015701 2.996960 -0.081307
v -0.342171 2.963855 -0.081307
v -0.364846 2.912927 -0.112683
v -0.691316 2.821254 -0.112684
v -0.364846 2.912927 -0.081307
v -0.691316 2.821254 -0.081307
v -0.015701 2.523959 -0.112683
v -0.342171 2.501441 -0.112683
v -0.015701 2.523959 -0.081307
v -0.342171 2.501441 -0.081307
v -0.364846 2.102193 -0.112683
v -0.683279 2.105800 -0.115781
v -0.364846 2.102193 -0.081307
v -0.683279 2.105800 -0.081307
v -0.364846 2.224846 -0.112683
v -0.666122 2.224845 -0.112684
v -0.364846 2.224846 -0.081307
v -0.666122 2.224845 -0.081307
v 0.015417 2.996960 -0.112683
v 0.341888 2.974041 -0.112683
v 0.015417 2.996960 -0.081307
v 0.341888 2.974041 -0.081306
v 0.352505 2.974041 -0.112683
v 0.678976 2.874730 -0.112683
v 0.352505 2.974041 -0.081306
v 0.678975 2.874730 -0.081306
v 0.015418 1.026339 -0.096419
v 0.341888 1.305125 -0.096419
v 0.015418 1.026339 -0.081306
v 0.341888 1.305125 -0.081306
v 0.373808 1.979722 -0.112683
v 0.678975 1.979722 -0.112683
v 0.373808 1.979722 -0.081306
v 0.678975 1.979722 -0.081306
v -0.015701 0.101199 -0.112683
v -0.316990 0.092681 -0.100679
v -0.015701 0.101199 -0.081306
v -0.342171 0.101200 -0.081306
v -0.691315 1.744451 -0.112684
v -0.364846 1.697681 -0.112683
v -0.364845 0.101199 -0.112683
v -0.691315 0.101199 -0.112683
v -0.691316 1.744451 -0.081307
v -0.364846 1.697681 -0.081307
v -0.364845 0.101199 -0.081306
v -0.684406 0.098173 -0.084736
v -0.364846 1.264056 -0.099272
v -0.691315 1.041902 -0.099273
v -0.364846 1.264056 -0.081306
v -0.691315 1.041902 -0.081307
v 0.000787 1.755434 -0.105764
v -0.342171 2.285367 -0.105764
v 0.000787 1.755434 -0.081306
v -0.342171 2.285367 -0.081307
v -0.046113 2.406944 -0.112683
v -0.318876 2.406944 -0.112683
v -0.046113 2.406944 -0.081307
v -0.318876 2.406944 -0.081307
v 0.306219 1.203042 -0.106584
v 0.051087 0.924255 -0.106584
v 0.015418 0.101199 -0.112683
v 0.341888 0.101200 -0.112683
v 0.306219 1.203042 -0.081306
v 0.051086 0.924255 -0.081306
v 0.015418 0.101199 -0.081306
v 0.341888 0.101200 -0.081306
v 0.678976 1.744451 -0.112683
v 0.352506 1.744451 -0.112683
v 0.352506 0.101199 -0.112683
v 0.678976 0.101200 -0.112683
v 0.678975 1.744451 -0.081306
v 0.352505 1.744451 -0.081306
v 0.352506 0.101199 -0.081306
v 0.678976 0.101200 -0.081306
v 0.015418 0.822172 -0.112683
v 0.341888 1.100959 -0.112683
v 0.015418 0.822172 -0.081306
v 0.341888 1.100959 -0.081306
v 0.373809 1.509180 -0.112683
v 0.678976 1.509180 -0.112683
v 0.373809 1.509180 -0.081306
v 0.678976 1.509180 -0.081306
v -1.061955 2.487874 -0.112684
v -0.747321 2.743335 -0.100384
v -1.061955 2.487874 -0.081307
v -0.728151 2.747407 -0.081307
v -1.054621 1.567747 -0.096420
v -0.728151 1.846534 -0.096420
v -1.054621 1.567747 -0.081307
v -0.728151 1.846534 -0.081307
v -0.763820 1.744451 -0.106585
v -1.018952 1.465664 -0.106585
v -1.054621 0.101199 -0.112683
v -0.728151 0.101199 -0.112683
v -0.763820 1.744451 -0.081307
v -1.018952 1.465664 -0.081307
v -1.054621 0.101199 -0.081306
v -0.728151 0.101199 -0.081306
v -1.054621 1.363581 -0.112684
v -0.728151 1.642368 -0.112684
v -1.054621 1.363581 -0.081307
v -0.728151 1.642368 -0.081307
v 0.015417 2.295833 -0.057450
v 0.289558 2.424741 -0.057450
v 0.015418 2.295833 -0.081307
v 0.289558 2.424741 -0.081306
v 0.015417 2.295833 -0.105163
v 0.289558 2.424741 -0.105163
v 0.015418 1.697656 -0.061570
v 0.341888 1.897185 -0.061570
v 0.015418 1.697656 -0.081306
v 0.341888 1.897185 -0.081306
v 0.015418 1.697656 -0.101043
v 0.341888 1.897185 -0.101043
v 0.735570 2.791464 -0.052663
v 1.044433 2.584087 -0.049930
v 0.717963 2.523959 -0.049930
v 1.044433 2.501441 -0.049930
v 0.717963 0.101199 -0.049930
v 1.044432 0.101200 -0.049930
v 0.701475 1.755434 -0.056849
v 1.044433 2.285367 -0.056849
v 0.748375 2.406944 -0.049930
v 1.021138 2.406944 -0.049930
v 0.717963 2.790697 -0.112683
v 1.044433 2.584087 -0.112683
v 0.717963 2.790697 -0.081306
v 1.044433 2.584087 -0.081307
v 0.717963 2.523959 -0.112683
v 1.044433 2.501441 -0.112683
v 0.717963 2.523959 -0.081307
v 1.044433 2.501441 -0.081307
v 0.717963 0.101199 -0.112683
v 1.019252 0.092681 -0.100679
v 0.717963 0.101199 -0.081306
v 1.044432 0.101200 -0.081306
v 0.701475 1.755434 -0.105764
v 1.044433 2.285367 -0.105764
v 0.701475 1.755434 -0.081306
v 1.044433 2.285367 -0.081307
v 0.748375 2.406944 -0.112683
v 1.021138 2.406944 -0.112683
v 0.748375 2.406944 -0.081307
v 1.021138 2.406944 -0.081307
vn 0.9595 0.0187 0.2812
vn 0.0045 -0.0041 1.0000
vn 1.0000 0.0000 0.0000
vn 0.9678 -0.2515 0.0000
vn -0.9998 0.0222 0.0000
vn 0.0051 0.0125 0.9999
vn -0.9898 0.1426 0.0000
vn -0.8932 -0.0141 0.4493
vn -0.0098 0.0043 0.9999
vn 0.0033 0.0025 1.0000
vn -0.0946 0.0986 0.9906
vn 0.9440 -0.3299 0.0000
vn -1.0000 -0.0000 0.0000
vn 0.0000 0.0000 1.0000
vn -0.9440 -0.3299 0.0000
vn -0.9959 0.0902 0.0000
vn -0.9998 -0.0214 0.0000
vn 0.0041 -0.0072 1.0000
vn 0.0054 -0.0073 1.0000
vn 0.0052 -0.0073 1.0000
vn 1.0000 -0.0100 0.0000
vn 0.0063 -0.0236 0.9997
vn -0.8627 -0.0178 0.5055
vn -0.0122 0.0100 0.9999
vn 0.0028 0.0036 1.0000
vn 0.9974 0.0718 0.0000
vn -0.9709 -0.2393 -0.0000
vn -0.0158 -0.0184 0.9997
vn -0.9821 0.1882 -0.0000
vn -0.0571 0.0595 0.9966
vn 0.9440 0.3299 0.0000
vn -0.8584 -0.0223 0.5125
vn 0.0042 -0.0010 1.0000
vn 0.0043 -0.0010 1.0000
vn -0.9440 0.3299 0.0000
vn -0.9959 -0.0902 0.0000
vn 0.7730 -0.0141 0.6342
vn 0.0086 -0.0020 1.0000
vn -0.9999 0.0151 0.0000
vn -0.0116 -0.0052 0.9999
vn -1.0000 -0.0080 0.0000
vn 0.0145 -0.0178 0.9997
vn 0.0045 -0.0041 -1.0000
vn 0.0025 0.0062 -1.0000
vn 0.0051 0.0125 -0.9999
vn 0.0001 0.0002 -1.0000
vn -0.9991 -0.0422 -0.0000
vn 0.0000 0.0000 -1.0000
vn -0.0946 0.0986 -0.9906
vn 0.0041 -0.0072 -1.0000
vn 0.0051 -0.0073 -1.0000
vn 0.0054 -0.0073 -1.0000
vn 0.0063 -0.0236 -0.9997
vn -0.9889 -0.0050 0.1485
vn -0.0043 0.0127 -0.9999
vn -0.0183 0.0004 -0.9998
vn -0.8675 -0.0056 -0.4973
vn -0.0158 -0.0184 -0.9997
vn -0.0571 0.0595 -0.9966
vn 0.8718 0.0082 -0.4898
vn 0.0281 -0.0107 -0.9995
vn 0.2910 0.9567 0.0000
vn 0.0732 0.9968 -0.0332
vn -0.1029 0.9945 -0.0210
vn -0.2745 0.9603 0.0503
vn -0.6165 0.7837 0.0762
vn 0.0065 -0.9977 0.0674
vn -0.0040 -0.9991 0.0421
vn 0.0073 -0.9970 0.0765
vn 0.0175 -0.9924 -0.1214
vn 0.0000 -1.0000 0.0000
vn 0.0021 -0.0121 -0.9999
vn 0.0037 -0.0077 -1.0000
vn 0.0023 -0.0115 -0.9999
vn 0.9955 -0.0948 0.0000
vn -0.0132 -0.0047 0.9999
vn -0.9470 0.0109 0.3211
vn 0.9951 0.0987 0.0000
vn 0.0039 -0.0071 1.0000
vn -0.9592 0.0330 0.2810
vn -0.9678 -0.2515 0.0000
vn -0.0009 0.0051 1.0000
vn -1.0000 -0.0100 0.0000
vn -0.0028 0.0036 1.0000
vn -0.9974 0.0718 0.0000
vn 0.9709 -0.2393 0.0000
vn 0.0158 -0.0184 0.9997
vn 0.9821 0.1882 0.0000
vn 0.0183 0.0004 -0.9998
vn 0.8675 -0.0056 -0.4973
vn 0.0158 -0.0184 -0.9997
vn 0.5386 0.8385 -0.0825
vn -0.0073 -0.9970 0.0765
vn 0.0050 -0.0073 1.0000
vn 0.0049 -0.0073 -1.0000
vn -0.4653 0.8851 0.0000
vn -0.7589 0.6512 0.0000
vn 0.0000 1.0000 0.0000
vn 0.9165 0.3999 0.0000
vn 0.6179 0.7863 0.0000
vn 0.2689 0.9632 0.0000
vn -0.9959 0.0910 0.0000
vn 0.6179 -0.7863 0.0000
vn -0.9959 -0.0910 0.0000
vn -0.2689 0.9632 0.0000
vn -0.6179 0.7863 0.0000
vn -0.9165 0.3999 0.0000
vn 0.4653 0.8851 0.0000
vn 0.9959 0.0910 0.0000
vn 0.7589 0.6512 0.0000
vn 0.4653 -0.8851 0.0000
vn -0.6179 -0.7863 0.0000
vn -0.4653 -0.8851 0.0000
vn 0.2830 -0.9591 0.0000
vn -0.2830 -0.9591 0.0000
vn 0.9959 -0.0910 0.0000
vn 0.7589 -0.6512 0.0000
vn 0.9165 -0.3999 0.0000
vn -0.7589 -0.6512 0.0000
vn -0.9165 -0.3999 0.0000
vn 0.5000 -0.8660 0.0000
vn 0.5000 0.8660 -0.0000
vn -0.5000 0.8660 -0.0000
vn -0.5000 -0.8660 0.0000
vn 0.0000 -0.7132 -0.7009
vn 0.0000 0.7132 -0.7009
vn 0.0000 -0.7132 0.7009
vn 0.0000 0.7132 0.7009
g Arch_Door_bottompivot_Cube.044_Wood
usemtl Wood
s 1
f 319//1 265//1 269//1 327//1
f 271//2 272//2 285//2 286//2
f 273//3 335//3 323//3 267//3
f 269//4 293//4 375//4 327//4
f 272//5 332//5 361//5 285//5
f 273//6 274//6 272//6 271//6
f 274//7 336//7 332//7 272//7
f 268//8 324//8 336//8 274//8
f 267//9 268//9 274//9 273//9
f 271//3 331//3 335//3 273//3
f 266//10 270//10 294//10 293//10 269//10 265//10
f 279//11 296//11 295//11 280//11
f 280//12 295//12 381//12 348//12
f 427//13 429//13 347//13 279//13
f 281//14 300//14 299//14 282//14
f 282//3 299//3 389//3 352//3
f 296//15 279//15 347//15 382//15
f 428//3 280//3 348//3 430//3
f 300//16 281//16 351//16 390//16
f 278//3 282//3 352//3 344//3
f 277//14 281//14 282//14 278//14
f 281//17 277//17 343//17 351//17
f 427//18 279//19 280//19 428//20
f 291//21 283//21 355//21 371//21
f 286//22 285//22 290//22 289//22
f 289//3 287//3 363//3 367//3
f 320//13 328//13 270//13 266//13
f 285//13 361//13 368//13 290//13
f 286//3 289//3 367//3 362//3
f 288//23 290//23 368//23 364//23
f 287//24 289//24 290//24 288//24
f 283//25 291//25 292//25 284//25
f 284//13 292//13 372//13 356//13
f 293//26 291//26 371//26 375//26
f 270//27 328//27 376//27 294//27
f 291//28 293//28 294//28 292//28
f 292//29 294//29 376//29 372//29
f 303//30 304//30 295//30 296//30
f 304//31 396//31 381//31 295//31
f 383//32 297//32 303//32 395//32
f 305//33 306//34 299//14 300//14
f 306//3 400//3 389//3 299//3
f 296//35 382//35 395//35 303//35
f 384//3 396//3 304//3 298//3
f 300//36 390//36 399//36 305//36
f 392//37 400//37 306//37 302//37
f 302//38 306//34 305//33 301//38
f 399//39 391//39 301//39 305//39
f 298//40 304//40 303//40 297//40
f 362//3 331//3 271//3 286//3
f 309//11 312//11 311//11 310//11
f 310//12 311//12 413//12 408//12
f 307//41 403//41 407//41 309//41
f 312//15 309//15 407//15 414//15
f 308//3 310//3 408//3 404//3
f 307//42 309//42 310//42 308//42
f 315//30 316//30 311//30 312//30
f 316//31 420//31 413//31 311//31
f 415//13 313//13 315//13 419//13
f 312//35 414//35 419//35 315//35
f 416//3 420//3 316//3 314//3
f 314//14 316//14 315//14 313//14
f 319//3 327//3 325//3 317//3
f 329//43 358//43 357//43 330//43
f 333//3 321//3 323//3 335//3
f 325//4 327//4 375//4 373//4
f 330//5 357//5 361//5 332//5
f 333//44 329//45 330//45 334//46
f 334//7 330//7 332//7 336//7
f 322//47 334//47 336//47 324//47
f 321//48 333//44 334//46 322//48
f 329//3 333//3 335//3 331//3
f 318//48 317//48 325//48 373//48 374//48 326//48
f 345//49 346//49 377//49 378//49
f 346//12 348//12 381//12 377//12
f 431//13 345//13 347//13 429//13
f 349//48 350//48 385//48 386//48
f 350//3 352//3 389//3 385//3
f 378//15 382//15 347//15 345//15
f 432//3 430//3 348//3 346//3
f 386//16 390//16 351//16 349//16
f 342//3 344//3 352//3 350//3
f 341//48 342//48 350//48 349//48
f 349//17 351//17 343//17 341//17
f 431//50 432//51 346//52 345//52
f 369//21 371//21 355//21 353//21
f 358//53 365//53 366//53 357//53
f 365//3 367//3 363//3 359//3
f 320//13 318//13 326//13 328//13
f 357//13 366//13 368//13 361//13
f 358//3 362//3 367//3 365//3
f 360//54 364//54 368//54 366//54
f 359//55 360//55 366//55 365//55
f 353//56 354//56 370//56 369//56
f 354//57 356//57 372//57 370//57
f 373//26 375//26 371//26 369//26
f 326//27 374//27 376//27 328//27
f 369//58 370//58 374//58 373//58
f 370//29 372//29 376//29 374//29
f 393//59 378//59 377//59 394//59
f 394//31 377//31 381//31 396//31
f 383//13 395//13 393//13 379//13
f 397//48 386//48 385//48 398//48
f 398//3 385//3 389//3 400//3
f 378//35 393//35 395//35 382//35
f 384//3 380//3 394//3 396//3
f 386//36 397//36 399//36 390//36
f 392//3 388//3 398//3 400//3
f 388//48 387//48 397//48 398//48
f 399//39 397//39 387//39 391//39
f 380//48 379//48 393//48 394//48
f 362//3 358//3 329//3 331//3
f 405//49 406//49 409//49 410//49
f 406//12 408//12 413//12 409//12
f 401//41 405//41 407//41 403//41
f 410//15 414//15 407//15 405//15
f 402//60 404//60 408//60 406//60
f 401//61 402//61 406//61 405//61
f 417//59 410//59 409//59 418//59
f 418//31 409//31 413//31 420//31
f 415//13 419//13 417//13 411//13
f 410//35 417//35 419//35 414//35
f 416//3 412//3 418//3 420//3
f 412//48 411//48 417//48 418//48
f 278//62 344//62 342//62 341//62 343//62 277//62
f 276//63 340//63 338//63 337//63 339//63 275//63
f 266//64 265//64 319//64 317//64 318//64 320//64
f 268//65 267//65 323//65 321//65 322//65 324//65
f 308//66 404//66 402//66 401//66 403//66 307//66
f 302//67 301//67 391//67 387//67 388//67 392//67
f 298//68 297//68 383//68 379//68 380//68 384//68
f 284//69 356//69 354//69 353//69 355//69 283//69
f 288//70 364//70 360//70 359//70 363//70 287//70
f 314//71 313//71 415//71 411//71 412//71 416//71
f 337//72 338//72 426//73 425//74
f 338//75 340//75 424//75 426//75
f 337//13 425//13 423//13 339//13
f 275//76 421//76 422//76 276//76
f 276//75 422//75 424//75 340//75
f 275//77 339//77 423//77 421//77
f 425//74 426//73 432//51 431//50
f 426//78 424//78 430//78 432//78
f 425//13 431//13 429//13 423//13
f 421//79 427//18 428//20 422//79
f 422//78 428//78 430//78 424//78
f 421//13 423//13 429//13 427//13
f 445//80 449//80 435//80 433//80
f 435//81 449//81 461//81 441//81
f 434//82 433//82 435//82 441//82 442//82 436//82
f 439//83 457//83 453//83 437//83
f 446//3 434//3 436//3 450//3
f 437//84 438//84 440//84 439//84
f 438//3 454//3 458//3 440//3
f 441//85 461//85 457//85 439//85
f 436//86 442//86 462//86 450//86
f 439//87 440//87 442//87 441//87
f 440//88 458//88 462//88 442//88
f 445//13 443//13 447//13 449//13
f 447//81 459//81 461//81 449//81
f 444//48 448//48 460//48 459//48 447//48 443//48
f 455//83 451//83 453//83 457//83
f 446//3 450//3 448//3 444//3
f 451//89 455//89 456//89 452//89
f 452//90 456//90 458//90 454//90
f 459//85 455//85 457//85 461//85
f 448//86 450//86 462//86 460//86
f 455//91 459//91 460//91 456//91
f 456//88 460//88 462//88 458//88
f 434//92 446//92 444//92 443//92 445//92 433//92
f 438//93 437//93 453//93 451//93 452//93 454//93
f 517//1 463//1 467//1 525//1
f 469//2 470//2 483//2 484//2
f 471//3 533//3 521//3 465//3
f 467//4 491//4 573//4 525//4
f 470//5 530//5 559//5 483//5
f 471//6 472//6 470//6 469//6
f 472//7 534//7 530//7 470//7
f 466//8 522//8 534//8 472//8
f 465//9 466//9 472//9 471//9
f 469//3 529//3 533//3 471//3
f 464//10 468//10 492//10 491//10 467//10 463//10
f 477//11 494//11 493//11 478//11
f 478//12 493//12 579//12 546//12
f 625//13 627//13 545//13 477//13
f 479//14 498//14 497//14 480//14
f 480//3 497//3 587//3 550//3
f 494//15 477//15 545//15 580//15
f 626//3 478//3 546//3 628//3
f 498//16 479//16 549//16 588//16
f 476//3 480//3 550//3 542//3
f 475//14 479//14 480//14 476//14
f 479//17 475//17 541//17 549//17
f 625//18 477//19 478//19 626//94
f 489//21 481//21 553//21 569//21
f 484//22 483//22 488//22 487//22
f 487//3 485//3 561//3 565//3
f 518//13 526//13 468//13 464//13
f 483//13 559//13 566//13 488//13
f 484//3 487//3 565//3 560//3
f 486//23 488//23 566//23 562//23
f 485//24 487//24 488//24 486//24
f 481//25 489//25 490//25 482//25
f 482//13 490//13 570//13 554//13
f 491//26 489//26 569//26 573//26
f 468//27 526//27 574//27 492//27
f 489//28 491//28 492//28 490//28
f 490//29 492//29 574//29 570//29
f 501//30 502//30 493//30 494//30
f 502//31 594//31 579//31 493//31
f 581//32 495//32 501//32 593//32
f 503//33 504//34 497//14 498//14
f 504//3 598//3 587//3 497//3
f 494//35 580//35 593//35 501//35
f 582//3 594//3 502//3 496//3
f 498//36 588//36 597//36 503//36
f 590//37 598//37 504//37 500//37
f 500//38 504//34 503//33 499//38
f 597//39 589//39 499//39 503//39
f 496//40 502//40 501//40 495//40
f 560//3 529//3 469//3 484//3
f 507//11 510//11 509//11 508//11
f 508//12 509//12 611//12 606//12
f 505//41 601//41 605//41 507//41
f 510//15 507//15 605//15 612//15
f 506//3 508//3 606//3 602//3
f 505//42 507//42 508//42 506//42
f 513//30 514//30 509//30 510//30
f 514//31 618//31 611//31 509//31
f 613//13 511//13 513//13 617//13
f 510//35 612//35 617//35 513//35
f 614//3 618//3 514//3 512//3
f 512//14 514//14 513//14 511//14
f 517//3 525//3 523//3 515//3
f 527//43 556//43 555//43 528//43
f 531//3 519//3 521//3 533//3
f 523//4 525//4 573//4 571//4
f 528//5 555//5 559//5 530//5
f 531//44 527//45 528//45 532//46
f 532//7 528//7 530//7 534//7
f 520//47 532//47 534//47 522//47
f 519//48 531//44 532//46 520//48
f 527//3 531//3 533//3 529//3
f 516//48 515//48 523//48 571//48 572//48 524//48
f 543//49 544//49 575//49 576//49
f 544//12 546//12 579//12 575//12
f 629//13 543//13 545//13 627//13
f 547//48 548//48 583//48 584//48
f 548//3 550//3 587//3 583//3
f 576//15 580//15 545//15 543//15
f 630//3 628//3 546//3 544//3
f 584//16 588//16 549//16 547//16
f 540//3 542//3 550//3 548//3
f 539//48 540//48 548//48 547//48
f 547//17 549//17 541//17 539//17
f 629//50 630//95 544//52 543//52
f 567//21 569//21 553//21 551//21
f 556//53 563//53 564//53 555//53
f 563//3 565//3 561//3 557//3
f 518//13 516//13 524//13 526//13
f 555//13 564//13 566//13 559//13
f 556//3 560//3 565//3 563//3
f 558//54 562//54 566//54 564//54
f 557//55 558//55 564//55 563//55
f 551//56 552//56 568//56 567//56
f 552//57 554//57 570//57 568//57
f 571//26 573//26 569//26 567//26
f 524//27 572//27 574//27 526//27
f 567//58 568//58 572//58 571//58
f 568//29 570//29 574//29 572//29
f 591//59 576//59 575//59 592//59
f 592//31 575//31 579//31 594//31
f 581//13 593//13 591//13 577//13
f 595//48 584//48 583//48 596//48
f 596//3 583//3 587//3 598//3
f 576//35 591//35 593//35 580//35
f 582//3 578//3 592//3 594//3
f 584//36 595//36 597//36 588//36
f 590//3 586//3 596//3 598//3
f 586//48 585//48 595//48 596//48
f 597//39 595//39 585//39 589//39
f 578//48 577//48 591//48 592//48
f 560//3 556//3 527//3 529//3
f 603//49 604//49 607//49 608//49
f 604//12 606//12 611//12 607//12
f 599//41 603//41 605//41 601//41
f 608//15 612//15 605//15 603//15
f 600//60 602//60 606//60 604//60
f 599//61 600//61 604//61 603//61
f 615//59 608//59 607//59 616//59
f 616//31 607//31 611//31 618//31
f 613//13 617//13 615//13 609//13
f 608//35 615//35 617//35 612//35
f 614//3 610//3 616//3 618//3
f 610//48 609//48 615//48 616//48
f 476//62 542//62 540//62 539//62 541//62 475//62
f 474//63 538//63 536//63 535//63 537//63 473//63
f 464//64 463//64 517//64 515//64 516//64 518//64
f 466//65 465//65 521//65 519//65 520//65 522//65
f 506//66 602//66 600//66 599//66 601//66 505//66
f 500//67 499//67 589//67 585//67 586//67 590//67
f 496//68 495//68 581//68 577//68 578//68 582//68
f 482//69 554//69 552//69 551//69 553//69 481//69
f 486//70 562//70 558//70 557//70 561//70 485//70
f 512//71 511//71 613//71 609//71 610//71 614//71
f 535//72 536//72 624//73 623//74
f 536//75 538//75 622//75 624//75
f 535//13 623//13 621//13 537//13
f 473//76 619//76 620//76 474//76
f 474//75 620//75 622//75 538//75
f 473//77 537//77 621//77 619//77
f 623//74 624//73 630//95 629//50
f 624//78 622//78 628//78 630//78
f 623//13 629//13 627//13 621//13
f 619//79 625//18 626//94 620//79
f 620//78 626//78 628//78 622//78
f 619//13 621//13 627//13 625//13
f 643//80 647//80 633//80 631//80
f 633//81 647//81 659//81 639//81
f 632//82 631//82 633//82 639//82 640//82 634//82
f 637//83 655//83 651//83 635//83
f 644//3 632//3 634//3 648//3
f 635//84 636//84 638//84 637//84
f 636//3 652//3 656//3 638//3
f 639//85 659//85 655//85 637//85
f 634//86 640//86 660//86 648//86
f 637//87 638//87 640//87 639//87
f 638//88 656//88 660//88 640//88
f 643//13 641//13 645//13 647//13
f 645//81 657//81 659//81 647//81
f 642//48 646//48 658//48 657//48 645//48 641//48
f 653//83 649//83 651//83 655//83
f 644//3 648//3 646//3 642//3
f 649//89 653//89 654//89 650//89
f 650//90 654//90 656//90 652//90
f 657//85 653//85 655//85 659//85
f 646//86 648//86 660//86 658//86
f 653//91 657//91 658//91 654//91
f 654//88 658//88 660//88 656//88
f 632//92 644//92 642//92 641//92 643//92 631//92
f 636//93 635//93 651//93 649//93 650//93 652//93
g Arch_Door_bottompivot_Cube.044_DarkWood
usemtl DarkWood
f 83//3 84//3 4//3 3//3
f 15//14 16//14 31//14 32//14
f 81//71 83//71 3//71 1//71
f 89//96 9//96 14//96 94//96
f 85//97 5//97 10//97 90//97
f 95//98 93//98 13//98 16//98
f 11//14 12//14 27//14 28//14
f 87//99 8//99 7//99 88//99
f 91//100 12//100 11//100 92//100
f 95//101 16//101 15//101 96//101
f 82//102 2//102 6//102 86//102
f 26//103 25//103 41//103 42//103
f 19//104 24//104 40//104 35//104
f 5//14 6//14 21//14 22//14
f 13//14 14//14 29//14 30//14
f 6//14 2//14 18//14 21//14
f 7//14 8//14 23//14 24//14
f 14//14 9//14 26//14 29//14
f 2//14 1//14 17//14 18//14
f 10//14 5//14 22//14 25//14
f 9//14 10//14 25//14 26//14
f 12//14 15//14 32//14 27//14
f 3//14 4//14 19//14 20//14
f 8//14 11//14 28//14 23//14
f 16//14 13//14 30//14 31//14
f 1//14 3//14 20//14 17//14
f 4//14 7//14 24//14 19//14
f 13//105 93//105 94//105 14//105
f 9//106 89//106 90//106 10//106
f 5//107 85//107 86//107 6//107
f 12//108 91//108 96//108 15//108
f 4//109 84//109 88//109 7//109
f 8//110 87//110 92//110 11//110
f 1//13 2//13 82//13 81//13
f 36//14 35//14 34//14 33//14
f 42//14 41//14 38//14 37//14 34//14 35//14 40//14 39//14 44//14 43//14 48//14 47//14 46//14 45//14
f 29//111 26//111 42//111 45//111
f 28//112 27//112 43//112 44//112
f 18//3 17//3 33//3 34//3
f 27//113 32//113 48//113 43//113
f 30//114 29//114 45//114 46//114
f 20//13 19//13 35//13 36//13
f 31//71 30//71 46//71 47//71
f 32//115 31//115 47//115 48//115
f 17//98 20//98 36//98 33//98
f 21//116 18//116 34//116 37//116
f 25//117 22//117 38//117 41//117
f 22//118 21//118 37//118 38//118
f 23//119 28//119 44//119 39//119
f 24//120 23//120 39//120 40//120
f 83//3 51//3 52//3 84//3
f 63//48 80//48 79//48 64//48
f 81//71 49//71 51//71 83//71
f 89//96 94//96 62//96 57//96
f 85//97 90//97 58//97 53//97
f 95//98 64//98 61//98 93//98
f 59//48 76//48 75//48 60//48
f 87//99 88//99 55//99 56//99
f 91//100 92//100 59//100 60//100
f 95//101 96//101 63//101 64//101
f 82//102 86//102 54//102 50//102
f 74//103 106//103 105//103 73//103
f 67//104 99//104 104//104 72//104
f 53//48 70//48 69//48 54//48
f 61//48 78//48 77//48 62//48
f 54//48 69//48 66//48 50//48
f 55//48 72//48 71//48 56//48
f 62//48 77//48 74//48 57//48
f 50//48 66//48 65//48 49//48
f 58//48 73//48 70//48 53//48
f 57//48 74//48 73//48 58//48
f 60//48 75//48 80//48 63//48
f 51//48 68//48 67//48 52//48
f 56//48 71//48 76//48 59//48
f 64//48 79//48 78//48 61//48
f 49//48 65//48 68//48 51//48
f 52//48 67//48 72//48 55//48
f 61//105 62//105 94//105 93//105
f 57//106 58//106 90//106 89//106
f 53//107 54//107 86//107 85//107
f 60//108 63//108 96//108 91//108
f 52//109 55//109 88//109 84//109
f 56//110 59//110 92//110 87//110
f 49//13 81//13 82//13 50//13
f 100//48 97//48 98//48 99//48
f 106//48 109//48 110//48 111//48 112//48 107//48 108//48 103//48 104//48 99//48 98//48 101//48 102//48 105//48
f 77//111 109//111 106//111 74//111
f 76//112 108//112 107//112 75//112
f 66//3 98//3 97//3 65//3
f 75//113 107//113 112//113 80//113
f 78//114 110//114 109//114 77//114
f 68//13 100//13 99//13 67//13
f 79//71 111//71 110//71 78//71
f 80//115 112//115 111//115 79//115
f 65//98 97//98 100//98 68//98
f 69//116 101//116 98//116 66//116
f 73//117 105//117 102//117 70//117
f 70//118 102//118 101//118 69//118
f 71//119 103//119 108//119 76//119
f 72//120 104//120 103//120 71//120
g Arch_Door_bottompivot_Cube.044_Metal
usemtl Metal
f 113//121 114//121 116//121 115//121
f 115//3 116//3 118//3 117//3
f 117//122 118//122 120//122 119//122
f 119//123 120//123 122//123 121//123
f 116//48 114//48 124//48 122//48 120//48 118//48
f 121//13 122//13 124//13 123//13
f 123//124 124//124 114//124 113//124
f 113//14 115//14 117//14 119//14 121//14 123//14
f 125//121 126//121 128//121 127//121
f 127//3 128//3 130//3 129//3
f 129//122 130//122 132//122 131//122
f 131//123 132//123 134//123 133//123
f 128//48 126//48 136//48 134//48 132//48 130//48
f 133//13 134//13 136//13 135//13
f 135//124 136//124 126//124 125//124
f 125//14 127//14 129//14 131//14 133//14 135//14
f 137//121 138//121 140//121 139//121
f 139//3 140//3 142//3 141//3
f 141//122 142//122 144//122 143//122
f 143//123 144//123 146//123 145//123
f 140//48 138//48 148//48 146//48 144//48 142//48
f 145//13 146//13 148//13 147//13
f 147//124 148//124 138//124 137//124
f 137//14 139//14 141//14 143//14 145//14 147//14
f 149//121 150//121 152//121 151//121
f 151//3 152//3 154//3 153//3
f 153//122 154//122 156//122 155//122
f 155//123 156//123 158//123 157//123
f 152//48 150//48 160//48 158//48 156//48 154//48
f 157//13 158//13 160//13 159//13
f 159//124 160//124 150//124 149//124
f 149//14 151//14 153//14 155//14 157//14 159//14
f 161//121 162//121 164//121 163//121
f 163//3 164//3 166//3 165//3
f 165//122 166//122 168//122 167//122
f 167//123 168//123 170//123 169//123
f 164//48 162//48 172//48 170//48 168//48 166//48
f 169//13 170//13 172//13 171//13
f 171//124 172//124 162//124 161//124
f 161//14 163//14 165//14 167//14 169//14 171//14
f 173//121 174//121 176//121 175//121
f 175//3 176//3 178//3 177//3
f 177//122 178//122 180//122 179//122
f 179//123 180//123 182//123 181//123
f 176//48 174//48 184//48 182//48 180//48 178//48
f 181//13 182//13 184//13 183//13
f 183//124 184//124 174//124 173//124
f 173//14 175//14 177//14 179//14 181//14 183//14
f 185//121 186//121 188//121 187//121
f 187//3 188//3 190//3 189//3
f 189//122 190//122 192//122 191//122
f 191//123 192//123 194//123 193//123
f 188//48 186//48 196//48 194//48 192//48 190//48
f 193//13 194//13 196//13 195//13
f 195//124 196//124 186//124 185//124
f 185//14 187//14 189//14 191//14 193//14 195//14
f 197//121 198//121 200//121 199//121
f 199//3 200//3 202//3 201//3
f 201//122 202//122 204//122 203//122
f 203//123 204//123 206//123 205//123
f 200//48 198//48 208//48 206//48 204//48 202//48
f 205//13 206//13 208//13 207//13
f 207//124 208//124 198//124 197//124
f 197//14 199//14 201//14 203//14 205//14 207//14
f 209//121 210//121 212//121 211//121
f 211//3 212//3 214//3 213//3
f 213//122 214//122 216//122 215//122
f 215//123 216//123 218//123 217//123
f 212//48 210//48 220//48 218//48 216//48 214//48
f 217//13 218//13 220//13 219//13
f 219//124 220//124 210//124 209//124
f 209//14 211//14 213//14 215//14 217//14 219//14
f 221//121 222//121 224//121 223//121
f 223//3 224//3 226//3 225//3
f 225//122 226//122 228//122 227//122
f 227//123 228//123 230//123 229//123
f 224//48 222//48 232//48 230//48 228//48 226//48
f 229//13 230//13 232//13 231//13
f 231//124 232//124 222//124 221//124
f 221//14 223//14 225//14 227//14 229//14 231//14
g Arch_Door_bottompivot_Cube.044_DarkMetal
usemtl DarkMetal
f 241//14 244//14 235//14 234//14
f 245//3 246//3 247//3 248//3 243//3 244//3 241//3 242//3
f 248//98 239//98 236//98 243//98
f 233//13 234//13 235//13 236//13 239//13 240//13 237//13 238//13
f 237//48 240//48 247//48 246//48
f 245//125 238//125 237//125 246//125
f 239//126 248//126 247//126 240//126
f 233//127 242//127 241//127 234//127
f 243//128 236//128 235//128 244//128
f 238//71 245//71 242//71 233//71
f 257//14 260//14 251//14 250//14
f 261//3 262//3 263//3 264//3 259//3 260//3 257//3 258//3
f 264//98 255//98 252//98 259//98
f 249//13 250//13 251//13 252//13 255//13 256//13 253//13 254//13
f 253//48 256//48 263//48 262//48
f 261//125 254//125 253//125 262//125
f 255//126 264//126 263//126 256//126
f 249//127 258//127 257//127 250//127
f 259//128 252//128 251//128 260//128
f 254//71 261//71 258//71 249//71
