# Blender 4.5.3 LTS
# www.blender.org
mtllib CarCarcasa.mtl
o Cube
v 0.602457 -0.693258 0.303370
v 0.602457 -1.092519 0.303370
v 0.602457 -0.794124 1.000000
v 0.602457 -1.092519 1.000000
v 0.602457 -1.092519 -1.395322
v 0.602457 -0.693258 -1.390378
v 0.392254 0.453155 -0.003193
v 0.392254 0.453155 -1.197540
v 0.602457 -0.693258 0.244560
v 0.602457 -1.092519 0.244388
v 0.392254 0.453155 -0.044663
v 0.602457 -0.693258 -1.173902
v 0.392254 0.453155 -1.085570
v 0.602457 -1.092519 -1.174263
v 0.602457 -0.693258 -0.648249
v 0.392254 0.453155 -0.649031
v 0.602457 -1.092519 -0.602978
v 0.602457 -0.693258 -0.602694
v 0.392254 0.453155 -0.603085
v 0.397776 0.421024 -1.205372
v 0.397776 0.421024 0.009258
v 0.397776 0.421024 -0.032916
v 0.397776 0.421024 -1.089157
v 0.397776 0.421024 -0.648999
v 0.397776 0.421024 -0.603069
v 0.559599 -1.092519 1.000000
v 0.559599 -1.092519 -1.395322
v 0.559599 -0.693258 0.303370
v 0.559599 -1.092519 0.303370
v 0.559599 -0.794124 1.000000
v 0.559599 -0.693258 -1.390378
v 0.358085 0.453155 -0.003193
v 0.358085 0.453155 -1.197540
v 0.559599 -1.092519 0.244388
v 0.358085 0.453155 -0.044663
v 0.559599 -1.092519 -1.174263
v 0.358085 0.453155 -1.085570
v 0.358085 0.453155 -0.649031
v 0.559599 -1.092519 -0.602978
v 0.358085 0.453155 -0.603085
v 0.363255 0.421024 -1.205372
v 0.363255 0.421024 0.009258
v 0.602457 -0.977732 0.303370
v 0.602457 -1.006731 1.000000
v 0.602457 -0.977732 -1.393901
v 0.602457 -0.977732 0.244437
v 0.602457 -0.977732 -1.174159
v 0.602457 -0.977732 -0.648455
v 0.602457 -0.977732 -0.602896
v 0.559599 -1.006731 1.000000
v 0.559599 -0.977732 -1.393901
v 0.602457 -0.783011 0.923253
v 0.602457 -1.092519 0.923253
v 0.559599 -0.783011 0.923253
v 0.559599 -1.092519 0.923253
v 0.602457 -1.003536 0.923253
v 0.635621 -1.006731 1.032308
v 0.635196 -1.092519 1.032738
v 0.559599 -1.092519 1.046299
v 0.559599 -1.006731 1.046299
v 0.648757 -1.003536 0.923253
v 0.648757 -1.092519 0.923253
v 0.356887 -1.092519 -1.395322
v 0.356887 -1.092519 0.303370
v 0.356887 -0.794124 1.000000
v 0.228371 0.453155 -0.044663
v 0.228371 0.453155 -1.085570
v 0.228371 0.453155 -0.649031
v 0.228371 0.453155 -0.603085
v 0.231668 0.421024 0.009258
v 0.356887 -1.092519 1.000000
v 0.356887 -0.693258 0.303370
v 0.356887 -0.693258 -1.390378
v 0.228371 0.453155 -0.003193
v 0.228371 0.453155 -1.197540
v 0.356887 -1.092519 0.244388
v 0.356887 -1.092519 -1.174263
v 0.356887 -1.092519 -0.602978
v 0.231668 0.421024 -1.205372
v 0.356887 -0.977732 -1.393901
v 0.356887 -1.006731 1.000000
v 0.356887 -1.092519 0.923253
v 0.356887 -0.783011 0.923253
v 0.356887 -1.092519 1.046299
v 0.356887 -1.006731 1.046299
v 0.356887 -0.826819 1.000000
v 0.559599 -0.826819 1.000000
v 0.356887 -0.927101 1.000000
v 0.559599 -0.927101 1.000000
v 0.344059 -0.826555 1.000000
v 0.344059 -0.900439 1.000000
v 0.327936 -0.830698 1.007686
v 0.327936 -0.897657 1.007686
v 0.356887 -0.826819 1.005885
v 0.364697 -0.834628 1.013694
v 0.551790 -0.834628 1.013694
v 0.559599 -0.826819 1.005885
v 0.356887 -0.927101 1.005885
v 0.364697 -0.919291 1.013694
v 0.551790 -0.919291 1.013694
v 0.559599 -0.927101 1.005885
v 0.596758 -0.662232 0.295181
v 0.596758 -0.662232 -1.385226
v 0.596758 -0.662232 0.236834
v 0.596758 -0.662232 -1.171543
v 0.596758 -0.662232 -0.648270
v 0.596758 -0.662232 -0.602705
v 0.554133 -0.662232 0.295181
v 0.554133 -0.662232 -1.385226
v 0.353401 -0.662232 0.295181
v 0.353401 -0.662232 -1.385226
v 0.719217 -0.673436 0.241351
v 0.719234 -0.586747 0.236049
v 0.715422 -0.577540 0.237483
v 0.719217 -0.673436 0.239378
v 0.719234 -0.586747 0.234077
v 0.715422 -0.577540 0.233514
v 0.613401 -0.662232 0.293133
v 0.620513 -0.693258 0.300130
v 0.609660 -0.693258 0.242329
v 0.602633 -0.662232 0.235788
v 0.650111 -0.566925 0.273019
v 0.651599 -0.693258 0.281071
v 0.643143 -0.693258 0.236042
v 0.641741 -0.566925 0.228444
v 0.731004 -0.566925 0.230277
v 0.732492 -0.693258 0.238330
v 0.729034 -0.693258 0.219914
v 0.727632 -0.566925 0.212316
v 0.643171 -0.693217 0.236034
v 0.647547 -0.673436 0.233982
v 0.651397 -0.682643 0.233832
v 0.660489 -0.686457 0.232362
v 0.641769 -0.566966 0.228442
v 0.659237 -0.573726 0.225582
v 0.650231 -0.577540 0.227511
v 0.646585 -0.586747 0.228768
v 0.729006 -0.693217 0.219916
v 0.711538 -0.686457 0.222776
v 0.720545 -0.682643 0.220847
v 0.724190 -0.673436 0.219590
v 0.727604 -0.566966 0.212324
v 0.723228 -0.586747 0.214376
v 0.719378 -0.577540 0.214526
v 0.710286 -0.573726 0.215996
v 0.649133 -0.673436 0.242426
v 0.652983 -0.682643 0.242276
v 0.662074 -0.686457 0.240806
v 0.722130 -0.682643 0.229292
v 0.725776 -0.673436 0.228034
v 0.713124 -0.686457 0.231220
v 0.720963 -0.577540 0.222971
v 0.711872 -0.573726 0.224440
v 0.724814 -0.586747 0.222821
v 0.651816 -0.577540 0.235955
v 0.648170 -0.586747 0.237212
v 0.660823 -0.573726 0.234026
v 0.324682 -0.406676 -1.342796
v 0.509161 -0.407014 -1.342852
v 0.587538 -0.640951 0.207429
v 0.395857 0.402557 -0.052423
v 0.587538 -0.640951 -1.149270
v 0.395857 0.402557 -1.069908
v 0.587538 -0.640951 -0.645198
v 0.395857 0.402557 -0.645900
v 0.587538 -0.640951 -0.601305
v 0.395857 0.402557 -0.601656
v 0.235843 0.402557 -0.011796
v 0.235843 0.402557 -1.181858
v 0.362602 0.402557 -1.181858
v 0.546476 -0.640951 0.263635
v 0.362602 0.402557 -0.011796
v 0.503155 -0.395098 -1.314294
v 0.353110 -0.640951 0.263635
v 0.325445 -0.394772 -1.314240
v 0.356887 -0.721766 -1.390731
v 0.559599 -0.721766 -1.390731
v 0.356887 -0.809372 -1.391816
v 0.559599 -0.809372 -1.391816
v 0.494268 -0.721766 -1.390731
v 0.494268 -0.809372 -1.391816
v 0.424184 -0.721766 -1.390731
v 0.424184 -0.809372 -1.391816
v 0.419353 -0.728055 -1.399126
v 0.361719 -0.728055 -1.399126
v 0.361719 -0.803082 -1.400055
v 0.419353 -0.803082 -1.400055
v 0.489166 -0.728143 -1.399150
v 0.489166 -0.802994 -1.400077
v 0.429286 -0.728143 -1.399150
v 0.429286 -0.802994 -1.400077
v 0.555025 -0.727900 -1.399095
v 0.555025 -0.803238 -1.400028
v 0.498842 -0.727900 -1.399095
v 0.498842 -0.803238 -1.400028
v 0.173222 -0.730035 -1.390833
v 0.173222 -0.806752 -1.391783
v 0.166641 -0.732949 -1.382457
v 0.166641 -0.803837 -1.383335
v 0.367958 -1.092108 -1.432610
v 0.643118 -0.977320 -1.431189
v 0.643118 -1.092108 -1.432610
v 0.643118 -1.092108 -1.211551
v 0.570670 -1.092108 -1.432610
v 0.570670 -0.977320 -1.431189
v 0.643118 -0.977320 -1.211447
v 0.367958 -0.977320 -1.431189
v 0.057461 -0.522593 -1.357823
v 0.054350 -0.522593 -1.358516
v 0.054350 -0.522593 -1.369930
v 0.054350 -0.533909 -1.358516
v 0.054350 -0.533909 -1.369930
v 0.356887 -0.978467 1.000000
v 0.559599 -0.978467 1.000000
v 0.549569 -0.979866 1.008055
v 0.549569 -1.005332 1.008055
v 0.366918 -1.005332 1.008055
v 0.366918 -0.979866 1.008055
v 0.356518 -0.685206 0.305750
v 0.557674 -0.685206 0.305750
v 0.557674 -0.774271 0.920873
v 0.356518 -0.774271 0.920873
v 0.345944 -0.658533 -1.384626
v 0.541059 -0.658533 -1.384626
v 0.318029 -0.410129 -1.343383
v 0.497346 -0.410457 -1.343437
v 0.058286 -0.522802 -1.357989
v 0.055262 -0.522802 -1.369758
v 0.055262 -0.522802 -1.358662
v 0.055262 -0.533801 -1.358662
v 0.055262 -0.533801 -1.369758
v 0.345944 -0.658533 -1.391986
v 0.541059 -0.658533 -1.391986
v 0.318029 -0.410129 -1.350743
v 0.497346 -0.410457 -1.350798
v 0.086241 -0.502479 -1.366076
v 0.086241 -0.555882 -1.374943
v 0.080296 -0.506268 -1.362604
v 0.080296 -0.552093 -1.370212
v 0.058286 -0.522802 -1.365349
v 0.058286 -0.534402 -1.367275
v 0.058286 -0.522802 -1.377791
v 0.058286 -0.534402 -1.379717
v 0.055262 -0.522802 -1.377118
v 0.055262 -0.522802 -1.366023
v 0.055262 -0.533801 -1.366023
v 0.055262 -0.533801 -1.377118
v 0.602457 -0.738584 -0.534494
v 0.602457 -0.738584 -0.408341
v 0.602457 -0.807005 -0.408341
v 0.602457 -0.807005 -0.534494
v 0.596638 -0.742257 -0.527720
v 0.596638 -0.742257 -0.415115
v 0.596638 -0.803331 -0.415115
v 0.596638 -0.803331 -0.527720
v 0.596638 -0.767022 -0.527720
v 0.596638 -0.767022 -0.415115
v 0.596638 -0.775973 -0.527720
v 0.596638 -0.775973 -0.415115
v 0.605644 -0.775973 -0.527720
v 0.605644 -0.767022 -0.527720
v 0.605644 -0.767022 -0.415115
v 0.605644 -0.775973 -0.415115
v 0.392254 0.500254 -1.118268
v 0.392254 0.500254 -1.230238
v 0.358085 0.500254 -1.230238
v 0.228371 0.500254 -1.118268
v 0.228371 0.500254 -1.230238
v 0.358085 0.500254 -1.118268
v 0.159134 -0.736143 -1.388553
v 0.159134 -0.800643 -1.389352
v -0.602457 -0.693258 0.303370
v -0.602457 -1.092519 0.303370
v -0.602457 -0.794124 1.000000
v -0.602457 -1.092519 1.000000
v 0.000000 -0.693258 -1.390378
v 0.000000 -1.092519 -1.395322
v -0.602457 -1.092519 -1.395322
v -0.602457 -0.693258 -1.390378
v 0.000000 -1.092519 0.303370
v 0.000000 -0.794124 1.000000
v 0.000000 -1.092519 1.000000
v 0.000000 -0.693258 0.303370
v -0.392254 0.453155 -0.003193
v 0.000000 0.453155 -1.197540
v -0.392254 0.453155 -1.197540
v 0.000000 0.453155 -0.003193
v -0.602457 -0.693258 0.244560
v -0.602457 -1.092519 0.244388
v 0.000000 -1.092519 0.244388
v 0.000000 0.453155 -0.044663
v -0.392254 0.453155 -0.044663
v -0.602457 -0.693258 -1.173902
v 0.000000 -1.092519 -1.174263
v -0.392254 0.453155 -1.085570
v -0.602457 -1.092519 -1.174263
v 0.000000 0.453155 -1.085570
v 0.000000 0.453155 -0.649031
v -0.602457 -0.693258 -0.648249
v -0.392254 0.453155 -0.649031
v -0.602457 -1.092519 -0.602978
v 0.000000 0.453155 -0.603085
v -0.602457 -0.693258 -0.602694
v 0.000000 -1.092519 -0.602978
v -0.392254 0.453155 -0.603085
v 0.000000 0.421024 -1.205372
v -0.397776 0.421024 -1.205372
v -0.397776 0.421024 0.009258
v 0.000000 0.421024 0.009258
v -0.397776 0.421024 -0.032916
v -0.397776 0.421024 -1.089157
v -0.397776 0.421024 -0.648999
v -0.397776 0.421024 -0.603069
v -0.559599 -1.092519 1.000000
v -0.559599 -1.092519 -1.395322
v -0.559599 -0.693258 0.303370
v -0.559599 -1.092519 0.303370
v -0.559599 -0.794124 1.000000
v -0.559599 -0.693258 -1.390378
v -0.358085 0.453155 -0.003193
v -0.358085 0.453155 -1.197540
v -0.559599 -1.092519 0.244388
v -0.358085 0.453155 -0.044663
v -0.559599 -1.092519 -1.174263
v -0.358085 0.453155 -1.085570
v -0.358085 0.453155 -0.649031
v -0.559599 -1.092519 -0.602978
v -0.358085 0.453155 -0.603085
v -0.363255 0.421024 -1.205372
v -0.363255 0.421024 0.009258
v -0.602457 -0.977732 0.303370
v -0.602457 -1.006731 1.000000
v 0.000000 -0.977732 -1.393901
v -0.602457 -0.977732 -1.393901
v 0.000000 -1.006731 1.000000
v -0.602457 -0.977732 0.244437
v -0.602457 -0.977732 -1.174159
v -0.602457 -0.977732 -0.648455
v -0.602457 -0.977732 -0.602896
v -0.559599 -1.006731 1.000000
v -0.559599 -0.977732 -1.393901
v -0.602457 -0.783011 0.923253
v -0.602457 -1.092519 0.923253
v 0.000000 -1.092519 0.923253
v 0.000000 -0.783011 0.923253
v -0.559599 -0.783011 0.923253
v -0.559599 -1.092519 0.923253
v -0.602457 -1.003536 0.923253
v -0.635621 -1.006731 1.032308
v -0.635196 -1.092519 1.032738
v -0.559599 -1.092519 1.046299
v 0.000000 -1.006731 1.046299
v 0.000000 -1.092519 1.046299
v -0.559599 -1.006731 1.046299
v -0.648757 -1.003536 0.923253
v -0.648757 -1.092519 0.923253
v -0.356887 -1.092519 -1.395322
v -0.356887 -1.092519 0.303370
v -0.356887 -0.794124 1.000000
v -0.228371 0.453155 -0.044663
v -0.228371 0.453155 -1.085570
v -0.228371 0.453155 -0.649031
v -0.228371 0.453155 -0.603085
v -0.231668 0.421024 0.009258
v -0.356887 -1.092519 1.000000
v -0.356887 -0.693258 0.303370
v -0.356887 -0.693258 -1.390378
v -0.228371 0.453155 -0.003193
v -0.228371 0.453155 -1.197540
v -0.356887 -1.092519 0.244388
v -0.356887 -1.092519 -1.174263
v -0.356887 -1.092519 -0.602978
v -0.231668 0.421024 -1.205372
v -0.356887 -0.977732 -1.393901
v -0.356887 -1.006731 1.000000
v -0.356887 -1.092519 0.923253
v -0.356887 -0.783011 0.923253
v -0.356887 -1.092519 1.046299
v -0.356887 -1.006731 1.046299
v -0.356887 -0.826819 1.000000
v -0.559599 -0.826819 1.000000
v -0.356887 -0.927101 1.000000
v -0.559599 -0.927101 1.000000
v 0.000000 -0.825246 1.000000
v 0.000000 -0.930785 1.000000
v -0.344059 -0.826555 1.000000
v -0.344059 -0.900439 1.000000
v 0.000000 -0.829511 1.007686
v 0.000000 -0.925159 1.007686
v -0.327936 -0.830698 1.007686
v -0.327936 -0.897657 1.007686
v -0.356887 -0.826819 1.005885
v -0.364697 -0.834628 1.013694
v -0.551790 -0.834628 1.013694
v -0.559599 -0.826819 1.005885
v -0.356887 -0.927101 1.005885
v -0.364697 -0.919291 1.013694
v -0.551790 -0.919291 1.013694
v -0.559599 -0.927101 1.005885
v -0.596758 -0.662232 0.295181
v 0.000000 -0.662232 0.295181
v 0.000000 -0.662232 -1.385226
v -0.596758 -0.662232 -1.385226
v -0.596758 -0.662232 0.236834
v -0.596758 -0.662232 -1.171543
v -0.596758 -0.662232 -0.648270
v -0.596758 -0.662232 -0.602705
v -0.554133 -0.662232 0.295181
v -0.554133 -0.662232 -1.385226
v -0.353401 -0.662232 0.295181
v -0.353401 -0.662232 -1.385226
v -0.719217 -0.673436 0.241351
v -0.719234 -0.586747 0.236049
v -0.715422 -0.577540 0.237483
v -0.719217 -0.673436 0.239378
v -0.719234 -0.586747 0.234077
v -0.715422 -0.577540 0.233514
v -0.613401 -0.662232 0.293133
v -0.620513 -0.693258 0.300130
v -0.609660 -0.693258 0.242329
v -0.602633 -0.662232 0.235788
v -0.650111 -0.566925 0.273019
v -0.651599 -0.693258 0.281071
v -0.643143 -0.693258 0.236042
v -0.641741 -0.566925 0.228444
v -0.731004 -0.566925 0.230277
v -0.732492 -0.693258 0.238330
v -0.729034 -0.693258 0.219914
v -0.727632 -0.566925 0.212316
v -0.643171 -0.693217 0.236034
v -0.647547 -0.673436 0.233982
v -0.651397 -0.682643 0.233832
v -0.660489 -0.686457 0.232362
v -0.641769 -0.566966 0.228442
v -0.659237 -0.573726 0.225582
v -0.650231 -0.577540 0.227511
v -0.646585 -0.586747 0.228768
v -0.729006 -0.693217 0.219916
v -0.711538 -0.686457 0.222776
v -0.720545 -0.682643 0.220847
v -0.724190 -0.673436 0.219590
v -0.727604 -0.566966 0.212324
v -0.723228 -0.586747 0.214376
v -0.719378 -0.577540 0.214526
v -0.710286 -0.573726 0.215996
v -0.649133 -0.673436 0.242426
v -0.652983 -0.682643 0.242276
v -0.662074 -0.686457 0.240806
v -0.722130 -0.682643 0.229292
v -0.725776 -0.673436 0.228034
v -0.713124 -0.686457 0.231220
v -0.720963 -0.577540 0.222971
v -0.711872 -0.573726 0.224440
v -0.724814 -0.586747 0.222821
v -0.651816 -0.577540 0.235955
v -0.648170 -0.586747 0.237212
v -0.660823 -0.573726 0.234026
v -0.324682 -0.406676 -1.342796
v 0.000000 -0.406081 -1.342697
v -0.509161 -0.407014 -1.342852
v 0.000000 -0.394199 -1.314145
v 0.000000 0.402557 -1.181858
v -0.587538 -0.640951 0.207429
v -0.395857 0.402557 -0.052423
v -0.587538 -0.640951 -1.149270
v -0.395857 0.402557 -1.069908
v -0.587538 -0.640951 -0.645198
v -0.395857 0.402557 -0.645900
v -0.587538 -0.640951 -0.601305
v -0.395857 0.402557 -0.601656
v -0.235843 0.402557 -0.011796
v 0.000000 0.402557 -0.011796
v -0.235843 0.402557 -1.181858
v -0.362602 0.402557 -1.181858
v -0.546476 -0.640951 0.263635
v -0.362602 0.402557 -0.011796
v -0.503155 -0.395098 -1.314294
v -0.353110 -0.640951 0.263635
v -0.325445 -0.394772 -1.314240
v 0.000000 -0.640951 0.263635
v -0.356887 -0.721766 -1.390731
v -0.559599 -0.721766 -1.390731
v -0.356887 -0.809372 -1.391816
v -0.559599 -0.809372 -1.391816
v -0.494268 -0.721766 -1.390731
v -0.494268 -0.809372 -1.391816
v -0.424184 -0.721766 -1.390731
v -0.424184 -0.809372 -1.391816
v -0.419353 -0.728055 -1.399126
v -0.361719 -0.728055 -1.399126
v -0.361719 -0.803082 -1.400055
v -0.419353 -0.803082 -1.400055
v -0.489166 -0.728143 -1.399150
v -0.489166 -0.802994 -1.400077
v -0.429286 -0.728143 -1.399150
v -0.429286 -0.802994 -1.400077
v -0.555025 -0.727900 -1.399095
v -0.555025 -0.803238 -1.400028
v -0.498842 -0.727900 -1.399095
v -0.498842 -0.803238 -1.400028
v 0.000000 -0.730035 -1.390833
v 0.000000 -0.806751 -1.391783
v -0.173222 -0.730035 -1.390833
v -0.173222 -0.806752 -1.391783
v 0.000000 -0.732949 -1.382457
v 0.000000 -0.803837 -1.383335
v -0.166641 -0.732949 -1.382457
v -0.166641 -0.803837 -1.383335
v 0.000000 -0.977320 -1.431189
v 0.000000 -1.092108 -1.432610
v -0.367958 -1.092108 -1.432610
v -0.643118 -0.977320 -1.431189
v -0.643118 -1.092108 -1.211551
v -0.570670 -1.092108 -1.432610
v -0.570670 -0.977320 -1.431189
v -0.643118 -0.977320 -1.211447
v -0.367958 -0.977320 -1.431189
v 0.000000 -0.522593 -1.357823
v -0.057461 -0.522593 -1.357823
v 0.000000 -0.522593 -1.358516
v -0.054350 -0.522593 -1.358516
v 0.000000 -0.522593 -1.369930
v -0.054350 -0.522593 -1.369930
v 0.000000 -0.533909 -1.358516
v -0.054350 -0.533909 -1.358516
v 0.000000 -0.533909 -1.369930
v -0.054350 -0.533909 -1.369930
v -0.356887 -0.978467 1.000000
v -0.559599 -0.978467 1.000000
v -0.549569 -0.979866 1.008055
v -0.549569 -1.005332 1.008055
v -0.366918 -1.005332 1.008055
v -0.366918 -0.979866 1.008055
v -0.356518 -0.685206 0.305750
v -0.557674 -0.685206 0.305750
v 0.000000 -0.685206 0.305750
v 0.000000 -0.774271 0.920873
v -0.557674 -0.774271 0.920873
v -0.356518 -0.774271 0.920873
v -0.345944 -0.658533 -1.384626
v -0.541059 -0.658533 -1.384626
v 0.000000 -0.658533 -1.384626
v -0.318029 -0.410129 -1.343383
v 0.000000 -0.409551 -1.343287
v -0.497346 -0.410457 -1.343437
v 0.000000 -0.522802 -1.357989
v -0.058286 -0.522802 -1.357989
v 0.000000 -0.522802 -1.369758
v -0.055262 -0.522802 -1.369758
v -0.055262 -0.522802 -1.358662
v 0.000000 -0.533801 -1.358662
v -0.055262 -0.533801 -1.358662
v 0.000000 -0.533801 -1.369758
v -0.055262 -0.533801 -1.369758
v -0.345944 -0.658533 -1.391986
v -0.541059 -0.658533 -1.391986
v 0.000000 -0.658533 -1.391986
v -0.318029 -0.410129 -1.350743
v 0.000000 -0.502479 -1.366076
v 0.000000 -0.409551 -1.350647
v -0.497346 -0.410457 -1.350798
v 0.000000 -0.555881 -1.374943
v 0.000000 -0.552093 -1.370212
v -0.086241 -0.502479 -1.366076
v -0.086241 -0.555882 -1.374943
v 0.000000 -0.522802 -1.365349
v 0.000000 -0.506268 -1.362604
v -0.080296 -0.506268 -1.362604
v -0.080296 -0.552093 -1.370212
v 0.000000 -0.534402 -1.367275
v -0.058286 -0.522802 -1.365349
v -0.058286 -0.534402 -1.367275
v 0.000000 -0.534402 -1.379717
v 0.000000 -0.522802 -1.377791
v -0.058286 -0.522802 -1.377791
v -0.058286 -0.534402 -1.379717
v 0.000000 -0.522802 -1.377118
v -0.055262 -0.522802 -1.377118
v -0.055262 -0.522802 -1.366023
v 0.000000 -0.533801 -1.366023
v -0.055262 -0.533801 -1.366023
v 0.000000 -0.533801 -1.377118
v -0.055262 -0.533801 -1.377118
v -0.602457 -0.738584 -0.534494
v -0.602457 -0.738584 -0.408341
v -0.602457 -0.807005 -0.408341
v -0.602457 -0.807005 -0.534494
v -0.596638 -0.742257 -0.527720
v -0.596638 -0.742257 -0.415115
v -0.596638 -0.803331 -0.415115
v -0.596638 -0.803331 -0.527720
v -0.596638 -0.767022 -0.527720
v -0.596638 -0.767022 -0.415115
v -0.596638 -0.775973 -0.527720
v -0.596638 -0.775973 -0.415115
v -0.605644 -0.775973 -0.527720
v -0.605644 -0.767022 -0.527720
v -0.605644 -0.767022 -0.415115
v -0.605644 -0.775973 -0.415115
v -0.392254 0.500254 -1.118268
v -0.392254 0.500254 -1.230238
v -0.358085 0.500254 -1.230238
v 0.000000 0.500254 -1.230238
v 0.000000 0.500254 -1.118268
v -0.228371 0.500254 -1.118268
v -0.228371 0.500254 -1.230238
v -0.358085 0.500254 -1.118268
v 0.000000 -0.736143 -1.388553
v 0.000000 -0.800643 -1.389352
v -0.159134 -0.736143 -1.388553
v -0.159134 -0.800643 -1.389352
v 0.602457 -1.089209 0.324913
v -0.602457 -1.089209 0.324913
v 0.602457 -0.849816 0.521377
v -0.602457 -0.849816 0.521377
v 0.602457 -1.041591 0.329603
v -0.602457 -1.041591 0.329603
v 0.602457 -0.863705 0.475589
v -0.602457 -0.863706 0.475589
v 0.602457 -0.916616 0.396403
v -0.602457 -0.916616 0.396403
v 0.602457 -0.953604 0.366048
v -0.602457 -0.953604 0.366048
v 0.602457 -0.845126 0.568995
v -0.602457 -0.845126 0.568995
v 0.602457 -0.995802 0.343492
v -0.602457 -0.995803 0.343492
v -0.602457 -0.979759 0.352068
v 0.602457 -0.849816 0.616614
v -0.602457 -0.849816 0.616614
v 0.602457 -0.863705 0.662402
v -0.602457 -0.863705 0.662402
v 0.602457 -0.886261 0.433390
v -0.602457 -0.886261 0.433390
v 0.602457 -1.092519 0.325239
v -0.602457 -1.092519 0.325239
v 0.559599 -1.092519 0.325239
v 0.356887 -1.092519 0.325239
v 0.000000 -1.092519 0.325239
v -0.356887 -1.092519 0.325239
v -0.559599 -1.092519 0.325239
v 0.602457 -0.979759 0.352068
v -0.602457 -0.998206 0.795228
v 0.602457 -1.041590 0.808389
v -0.602457 -1.041590 0.808389
v 0.602457 -0.995802 0.794499
v 0.602457 -0.998206 0.795228
v -0.602457 -0.995802 0.794499
v 0.602457 -0.916616 0.741588
v -0.602457 -0.916616 0.741588
v 0.602457 -0.886261 0.704601
v -0.602457 -0.886261 0.704601
v 0.602457 -0.953603 0.771943
v -0.602457 -0.953603 0.771943
v 0.602457 -1.089209 0.813079
v 0.602457 -1.092519 0.812753
v -0.602457 -1.089209 0.813079
v 0.559599 -1.092519 0.812753
v 0.356887 -1.092519 0.812753
v 0.000000 -1.092519 0.812753
v -0.356887 -1.092519 0.812753
v -0.559599 -1.092519 0.812753
v -0.602457 -1.092519 0.812753
v -0.602457 -1.089209 -1.132899
v 0.602457 -1.089209 -1.132899
v 0.602457 -0.849816 -0.936434
v -0.602457 -0.849816 -0.936434
v -0.602457 -1.041591 -1.128209
v 0.602457 -1.041591 -1.128209
v 0.602457 -0.863705 -0.982223
v -0.602457 -0.863706 -0.982223
v 0.602457 -0.916616 -1.061409
v -0.602457 -0.916616 -1.061409
v 0.602457 -0.953604 -1.091764
v -0.602457 -0.953604 -1.091764
v 0.602457 -0.845126 -0.888816
v -0.602457 -0.845126 -0.888816
v -0.602457 -0.995803 -1.114319
v 0.602457 -0.995802 -1.114319
v -0.602457 -0.977732 -1.104660
v 0.602457 -0.849816 -0.841198
v -0.602457 -0.849816 -0.841198
v 0.602457 -0.863705 -0.795410
v -0.602457 -0.863705 -0.795410
v 0.602457 -0.886261 -1.024421
v -0.602457 -0.886261 -1.024421
v -0.602457 -1.092519 -1.132573
v 0.602457 -1.092519 -1.132573
v 0.356887 -1.092519 -1.132573
v 0.000000 -1.092519 -1.132573
v -0.356887 -1.092519 -1.132573
v 0.559599 -1.092519 -1.132573
v -0.559600 -1.092519 -1.132573
v 0.602457 -0.977732 -1.104660
v 0.602457 -1.041590 -0.649423
v -0.602457 -1.041590 -0.649423
v 0.602457 -0.995802 -0.663313
v -0.602457 -0.995802 -0.663313
v -0.602457 -0.977732 -0.672972
v 0.602457 -0.916616 -0.716223
v -0.602457 -0.916616 -0.716223
v 0.602457 -0.886261 -0.753211
v -0.602457 -0.886261 -0.753211
v 0.602457 -0.977732 -0.672972
v 0.602457 -0.953603 -0.685868
v -0.602457 -0.953603 -0.685868
v -0.602457 -1.089209 -0.644733
v 0.602457 -1.089208 -0.644733
v 0.602457 -1.092519 -0.645059
v 0.356887 -1.092519 -0.645059
v 0.000000 -1.092519 -0.645059
v -0.356887 -1.092519 -0.645059
v -0.559599 -1.092519 -0.645059
v 0.559599 -1.092519 -0.645059
v -0.602457 -1.092519 -0.645059
v -0.602457 -1.050881 -0.648508
v 0.602457 -1.050881 -0.648508
v 0.403320 -1.085816 -1.119674
v 0.584558 -1.085816 -1.119674
v 0.403320 -1.130791 -1.115245
v 0.584558 -1.130791 -1.115245
v 0.403320 -1.174037 -1.102126
v 0.584558 -1.174037 -1.102126
v 0.403320 -1.213893 -1.080823
v 0.584558 -1.213893 -1.080823
v 0.403320 -1.085816 -0.658611
v 0.584558 -1.085816 -0.658611
v 0.403320 -1.040842 -0.663041
v 0.584558 -1.040842 -0.663041
v 0.403320 -0.997596 -0.676160
v 0.584558 -0.997596 -0.676160
v 0.403320 -0.957740 -0.697463
v 0.403320 -0.894136 -0.761067
v 0.584558 -0.894136 -0.761067
v 0.403320 -0.872833 -0.800922
v 0.584558 -0.872833 -0.800923
v 0.403320 -0.859715 -0.844169
v 0.584558 -0.859715 -0.844169
v 0.403320 -0.855285 -0.889143
v 0.584558 -0.855285 -0.889143
v 0.403320 -0.859715 -0.934117
v 0.584558 -0.859715 -0.934118
v 0.403320 -0.872833 -0.977364
v 0.584558 -0.872833 -0.977364
v 0.403320 -0.894137 -1.017219
v 0.584558 -0.894137 -1.017219
v 0.403320 -0.957740 -1.080823
v 0.584558 -0.957740 -1.080823
v 0.403320 -0.997596 -1.102126
v 0.584558 -0.997596 -1.102126
v 0.403320 -1.040842 -1.115245
v 0.584558 -1.040842 -1.115245
v 0.584558 -1.116303 -1.042408
v 0.584558 -1.085816 -1.045410
v 0.584558 -1.145617 -1.033515
v 0.584558 -1.242084 -0.889143
v 0.584558 -0.975319 -0.999641
v 0.584558 -1.026016 -1.033515
v 0.584558 -1.055330 -1.042408
v 0.587739 -0.983164 -0.991795
v 0.587739 -1.057495 -1.031526
v 0.587739 -1.030262 -1.023265
v 0.587739 -1.085816 -1.034315
v 0.587739 -1.116966 -0.902045
v 0.587739 -1.119532 -0.889143
v 0.587739 -1.054667 -0.902045
v 0.587739 -1.079239 -0.922211
v 0.584558 -1.085816 -1.045410
v 0.584558 -1.145617 -1.033515
v 0.584558 -1.026016 -1.033515
v 0.587739 -1.085816 -1.034315
v -0.584558 -1.085817 -0.658611
v -0.403320 -1.085817 -1.119674
v -0.584558 -1.085817 -1.119674
v -0.403320 -0.997596 -1.102126
v -0.584558 -0.997596 -1.102126
v -0.403320 -0.957740 -1.080823
v -0.584558 -0.957740 -1.080823
v -0.403320 -0.922806 -1.052153
v -0.584558 -0.922806 -1.052153
v -0.403320 -0.894137 -1.017219
v -0.584558 -0.894137 -1.017219
v -0.403320 -0.872833 -0.977363
v -0.584558 -0.872833 -0.977363
v -0.584558 -0.859715 -0.934117
v -0.584558 -0.855285 -0.889143
v -0.584558 -0.859715 -0.844168
v -0.403320 -0.872833 -0.800922
v -0.584558 -0.872833 -0.800922
v -0.403320 -0.894137 -0.761066
v -0.584558 -0.894137 -0.761066
v -0.584558 -0.922807 -0.726132
v -0.584558 -0.957740 -0.697463
v -0.584558 -0.997596 -0.676160
v -0.584558 -1.040843 -0.663041
v -0.584558 -1.085817 0.797683
v -0.403320 -1.085817 0.336620
v -0.584558 -1.085817 0.336620
v -0.584558 -1.040842 0.341049
v -0.584558 -0.997596 0.354168
v -0.584558 -0.957740 0.375472
v -0.584558 -0.894137 0.439075
v -0.584558 -0.872833 0.478931
v -0.584558 -0.859715 0.522177
v -0.584558 -0.855285 0.567152
v -0.584558 -0.859715 0.612126
v -0.584558 -0.872833 0.655372
v -0.584558 -0.894137 0.695228
v -0.584558 -0.957740 0.758831
v -0.584558 -0.997596 0.780135
v -0.584558 -1.040843 0.793253
v 0.587538 -0.640951 0.207429
v 0.395857 0.402557 -0.052423
v 0.587538 -0.640951 -1.149270
v 0.395857 0.402557 -1.069908
v 0.587538 -0.640951 -0.645198
v 0.395857 0.402557 -0.645900
v 0.587538 -0.640951 -0.601305
v 0.395857 0.402557 -0.601656
v 0.235843 0.402557 -0.011796
v 0.235843 0.402557 -1.181858
v 0.362602 0.402557 -1.181858
v 0.546476 -0.640951 0.263635
v 0.362602 0.402557 -0.011796
v 0.503155 -0.395098 -1.314294
v 0.353110 -0.640951 0.263635
v 0.325445 -0.394772 -1.314240
v 0.000000 -0.394199 -1.314145
v 0.000000 0.402557 -1.181858
v -0.587538 -0.640951 0.207429
v -0.395857 0.402557 -0.052423
v -0.587538 -0.640951 -1.149270
v -0.395857 0.402557 -1.069908
v -0.587538 -0.640951 -0.645198
v -0.395857 0.402557 -0.645900
v -0.587538 -0.640951 -0.601305
v -0.395857 0.402557 -0.601656
v -0.235843 0.402557 -0.011796
v 0.000000 0.402557 -0.011796
v -0.235843 0.402557 -1.181858
v -0.362602 0.402557 -1.181858
v -0.546476 -0.640951 0.263635
v -0.362602 0.402557 -0.011796
v -0.503155 -0.395098 -1.314294
v -0.353110 -0.640951 0.263635
v -0.325445 -0.394772 -1.314240
v 0.000000 -0.640951 0.263635
vn 0.9835 0.1807 -0.0000
vn -0.0000 0.2552 0.9669
vn -0.0000 0.1638 -0.9865
vn -0.9835 0.1807 -0.0000
vn -0.0000 0.3290 0.9443
vn -0.0000 0.3031 0.9530
vn -0.0000 0.3613 0.9324
vn -0.0000 0.5703 0.8214
vn -0.0000 -1.0000 -0.0055
vn -0.0000 -0.9999 -0.0110
vn -0.0000 -1.0000 -0.0000
vn 1.0000 -0.0000 -0.0000
vn 0.9898 0.1382 0.0359
vn 0.9844 0.1758 -0.0000
vn 0.9970 0.0771 -0.0000
vn 0.9915 0.1299 -0.0000
vn -0.0000 0.0124 -0.9999
vn -0.0000 0.0884 -0.9961
vn -0.0000 0.0838 -0.9965
vn -0.0000 -0.0000 1.0000
vn 0.2030 -0.0000 0.9792
vn 0.2032 -0.0000 0.9791
vn -0.0000 0.9897 0.1433
vn -0.0000 0.2368 -0.9716
vn 0.9844 0.1762 -0.0000
vn 0.9905 0.1322 -0.0368
vn 0.9856 0.1694 -0.0000
vn -0.0000 1.0000 -0.0000
vn 0.9950 0.0994 -0.0000
vn 0.9942 0.1073 -0.0000
vn 0.9709 0.2394 -0.0000
vn 0.9780 0.2069 0.0282
vn 0.9518 0.2793 0.1271
vn 0.9176 0.3975 -0.0000
vn 0.9721 0.2344 -0.0000
vn 0.9946 -0.1034 -0.0000
vn 0.9924 0.0230 0.1210
vn 0.9787 0.2033 -0.0297
vn -0.0000 -0.6368 -0.7710
vn 0.0455 0.2584 0.9650
vn 0.0016 0.9230 -0.3848
vn 0.0016 0.9231 -0.3847
vn 0.0002 0.1637 -0.9865
vn 0.0003 0.1641 -0.9864
vn -0.0000 0.2144 -0.9767
vn -0.0000 0.1964 -0.9805
vn 0.0021 -1.0000 -0.0000
vn 0.0037 -1.0000 -0.0042
vn -0.0000 0.9999 0.0110
vn -0.0136 0.9993 0.0334
vn -0.0068 0.9998 0.0166
vn -0.0067 0.9998 0.0164
vn 0.9985 0.0539 -0.0000
vn 0.9959 0.0907 -0.0000
vn -0.0050 1.0000 0.0056
vn -0.0101 0.9999 -0.0000
vn -0.0053 1.0000 0.0052
vn 0.9963 0.0854 -0.0000
vn -0.0000 0.2835 -0.9590
vn 0.1788 0.0020 0.9839
vn 0.0898 0.0010 0.9960
vn 0.9926 -0.0021 0.1212
vn -0.0000 -0.0000 -1.0000
vn 0.6759 -0.0007 0.7370
vn -0.0000 -0.5703 -0.8214
vn -0.0000 -0.7865 -0.6176
vn -0.0000 0.8470 -0.5316
vn -0.0000 0.8479 -0.5301
vn -0.0000 0.8478 -0.5304
vn -0.0000 -0.9853 0.1711
vn -1.0000 -0.0000 -0.0000
vn -0.0000 -0.8433 0.5374
vn 0.0724 -0.8411 0.5360
vn 0.2252 -0.0000 0.9743
vn 0.2352 -0.0000 0.9719
vn 0.0033 0.8759 0.4825
vn -0.0000 0.8759 0.4825
vn -0.0000 0.7071 0.7071
vn -0.7071 -0.0000 0.7072
vn 0.7071 -0.0000 0.7071
vn -0.0000 -0.7071 0.7072
vn -0.0000 0.1620 -0.9868
vn 0.0800 0.2604 0.9622
vn 0.9799 0.1997 -0.0000
vn 1.0000 -0.0002 -0.0000
vn 0.9718 0.0165 0.2350
vn 0.9482 0.2071 0.2409
vn 0.8805 0.0335 0.4729
vn 0.8694 0.1897 0.4562
vn 0.9009 0.3786 0.2123
vn 0.8324 0.3559 0.4247
vn -0.2345 -0.2632 -0.9358
vn -0.1353 -0.1638 -0.9772
vn -0.1421 -0.1706 -0.9750
vn -0.9615 -0.2033 -0.1848
vn -0.9158 -0.3670 -0.1631
vn -0.9633 -0.1938 -0.1858
vn -0.9792 -0.0176 -0.2022
vn 0.9239 0.3825 -0.0000
vn 0.2743 0.1814 0.9444
vn 0.2862 0.1734 0.9424
vn -0.1932 0.9805 0.0363
vn 0.1932 0.9805 -0.0363
vn 0.1903 0.9811 -0.0357
vn -0.1903 0.9811 0.0357
vn 0.4224 0.0856 0.9024
vn 0.4491 0.0712 0.8906
vn -0.9069 0.3853 0.1703
vn -0.1602 -0.0676 -0.9848
vn -0.1247 -0.0770 -0.9892
vn 0.9828 -0.0002 -0.1845
vn 0.4663 0.0617 0.8825
vn 0.1903 -0.9811 -0.0357
vn -0.1903 -0.9811 0.0357
vn -0.1932 -0.9805 0.0363
vn 0.1932 -0.9805 -0.0363
vn -0.1842 -0.0610 -0.9810
vn -0.1841 -0.0610 -0.9810
vn -0.1842 -0.0611 -0.9810
vn 0.9654 0.1876 -0.1813
vn 0.9625 0.2022 -0.1808
vn 0.9081 0.3825 -0.1706
vn 0.3761 0.9239 -0.0706
vn -0.9080 0.3828 0.1705
vn -0.3761 0.9239 0.0706
vn -0.3762 -0.9239 0.0706
vn 0.9653 -0.1880 -0.1812
vn 0.9625 -0.2026 -0.1807
vn 0.9080 -0.3828 -0.1704
vn 0.3761 -0.9239 -0.0706
vn -0.0000 0.9231 -0.3845
vn 0.9950 0.0025 -0.1003
vn -0.9800 -0.1337 0.1477
vn -0.0000 0.8290 0.5592
vn 0.9580 0.2658 -0.1080
vn -0.9784 -0.1485 -0.1438
vn -0.0000 -0.7518 0.6594
vn -0.5003 -0.0925 -0.8609
vn 0.2558 0.0473 0.9656
vn -0.0000 -0.7865 -0.6177
vn 0.8755 0.0060 -0.4832
vn -0.8530 0.0065 -0.5218
vn -0.0000 0.8003 -0.5996
vn 0.8647 0.0062 -0.5023
vn -0.0000 -0.7948 -0.6068
vn -0.8646 0.0062 -0.5023
vn -0.0000 0.7971 -0.6038
vn -0.0000 -0.7915 -0.6111
vn 0.8530 0.0065 -0.5218
vn -0.0000 -0.8012 -0.5984
vn -0.8755 0.0060 -0.4832
vn -0.0000 0.8064 -0.5914
vn -0.0000 -0.8833 -0.4689
vn -0.0000 0.9453 -0.3261
vn -0.0000 -0.9445 -0.3286
vn -0.7876 0.0076 -0.6161
vn 0.0053 -1.0000 -0.0052
vn 0.0101 -0.9999 -0.0000
vn 0.0005 0.1617 -0.9868
vn 0.0004 0.1662 -0.9861
vn -0.0000 0.8060 0.5919
vn 0.1134 0.8532 -0.5091
vn 0.1134 0.8531 -0.5092
vn -0.0000 -0.6229 0.7823
vn -0.0000 0.1601 -0.9871
vn -0.0000 0.1675 -0.9859
vn -0.0000 0.1676 -0.9859
vn 0.2233 0.9747 -0.0000
vn 0.1103 0.9939 -0.0000
vn 0.0585 0.9983 -0.0025
vn 0.1176 -0.9931 -0.0000
vn -0.6261 -0.0000 0.7797
vn 0.6262 -0.0000 0.7797
vn -0.0000 0.9852 0.1711
vn -0.0000 0.2627 0.9649
vn 0.9742 0.2234 0.0323
vn 0.0018 1.0000 -0.0000
vn 0.9848 0.1735 -0.0000
vn -0.0000 -0.0000 -0.0000
vn -0.5626 0.1354 -0.8155
vn -0.0000 0.7806 -0.6251
vn -0.0000 -0.6756 -0.7373
vn 0.5339 0.8456 -0.0000
vn 0.5338 -0.8456 -0.0000
vn 0.7586 -0.0000 0.6516
vn 0.7586 -0.0000 -0.6516
vn -0.0000 0.8858 -0.4641
vn 0.6279 0.0096 -0.7783
vn -0.9898 0.1382 0.0359
vn -0.9915 0.1299 -0.0000
vn -0.9970 0.0771 -0.0000
vn -0.9844 0.1758 -0.0000
vn -0.2032 -0.0000 0.9791
vn -0.2030 -0.0000 0.9792
vn -0.9844 0.1762 -0.0000
vn -0.9856 0.1694 -0.0000
vn -0.9905 0.1322 -0.0368
vn -0.9950 0.0994 -0.0000
vn -0.9942 0.1073 -0.0000
vn -0.9709 0.2394 -0.0000
vn -0.9176 0.3975 -0.0000
vn -0.9518 0.2793 0.1271
vn -0.9780 0.2069 0.0282
vn -0.9721 0.2344 -0.0000
vn -0.9924 0.0230 0.1210
vn -0.9946 -0.1034 -0.0000
vn -0.9787 0.2033 -0.0297
vn -0.0000 -0.6368 -0.7711
vn -0.0455 0.2584 0.9650
vn -0.0016 0.9230 -0.3848
vn -0.0016 0.9231 -0.3847
vn -0.0003 0.1641 -0.9864
vn -0.0002 0.1637 -0.9865
vn -0.0020 -1.0000 -0.0000
vn -0.0037 -1.0000 -0.0042
vn 0.0136 0.9993 0.0334
vn 0.0067 0.9998 0.0164
vn 0.0068 0.9998 0.0166
vn -0.9985 0.0539 -0.0000
vn -0.9959 0.0907 -0.0000
vn 0.0050 1.0000 0.0056
vn 0.0053 1.0000 0.0052
vn 0.0101 0.9999 -0.0000
vn -0.9963 0.0854 -0.0000
vn -0.1788 0.0020 0.9839
vn -0.0898 0.0010 0.9960
vn -0.9926 -0.0021 0.1212
vn -0.6759 -0.0007 0.7370
vn -0.0000 -0.9852 0.1711
vn -0.0724 -0.8411 0.5360
vn -0.2352 -0.0000 0.9719
vn -0.2252 -0.0000 0.9743
vn -0.0033 0.8759 0.4825
vn 0.7071 -0.0000 0.7072
vn -0.7071 -0.0000 0.7071
vn -0.0800 0.2604 0.9622
vn -0.9799 0.1997 -0.0000
vn -0.9482 0.2071 0.2409
vn -0.9718 0.0165 0.2350
vn -1.0000 -0.0002 -0.0000
vn -0.8694 0.1897 0.4562
vn -0.8805 0.0335 0.4729
vn -0.9009 0.3786 0.2123
vn -0.8324 0.3559 0.4247
vn 0.2345 -0.2632 -0.9358
vn 0.1421 -0.1706 -0.9750
vn 0.1353 -0.1638 -0.9772
vn 0.9615 -0.2033 -0.1848
vn 0.9633 -0.1938 -0.1858
vn 0.9158 -0.3670 -0.1631
vn 0.9792 -0.0176 -0.2022
vn -0.9239 0.3825 -0.0000
vn -0.2862 0.1734 0.9424
vn -0.2743 0.1814 0.9444
vn 0.1932 0.9805 0.0363
vn 0.1903 0.9811 0.0357
vn -0.1903 0.9811 -0.0357
vn -0.1932 0.9805 -0.0363
vn -0.4491 0.0712 0.8906
vn -0.4224 0.0856 0.9024
vn 0.9069 0.3853 0.1703
vn 0.1247 -0.0770 -0.9892
vn 0.1602 -0.0676 -0.9848
vn -0.9828 -0.0002 -0.1845
vn -0.4663 0.0617 0.8825
vn -0.1903 -0.9811 -0.0357
vn -0.1932 -0.9805 -0.0363
vn 0.1932 -0.9805 0.0363
vn 0.1903 -0.9811 0.0357
vn 0.1842 -0.0610 -0.9810
vn 0.1841 -0.0610 -0.9810
vn 0.1842 -0.0611 -0.9810
vn -0.9654 0.1876 -0.1813
vn -0.9081 0.3825 -0.1706
vn -0.9625 0.2022 -0.1808
vn -0.3761 0.9239 -0.0706
vn 0.9080 0.3828 0.1705
vn 0.3761 0.9239 0.0706
vn 0.3762 -0.9239 0.0706
vn -0.9653 -0.1880 -0.1812
vn -0.9080 -0.3828 -0.1704
vn -0.9625 -0.2026 -0.1807
vn -0.3761 -0.9239 -0.0706
vn -0.9950 0.0025 -0.1003
vn 0.9800 -0.1337 0.1477
vn -0.9580 0.2658 -0.1080
vn 0.9784 -0.1485 -0.1438
vn 0.5003 -0.0925 -0.8609
vn -0.2558 0.0473 0.9656
vn -0.8647 0.0062 -0.5023
vn 0.8646 0.0062 -0.5023
vn 0.7876 0.0076 -0.6161
vn -0.0004 0.1662 -0.9861
vn -0.0005 0.1617 -0.9868
vn -0.0000 0.8061 0.5918
vn -0.1136 0.8526 -0.5100
vn -0.1134 0.8531 -0.5092
vn -0.2233 0.9747 -0.0000
vn -0.0585 0.9983 -0.0000
vn -0.1103 0.9939 -0.0000
vn -0.1171 -0.9931 -0.0000
vn 0.6261 -0.0000 0.7797
vn -0.6262 -0.0000 0.7797
vn -0.9742 0.2234 0.0323
vn -0.0018 1.0000 -0.0000
vn 0.9761 -0.0000 -0.2175
vn -0.9848 0.1735 -0.0000
vn 0.0001 -0.0000 1.0000
vn 0.5626 0.1354 -0.8155
vn -0.5339 0.8456 -0.0000
vn -0.5338 -0.8456 -0.0000
vn -0.7586 -0.0000 0.6516
vn -0.7586 -0.0000 -0.6516
vn -0.6279 0.0096 -0.7783
vn -0.0000 -0.9808 0.1951
vn -0.0000 -0.1951 0.9808
vn -0.0000 -0.1951 -0.9808
vn -0.0000 -0.8315 0.5556
vn -0.0000 -0.9239 0.3827
vn -0.0000 0.0980 -0.9952
vn -0.0000 -0.3827 0.9239
vn -0.0000 -0.5556 -0.8315
vn -0.0000 -0.3827 -0.9239
vn -0.0000 -0.5556 0.8315
vn -0.0000 -0.7071 0.7071
vn -0.0000 -0.7071 -0.7071
vn -0.0000 -0.9239 -0.3827
vn -0.0000 -0.8315 -0.5556
vn -0.0000 0.0980 0.9952
vn -0.0000 -0.9808 -0.1951
vn -0.0000 -0.2903 -0.9569
vn -0.0000 -0.4714 0.8819
vn -0.0000 -0.0980 -0.9952
vn -0.0000 -0.4714 -0.8819
vn -0.0000 -0.5548 -0.8320
vn -0.0000 0.0005 1.0000
vn -0.0000 0.1951 0.9808
vn -0.0000 0.3822 0.9241
vn -0.0000 0.8320 0.5548
vn -0.0000 0.8317 0.5553
vn -0.0000 0.9239 0.3827
vn -0.0000 0.9808 0.1951
vn -0.0000 0.9808 -0.1951
vn -0.0000 0.9239 -0.3827
vn -0.0000 0.8318 -0.5551
vn -0.0000 0.5548 -0.8320
vn -0.0000 0.3827 -0.9239
vn -0.0000 0.1951 -0.9808
vn -0.0000 0.3832 -0.9236
vn -0.0000 0.5556 -0.8315
vn -0.0000 0.7071 -0.7071
vn -0.0000 0.8315 -0.5556
vn -0.0000 0.9237 -0.3832
vn -0.0000 0.9237 0.3832
vn -0.0000 0.8319 0.5549
vt 0.416383 0.017758
vt 0.492552 0.017758
vt 0.492585 0.116039
vt 0.440856 0.116039
vt 0.496686 0.017758
vt 0.544161 0.017758
vt 0.536686 0.116039
vt 0.496752 0.116039
vt 0.254997 0.259844
vt 0.254997 0.237767
vt 0.374136 0.258760
vt 0.374136 0.273232
vt 0.254997 0.300159
vt 0.374136 0.300159
vt 0.865733 0.324779
vt 0.865644 0.273914
vt 0.741114 0.273914
vt 0.741114 0.310775
vt 0.865784 0.352555
vt 0.741114 0.330587
vt 0.392088 0.986679
vt 0.422254 0.865539
vt 0.486014 0.865539
vt 0.485973 0.986679
vt 0.491068 0.986679
vt 0.491150 0.865539
vt 0.540373 0.865539
vt 0.549586 0.986679
vt 0.254997 0.340474
vt 0.374136 0.327086
vt 0.374136 0.341558
vt 0.254997 0.362551
vt 0.865733 0.223048
vt 0.741114 0.237053
vt 0.865784 0.195273
vt 0.741114 0.217241
vt 0.440757 0.429397
vt 0.440757 0.423230
vt 0.446497 0.424216
vt 0.446497 0.430321
vt 0.639869 0.453499
vt 0.639869 0.430325
vt 0.645711 0.430325
vt 0.645711 0.453499
vt 0.976572 0.434242
vt 0.976572 0.489131
vt 0.976508 0.489131
vt 0.976508 0.432539
vt 0.204729 0.851987
vt 0.208519 0.851987
vt 0.208519 0.858773
vt 0.204729 0.858773
vt 0.281266 0.155755
vt 0.281266 0.195125
vt 0.267564 0.193141
vt 0.267564 0.155185
vt 0.186806 0.666529
vt 0.155251 0.666529
vt 0.155251 0.646983
vt 0.186806 0.646983
vt 0.640539 0.410080
vt 0.661286 0.410080
vt 0.659888 0.415816
vt 0.639898 0.415816
vt 0.929762 0.394319
vt 0.899684 0.394319
vt 0.884033 0.394319
vt 0.878940 0.394319
vt 0.878940 0.386662
vt 0.929762 0.386662
vt 0.074708 0.430535
vt 0.079758 0.430535
vt 0.088934 0.430535
vt 0.106850 0.430535
vt 0.112691 0.430535
vt 0.112691 0.494293
vt 0.107131 0.494293
vt 0.106897 0.432826
vt 0.093698 0.432826
vt 0.088276 0.494293
vt 0.074708 0.494293
vt 0.130928 0.430539
vt 0.130928 0.494299
vt 0.117217 0.494299
vt 0.117217 0.430539
vt 0.679868 0.452906
vt 0.679868 0.494294
vt 0.674128 0.494294
vt 0.674128 0.453494
vt 0.444440 0.410080
vt 0.451969 0.410080
vt 0.454067 0.415816
vt 0.446663 0.415816
vt 0.186806 0.797178
vt 0.155251 0.797178
vt 0.155251 0.791963
vt 0.186806 0.791963
vt 0.391933 0.160362
vt 0.391933 0.139869
vt 0.402463 0.139869
vt 0.402454 0.160362
vt 0.453905 0.424220
vt 0.453905 0.430325
vt 0.561958 0.410080
vt 0.561963 0.415816
vt 0.561861 0.160362
vt 0.561870 0.147303
vt 0.562033 0.148961
vt 0.564513 0.157136
vt 0.566238 0.160362
vt 0.561879 0.430325
vt 0.561879 0.424220
vt 0.639869 0.424220
vt 0.553670 0.430325
vt 0.553670 0.424220
vt 0.553727 0.160362
vt 0.553742 0.139869
vt 0.561254 0.139869
vt 0.561196 0.140460
vt 0.186806 0.717041
vt 0.155251 0.717041
vt 0.155251 0.713320
vt 0.186806 0.713320
vt 0.553758 0.410080
vt 0.553761 0.415816
vt 0.561827 0.216688
vt 0.655247 0.216688
vt 0.651270 0.220487
vt 0.561279 0.220487
vt 0.553693 0.216688
vt 0.561404 0.406783
vt 0.637102 0.406783
vt 0.393395 0.216688
vt 0.403811 0.216688
vt 0.848450 0.494294
vt 0.848450 0.484584
vt 0.848487 0.484421
vt 0.848487 0.494294
vt 0.693395 0.216688
vt 0.247231 0.395296
vt 0.247231 0.387681
vt 0.827801 0.403330
vt 0.827741 0.436288
vt 0.825614 0.436152
vt 0.825672 0.404403
vt 0.873397 0.387680
vt 0.873397 0.395296
vt 0.679868 0.429397
vt 0.679868 0.423229
vt 0.453905 0.453499
vt 0.553670 0.453499
vt 0.208519 0.791963
vt 0.204729 0.791963
vt 0.204729 0.717041
vt 0.208519 0.717041
vt 0.204729 0.713320
vt 0.208519 0.713320
vt 0.561879 0.453499
vt 0.446496 0.453499
vt 0.208519 0.797178
vt 0.204729 0.797178
vt 0.674128 0.430320
vt 0.674128 0.424216
vt 0.130928 0.386666
vt 0.130928 0.394323
vt 0.117217 0.394323
vt 0.117217 0.386666
vt 0.074708 0.386663
vt 0.112691 0.386663
vt 0.112691 0.394320
vt 0.106850 0.394320
vt 0.088934 0.394320
vt 0.079758 0.394320
vt 0.074708 0.394320
vt 0.929762 0.430534
vt 0.899684 0.430534
vt 0.899684 0.418512
vt 0.899684 0.405991
vt 0.208519 0.666529
vt 0.204729 0.666529
vt 0.204729 0.646983
vt 0.208519 0.646983
vt 0.186806 0.851987
vt 0.186806 0.858773
vt 0.665725 0.424224
vt 0.645736 0.424224
vt 0.440757 0.452905
vt 0.958917 0.489131
vt 0.958917 0.434242
vt 0.958854 0.432539
vt 0.958854 0.489131
vt 0.116537 0.153993
vt 0.116008 0.153993
vt 0.116008 0.148506
vt 0.116537 0.146333
vt 0.402432 0.211149
vt 0.518993 0.190841
vt 0.518993 0.203057
vt 0.541515 0.203057
vt 0.553691 0.211149
vt 0.561824 0.211149
vt 0.568540 0.164669
vt 0.573959 0.171273
vt 0.580562 0.176692
vt 0.588096 0.180719
vt 0.596271 0.183198
vt 0.604772 0.184036
vt 0.613273 0.183198
vt 0.621448 0.180719
vt 0.628981 0.176692
vt 0.635585 0.171273
vt 0.641004 0.164669
vt 0.643306 0.160362
vt 0.655714 0.160362
vt 0.655668 0.211149
vt 0.391933 0.211149
vt 0.116008 0.161083
vt 0.958917 0.396473
vt 0.958854 0.390220
vt 0.101815 0.161083
vt 0.101815 0.153993
vt 0.101815 0.148576
vt 0.694944 0.160362
vt 0.694315 0.211149
vt 0.383239 0.160000
vt 0.384770 0.157136
vt 0.387249 0.148961
vt 0.388087 0.140460
vt 0.388028 0.139869
vt 0.204729 0.799112
vt 0.186806 0.799112
vt 0.241673 0.386666
vt 0.241673 0.394323
vt 0.802594 0.583998
vt 0.802503 0.583998
vt 0.304122 0.156707
vt 0.304252 0.157136
vt 0.308279 0.164669
vt 0.313698 0.171273
vt 0.320302 0.176692
vt 0.327835 0.180719
vt 0.336010 0.183198
vt 0.344511 0.184036
vt 0.353012 0.183198
vt 0.361187 0.180719
vt 0.368720 0.176692
vt 0.375324 0.171273
vt 0.380743 0.164669
vt 0.208519 0.799112
vt 0.101815 0.194620
vt 0.116008 0.194620
vt 0.116008 0.253663
vt 0.101815 0.253663
vt 0.101815 0.146333
vt 0.802645 0.583998
vt 0.155251 0.799112
vt 0.976572 0.396473
vt 0.976508 0.390220
vt 0.440757 0.494293
vt 0.446497 0.494293
vt 0.665714 0.494294
vt 0.665714 0.453494
vt 0.155251 0.851987
vt 0.155251 0.858773
vt 0.929762 0.494294
vt 0.899216 0.494294
vt 0.899216 0.463347
vt 0.885510 0.463347
vt 0.885510 0.494294
vt 0.878940 0.494294
vt 0.878940 0.430534
vt 0.884033 0.430534
vt 0.453905 0.494299
vt 0.561879 0.494299
vt 0.639869 0.494299
vt 0.553670 0.494299
vt 0.683167 0.429513
vt 0.683167 0.452159
vt 0.802556 0.583920
vt 0.802556 0.583936
vt 0.790049 0.700398
vt 0.790049 0.655997
vt 0.790355 0.658194
vt 0.790355 0.698201
vt 0.829456 0.700398
vt 0.807491 0.700398
vt 0.807491 0.655997
vt 0.829456 0.655997
vt 0.809201 0.698687
vt 0.809201 0.657707
vt 0.827745 0.657707
vt 0.827745 0.698687
vt 0.806684 0.778569
vt 0.813331 0.703208
vt 0.813940 0.706739
vt 0.807916 0.778569
vt 0.828606 0.706739
vt 0.828866 0.778569
vt 0.829514 0.703208
vt 0.829801 0.778569
vt 0.873397 0.431157
vt 0.241689 0.494293
vt 0.241689 0.430535
vt 0.247231 0.431157
vt 0.247231 0.494293
vt 0.873397 0.494294
vt 0.802575 0.584122
vt 0.233863 0.916849
vt 0.235536 0.916849
vt 0.234454 0.916849
vt 0.234436 0.913730
vt 0.235160 0.913730
vt 0.236252 0.913730
vt 0.246177 0.924439
vt 0.245794 0.925364
vt 0.246191 0.925364
vt 0.246578 0.924439
vt 0.246175 0.915723
vt 0.246675 0.915723
vt 0.246351 0.925364
vt 0.238527 0.913730
vt 0.239377 0.913730
vt 0.245403 0.914414
vt 0.240271 0.914414
vt 0.240430 0.914414
vt 0.245562 0.914414
vt 0.239227 0.926432
vt 0.238386 0.926432
vt 0.247510 0.913730
vt 0.247162 0.913730
vt 0.247021 0.926432
vt 0.247360 0.926432
vt 0.240145 0.925748
vt 0.245277 0.925748
vt 0.245437 0.925748
vt 0.240304 0.925748
vt 0.238389 0.926427
vt 0.238873 0.924439
vt 0.238969 0.915723
vt 0.238529 0.913734
vt 0.239516 0.914797
vt 0.239129 0.915723
vt 0.239032 0.924439
vt 0.239399 0.925364
vt 0.246738 0.924439
vt 0.246835 0.915723
vt 0.246468 0.914797
vt 0.247159 0.913734
vt 0.247018 0.926427
vt 0.239357 0.914797
vt 0.239239 0.925364
vt 0.246309 0.914797
vt 0.827634 0.494294
vt 0.825512 0.494294
vt 0.455452 0.406783
vt 0.553506 0.406783
vt 0.437458 0.429514
vt 0.251033 0.396664
vt 0.251033 0.431209
vt 0.251033 0.494293
vt 0.409061 0.220487
vt 0.437458 0.452159
vt 0.553443 0.220487
vt 0.437458 0.494293
vt 0.683167 0.494294
vt 0.884033 0.405991
vt 0.884033 0.418512
vt 0.862571 0.657683
vt 0.881844 0.657683
vt 0.880494 0.658689
vt 0.863920 0.658689
vt 0.881844 0.687474
vt 0.862571 0.687474
vt 0.863974 0.686352
vt 0.880441 0.686352
vt 0.862571 0.702280
vt 0.863954 0.688537
vt 0.863954 0.701217
vt 0.880460 0.688537
vt 0.880460 0.701217
vt 0.881844 0.702280
vt 0.863974 0.673178
vt 0.880441 0.673178
vt 0.862571 0.672056
vt 0.881844 0.672056
vt 0.880494 0.671050
vt 0.863920 0.671050
vt 0.802505 0.583885
vt 0.802441 0.583885
vt 0.802639 0.583894
vt 0.802639 0.583936
vt 0.898695 0.494294
vt 0.898695 0.464523
vt 0.886031 0.464523
vt 0.886031 0.494294
vt 0.958854 0.401362
vt 0.976508 0.401362
vt 0.958917 0.403065
vt 0.976572 0.403065
vt 0.872736 0.397631
vt 0.828416 0.405441
vt 0.872736 0.432489
vt 0.828357 0.437477
vt 0.850471 0.494294
vt 0.850471 0.484584
vt 0.872736 0.494294
vt 0.828254 0.494294
vt 0.795933 0.658194
vt 0.795933 0.698201
vt 0.796240 0.700398
vt 0.796240 0.655997
vt 0.241248 0.430605
vt 0.241248 0.494299
vt 0.131353 0.494299
vt 0.131353 0.430605
vt 0.241248 0.394667
vt 0.131353 0.394667
vt 0.848487 0.483881
vt 0.802420 0.583872
vt 0.802420 0.583921
vt 0.850452 0.484421
vt 0.854397 0.494294
vt 0.854397 0.478887
vt 0.844856 0.478887
vt 0.844856 0.494294
vt 0.845533 0.494294
vt 0.845533 0.479949
vt 0.853720 0.479949
vt 0.853720 0.494294
vt 0.850559 0.494294
vt 0.850559 0.483881
vt 0.540306 0.191497
vt 0.540306 0.196382
vt 0.520203 0.196382
vt 0.520203 0.191497
vt 0.541515 0.190841
vt 0.520203 0.202401
vt 0.540306 0.202401
vt 0.540306 0.197980
vt 0.520203 0.197980
vt 0.665715 0.430325
vt 0.645711 0.494299
vt 0.865734 0.780795
vt 0.865734 0.745786
vt 0.879924 0.745786
vt 0.879924 0.780795
vt 0.886601 0.465864
vt 0.886601 0.494294
vt 0.898125 0.465864
vt 0.440757 0.559189
vt 0.446497 0.558266
vt 0.446497 0.564370
vt 0.440757 0.565356
vt 0.639869 0.535098
vt 0.645711 0.535098
vt 0.645711 0.558273
vt 0.639869 0.558273
vt 0.976572 0.544021
vt 0.976508 0.545723
vt 0.105772 0.851987
vt 0.105772 0.858773
vt 0.101983 0.858773
vt 0.101983 0.851987
vt 0.281349 0.832793
vt 0.267650 0.833363
vt 0.267650 0.795415
vt 0.281349 0.793431
vt 0.123696 0.666529
vt 0.123696 0.646983
vt 0.640548 0.578520
vt 0.639908 0.572785
vt 0.659894 0.572785
vt 0.661291 0.578520
vt 0.929762 0.594269
vt 0.929762 0.601925
vt 0.878940 0.601925
vt 0.878940 0.594269
vt 0.884033 0.594269
vt 0.899684 0.594269
vt 0.074708 0.558052
vt 0.093698 0.555760
vt 0.106897 0.555760
vt 0.112691 0.558052
vt 0.106850 0.558052
vt 0.088934 0.558052
vt 0.079758 0.558052
vt 0.130928 0.558059
vt 0.117217 0.558059
vt 0.679868 0.535682
vt 0.674128 0.535093
vt 0.444490 0.578520
vt 0.446712 0.572785
vt 0.454114 0.572785
vt 0.452017 0.578520
vt 0.123696 0.797178
vt 0.123696 0.791963
vt 0.391993 0.828187
vt 0.402512 0.828187
vt 0.402521 0.848676
vt 0.391993 0.848676
vt 0.453905 0.558273
vt 0.453905 0.564377
vt 0.561983 0.578520
vt 0.561989 0.572785
vt 0.561886 0.828187
vt 0.566262 0.828187
vt 0.564538 0.831413
vt 0.562059 0.839585
vt 0.561896 0.841244
vt 0.561879 0.558273
vt 0.639869 0.564377
vt 0.561879 0.564377
vt 0.553670 0.558273
vt 0.553670 0.564377
vt 0.553754 0.828187
vt 0.561222 0.848085
vt 0.561280 0.848676
vt 0.553769 0.848676
vt 0.123696 0.717041
vt 0.123696 0.713320
vt 0.553785 0.578520
vt 0.553788 0.572785
vt 0.561853 0.771873
vt 0.561305 0.768074
vt 0.651278 0.768074
vt 0.655253 0.771873
vt 0.553720 0.771873
vt 0.637112 0.581817
vt 0.561430 0.581817
vt 0.393455 0.771873
vt 0.403869 0.771873
vt 0.848487 0.504167
vt 0.848450 0.504004
vt 0.693394 0.771873
vt 0.247231 0.593290
vt 0.247231 0.600905
vt 0.827801 0.585258
vt 0.825672 0.584185
vt 0.825614 0.552436
vt 0.827741 0.552300
vt 0.873397 0.600908
vt 0.679868 0.565358
vt 0.679868 0.559191
vt 0.873397 0.593292
vt 0.453905 0.535098
vt 0.553670 0.535098
vt 0.101983 0.791963
vt 0.101983 0.717041
vt 0.105772 0.717041
vt 0.105772 0.791963
vt 0.101983 0.713320
vt 0.105772 0.713320
vt 0.561879 0.535098
vt 0.446496 0.535098
vt 0.674128 0.564372
vt 0.674128 0.558267
vt 0.130928 0.601931
vt 0.117217 0.601931
vt 0.117217 0.594274
vt 0.130928 0.594274
vt 0.074708 0.601923
vt 0.074708 0.594267
vt 0.079758 0.594267
vt 0.088934 0.594267
vt 0.106850 0.594267
vt 0.112691 0.594267
vt 0.112691 0.601923
vt 0.929762 0.558053
vt 0.899684 0.582597
vt 0.899684 0.570076
vt 0.899684 0.558053
vt 0.101983 0.666529
vt 0.101983 0.646983
vt 0.105772 0.646983
vt 0.105772 0.666529
vt 0.123696 0.851987
vt 0.123696 0.858773
vt 0.645744 0.564378
vt 0.665730 0.564378
vt 0.440757 0.535681
vt 0.958854 0.545723
vt 0.958917 0.544021
vt 0.116537 0.353332
vt 0.116537 0.360992
vt 0.116008 0.358819
vt 0.116008 0.353332
vt 0.402490 0.777411
vt 0.553718 0.777411
vt 0.541545 0.785501
vt 0.519028 0.785501
vt 0.519028 0.797714
vt 0.561849 0.777411
vt 0.655674 0.777411
vt 0.655720 0.828187
vt 0.643315 0.828187
vt 0.641013 0.823881
vt 0.635595 0.817278
vt 0.628993 0.811860
vt 0.621461 0.807834
vt 0.613288 0.805355
vt 0.604789 0.804518
vt 0.596289 0.805355
vt 0.588117 0.807834
vt 0.580584 0.811860
vt 0.573982 0.817278
vt 0.568564 0.823880
vt 0.391993 0.777411
vt 0.116008 0.346242
vt 0.958917 0.581789
vt 0.958854 0.588043
vt 0.101815 0.346242
vt 0.101815 0.358749
vt 0.101815 0.353332
vt 0.694314 0.777411
vt 0.694942 0.828187
vt 0.388090 0.848676
vt 0.388148 0.848085
vt 0.387311 0.839585
vt 0.384831 0.831413
vt 0.383301 0.828549
vt 0.123696 0.799112
vt 0.105772 0.799112
vt 0.105772 0.797178
vt 0.241673 0.601931
vt 0.241673 0.594274
vt 0.380805 0.823881
vt 0.375387 0.817278
vt 0.368785 0.811860
vt 0.361253 0.807834
vt 0.353080 0.805355
vt 0.344581 0.804518
vt 0.336081 0.805355
vt 0.327909 0.807834
vt 0.320376 0.811860
vt 0.313774 0.817278
vt 0.308356 0.823880
vt 0.304330 0.831413
vt 0.304200 0.831842
vt 0.101983 0.799112
vt 0.101983 0.797178
vt 0.101815 0.312706
vt 0.116008 0.312706
vt 0.101815 0.360992
vt 0.976508 0.588043
vt 0.976572 0.581789
vt 0.665714 0.535093
vt 0.884033 0.558053
vt 0.878940 0.558053
vt 0.885510 0.525241
vt 0.899216 0.525241
vt 0.683167 0.536428
vt 0.683167 0.559074
vt 0.790049 0.856740
vt 0.790355 0.858937
vt 0.790355 0.898944
vt 0.790049 0.901141
vt 0.829456 0.856740
vt 0.807491 0.856740
vt 0.807491 0.901141
vt 0.829456 0.901141
vt 0.809201 0.858450
vt 0.827745 0.858450
vt 0.827745 0.899430
vt 0.809201 0.899430
vt 0.813940 0.850398
vt 0.813331 0.853930
vt 0.828606 0.850398
vt 0.829514 0.853930
vt 0.873397 0.557431
vt 0.247231 0.557429
vt 0.241689 0.558052
vt 0.113867 0.916849
vt 0.113277 0.916849
vt 0.112194 0.916849
vt 0.113295 0.913730
vt 0.111479 0.913730
vt 0.112570 0.913730
vt 0.108354 0.913730
vt 0.109204 0.913730
vt 0.102328 0.914414
vt 0.102168 0.914414
vt 0.107301 0.914414
vt 0.107460 0.914414
vt 0.108503 0.926432
vt 0.109345 0.926432
vt 0.100221 0.913730
vt 0.100370 0.926432
vt 0.100710 0.926432
vt 0.100569 0.913730
vt 0.107586 0.925748
vt 0.107426 0.925748
vt 0.102294 0.925748
vt 0.102453 0.925748
vt 0.109201 0.913734
vt 0.108761 0.915723
vt 0.108858 0.924439
vt 0.109342 0.926427
vt 0.101263 0.914797
vt 0.100896 0.915723
vt 0.100993 0.924439
vt 0.101380 0.925364
vt 0.108332 0.925364
vt 0.108699 0.924439
vt 0.108602 0.915723
vt 0.108215 0.914797
vt 0.100712 0.926427
vt 0.101152 0.924439
vt 0.101056 0.915723
vt 0.100571 0.913734
vt 0.108374 0.914797
vt 0.108491 0.925364
vt 0.101422 0.914797
vt 0.101539 0.925364
vt 0.553533 0.581817
vt 0.455499 0.581817
vt 0.251033 0.591922
vt 0.437458 0.559073
vt 0.251033 0.557377
vt 0.409118 0.768074
vt 0.437458 0.536427
vt 0.553470 0.768074
vt 0.884033 0.570076
vt 0.884033 0.582597
vt 0.862571 0.903907
vt 0.863920 0.902901
vt 0.880494 0.902901
vt 0.881844 0.903907
vt 0.881844 0.874116
vt 0.880441 0.875238
vt 0.863974 0.875238
vt 0.862571 0.874116
vt 0.862571 0.859311
vt 0.863954 0.860373
vt 0.863954 0.873053
vt 0.880460 0.860373
vt 0.880460 0.873053
vt 0.881844 0.859311
vt 0.863974 0.888412
vt 0.880441 0.888412
vt 0.862571 0.889534
vt 0.881844 0.889534
vt 0.863920 0.890541
vt 0.880494 0.890541
vt 0.898695 0.524065
vt 0.898125 0.522724
vt 0.898125 0.494294
vt 0.886031 0.524065
vt 0.976508 0.576901
vt 0.958854 0.576901
vt 0.958917 0.575198
vt 0.976572 0.575198
vt 0.828416 0.583147
vt 0.872736 0.590956
vt 0.872736 0.556098
vt 0.828357 0.551111
vt 0.850471 0.504004
vt 0.795933 0.858937
vt 0.795933 0.898944
vt 0.796240 0.856740
vt 0.796240 0.901141
vt 0.241248 0.557992
vt 0.131353 0.557992
vt 0.241248 0.593930
vt 0.131353 0.593930
vt 0.848487 0.504707
vt 0.844856 0.509701
vt 0.854397 0.509701
vt 0.850559 0.504707
vt 0.853720 0.508639
vt 0.845533 0.508639
vt 0.540336 0.797058
vt 0.520237 0.797058
vt 0.520237 0.792175
vt 0.540336 0.792175
vt 0.541545 0.797714
vt 0.540336 0.786157
vt 0.520237 0.786157
vt 0.540336 0.790577
vt 0.520237 0.790577
vt 0.665715 0.558273
vt 0.879924 0.815805
vt 0.865734 0.815805
vt 0.886601 0.522724
vt 0.101983 0.816454
vt 0.208519 0.816454
vt 0.208519 0.820664
vt 0.101983 0.820664
vt 0.101983 0.842217
vt 0.105772 0.842217
vt 0.101983 0.799083
vt 0.208519 0.799083
vt 0.208519 0.799498
vt 0.101983 0.799498
vt 0.101983 0.841831
vt 0.208519 0.841831
vt 0.208519 0.842245
vt 0.101983 0.842245
vt 0.300993 0.139869
vt 0.300935 0.140460
vt 0.301773 0.148961
vt 0.281266 0.139869
vt 0.101983 0.808674
vt 0.208519 0.808674
vt 0.208519 0.812405
vt 0.101983 0.812405
vt 0.123696 0.842217
vt 0.208519 0.842217
vt 0.204729 0.842217
vt 0.186806 0.842217
vt 0.155251 0.842217
vt 0.208519 0.800726
vt 0.101983 0.800726
vt 0.101983 0.838608
vt 0.208519 0.838608
vt 0.208519 0.840603
vt 0.101983 0.840603
vt 0.101983 0.802720
vt 0.208519 0.802720
vt 0.208519 0.805404
vt 0.101983 0.805404
vt 0.101983 0.835924
vt 0.208519 0.835924
vt 0.101983 0.828923
vt 0.208519 0.828923
vt 0.208519 0.832654
vt 0.101983 0.832654
vt 0.208519 0.824874
vt 0.101983 0.824874
vt 0.208519 0.840667
vt 0.101983 0.840667
vt 0.208519 0.801484
vt 0.101983 0.801484
vt 0.301851 0.839585
vt 0.301014 0.848085
vt 0.301072 0.848676
vt 0.281349 0.848676
vt 0.204729 0.670215
vt 0.186806 0.670215
vt 0.101983 0.687557
vt 0.208519 0.687557
vt 0.208519 0.691767
vt 0.101983 0.691768
vt 0.101983 0.670186
vt 0.208519 0.670186
vt 0.208519 0.670601
vt 0.101983 0.670601
vt 0.101983 0.712934
vt 0.208519 0.712934
vt 0.208519 0.713015
vt 0.208519 0.713349
vt 0.101983 0.713349
vt 0.101983 0.713015
vt 0.101983 0.679778
vt 0.208519 0.679778
vt 0.208519 0.683509
vt 0.101983 0.683509
vt 0.208519 0.671829
vt 0.101983 0.671829
vt 0.101983 0.709712
vt 0.208519 0.709712
vt 0.208519 0.710852
vt 0.208519 0.711706
vt 0.101983 0.711706
vt 0.101983 0.710852
vt 0.101983 0.673823
vt 0.208519 0.673823
vt 0.208519 0.676507
vt 0.101983 0.676507
vt 0.123696 0.670215
vt 0.105772 0.670215
vt 0.101983 0.670215
vt 0.101983 0.707028
vt 0.208519 0.707028
vt 0.101983 0.700026
vt 0.208519 0.700026
vt 0.208519 0.703757
vt 0.101983 0.703757
vt 0.155251 0.670215
vt 0.208519 0.670215
vt 0.208519 0.695978
vt 0.101983 0.695978
vt 0.645030 0.157136
vt 0.647510 0.148961
vt 0.648348 0.140460
vt 0.648289 0.139869
vt 0.655732 0.139869
vt 0.648297 0.848676
vt 0.648356 0.848085
vt 0.647519 0.839585
vt 0.645039 0.831413
vt 0.655739 0.848676
vt 0.208519 0.672683
vt 0.101983 0.672683
vt 0.645230 0.139883
vt 0.644449 0.131957
vt 0.642137 0.124335
vt 0.638383 0.117311
vt 0.563972 0.139883
vt 0.564753 0.147809
vt 0.567065 0.155431
vt 0.582029 0.173665
vt 0.589053 0.177419
vt 0.596675 0.179731
vt 0.604601 0.180512
vt 0.612527 0.179731
vt 0.620149 0.177419
vt 0.627173 0.173665
vt 0.638383 0.162455
vt 0.642137 0.155431
vt 0.644449 0.147809
vt 0.632142 0.139883
vt 0.631612 0.134510
vt 0.631613 0.145256
vt 0.630045 0.129344
vt 0.630045 0.150422
vt 0.567467 0.864613
vt 0.571221 0.871637
vt 0.576274 0.877794
vt 0.582431 0.882847
vt 0.589455 0.886601
vt 0.620551 0.886601
vt 0.627575 0.882847
s 1
usemtl Material.003
f 812/1/1 818/2/1 819/3/1 813/4/1
f 816/5/1 814/6/1 815/7/1 817/8/1
f 826/9/2 823/10/2 824/11/2 820/12/2
f 847/13/2 826/9/2 820/12/2 839/14/2
f 827/15/3 828/16/3 829/17/3 821/18/3
f 825/19/3 827/15/3 821/18/3 822/20/3
f 830/21/4 831/22/4 837/23/4 836/24/4
f 834/25/4 835/26/4 833/27/4 832/28/4
f 845/29/2 838/30/2 843/31/2 842/32/2
f 847/13/2 839/14/2 838/30/2 845/29/2
f 846/33/3 840/34/3 829/17/3 828/16/3
f 844/35/3 841/36/3 840/34/3 846/33/3
f 42/37/5 21/38/6 7/39/7 32/40/7
f 67/41/8 37/42/8 269/43/8 267/44/8
f 63/45/9 277/46/9 510/47/10 200/48/10
f 55/49/11 53/50/11 4/51/11 26/52/11
f 56/53/12 52/54/12 3/55/12 44/56/12
f 77/57/11 294/58/11 277/59/9 63/60/9
f 23/61/13 20/62/14 8/63/15 13/64/16
f 51/65/17 179/66/17 177/67/17 31/68/18 6/69/19 45/70/17
f 81/71/20 213/72/20 88/73/20 86/74/20 65/75/20 281/76/20 384/77/20 90/78/21 91/79/22 385/80/20 335/81/20
f 83/82/23 345/83/23 281/84/23 65/85/23
f 79/86/24 306/87/24 285/88/24 75/89/24
f 21/90/25 22/91/26 11/92/27 7/93/27
f 64/94/11 280/95/11 290/96/11 76/97/11
f 43/98/12 2/99/12 10/100/12 46/101/12
f 32/40/28 7/39/28 11/102/28 35/103/28
f 24/104/29 23/61/13 13/64/16 16/105/27
f 48/106/12 717/107/12 695/108/12 697/109/12 704/110/12
f 38/111/28 16/112/28 13/113/28 37/42/28
f 40/114/28 19/115/28 16/112/28 38/111/28
f 49/116/12 17/117/12 709/118/12 708/119/12 717/107/12 48/106/12
f 78/120/11 304/121/11 711/122/11 710/123/11
f 25/124/30 24/104/29 16/105/27 19/125/27
f 22/91/26 25/124/30 19/125/27 11/92/27
f 76/97/11 290/96/11 304/121/11 78/120/11
f 46/101/12 10/100/12 17/117/12 49/116/12
f 35/103/28 11/102/28 19/115/28 40/114/28
f 106/126/31 105/127/32 162/128/33 164/129/34
f 107/130/35 106/126/31 24/104/29 25/124/30
f 23/61/13 24/104/29 165/131/36 163/132/37
f 102/133/1 104/134/38 22/91/26 21/90/25
f 522/135/39 210/136/39 228/137/39 548/138/39
f 105/127/32 103/139/1 20/62/14 23/61/13
f 108/140/2 102/141/40 21/38/6 42/37/5
f 159/142/41 158/143/42 175/144/42 173/145/41
f 103/146/3 109/147/43 159/142/44 41/148/45 20/149/46
f 66/150/28 35/103/28 40/114/28 69/151/28
f 10/152/11 34/153/11 39/154/11 17/155/11
f 17/155/11 39/154/11 714/156/11 709/157/11
f 69/151/28 40/114/28 38/111/28 68/158/28
f 68/158/28 38/111/28 37/42/28 67/41/28
f 74/159/28 32/40/28 35/103/28 66/150/28
f 2/160/11 29/161/11 34/153/11 10/152/11
f 20/149/46 41/148/45 33/162/24 8/163/24
f 52/164/23 54/165/23 30/166/23 3/167/23
f 44/168/20 3/169/20 30/170/20 87/171/20 89/172/20 214/173/20 50/174/20
f 80/175/17 178/176/17 183/177/17 181/178/17 179/66/17 51/65/17
f 14/179/47 36/180/11 27/181/9 5/182/48
f 82/183/11 55/49/11 26/52/11 71/184/11
f 13/64/16 8/63/15 265/185/12 264/186/12
f 70/187/7 42/37/5 32/40/7 74/159/7
f 333/188/49 80/189/49 207/190/49 509/191/49
f 56/192/50 44/193/51 57/194/52 61/195/50
f 9/196/53 250/197/12 249/198/12 248/199/12 18/200/54
f 18/200/54 49/116/12 48/106/12 15/201/54
f 15/201/54 48/106/12 704/110/12 705/202/12 700/203/12 702/204/12 683/205/12 681/206/12 676/207/12 666/208/12 670/209/12 685/210/12 672/211/12 674/212/12 694/213/12 47/214/12 12/215/54
f 1/216/12 43/98/12 46/101/12 9/196/53
f 44/193/51 50/217/28 60/217/28 57/194/52
f 45/218/55 47/218/56 206/219/56 201/219/57
f 26/220/11 4/221/11 58/222/11 59/220/11
f 12/215/54 47/214/12 45/223/12 6/224/58
f 2/99/12 43/98/12 642/225/12 626/226/12 616/227/12 612/228/12 635/229/12
f 64/94/11 29/161/11 637/230/11 638/231/11
f 1/232/23 28/233/23 54/165/23 52/164/23
f 72/234/59 283/235/59 536/235/59 219/234/59
f 43/98/12 1/216/12 52/54/12 56/53/12 647/236/12 646/237/12 653/238/12 649/239/12 651/240/12 631/241/12 629/242/12 624/243/12 614/244/12 618/245/12 633/246/12 620/247/12 622/248/12 642/225/12
f 29/161/11 2/160/11 635/249/11 637/230/11
f 58/222/60 57/194/60 60/217/61 59/220/61
f 84/250/20 85/251/20 352/252/20 353/253/20
f 62/254/62 61/195/62 57/194/62 58/222/62
f 71/250/11 26/220/11 59/220/11 84/250/11
f 53/221/63 56/192/63 61/195/63 62/254/63
f 81/251/28 335/252/28 352/252/28 85/251/28
f 4/221/11 53/221/11 62/254/11 58/222/11
f 50/217/28 81/251/28 85/251/28 60/217/28
f 282/253/11 71/250/11 84/250/11 353/253/11
f 59/220/61 60/217/61 85/251/20 84/250/20
f 28/255/59 72/234/59 219/234/59 220/255/59
f 280/95/11 64/94/11 638/231/11 639/256/11
f 47/218/64 14/257/64 203/258/64 206/219/64
f 309/259/7 70/187/7 74/159/7 287/260/7
f 75/89/65 285/88/65 603/261/65 268/262/65
f 344/263/11 82/183/11 71/184/11 282/264/11
f 333/265/17 502/266/17 197/267/17 196/268/17 501/269/17 276/270/18 73/271/18 176/272/17 178/176/17 80/175/17
f 287/260/28 74/159/28 66/150/28 291/273/28
f 298/274/28 68/158/28 67/41/28 297/275/28
f 302/276/28 69/151/28 68/158/28 298/274/28
f 291/273/28 66/150/28 69/151/28 302/276/28
f 79/86/66 41/148/66 170/277/66 169/278/66
f 212/279/67 526/280/68 553/280/68 231/279/69
f 34/153/11 76/97/11 78/120/11 39/154/11
f 39/154/11 78/120/11 710/123/11 714/156/11
f 29/161/11 64/94/11 76/97/11 34/153/11
f 41/148/45 79/86/24 75/89/24 33/162/24
f 54/165/23 83/82/23 65/85/23 30/166/23
f 81/281/70 50/282/70 216/283/70 217/284/70
f 36/180/11 77/57/11 63/60/9 27/181/9
f 86/285/71 88/286/71 98/286/71 94/285/71
f 86/74/20 87/171/20 30/170/20 65/75/20
f 89/287/12 87/288/12 97/288/12 101/287/12
f 88/286/11 89/287/11 101/287/11 98/286/11
f 99/289/20 100/290/20 96/291/20 95/292/20
f 385/293/72 91/294/73 93/295/73 389/296/72
f 389/296/20 93/295/74 92/297/75 388/298/20
f 90/299/76 384/300/77 388/298/77 92/297/76
f 91/294/22 90/299/21 92/297/75 93/295/74
f 95/292/78 96/291/78 97/288/78 94/285/78
f 94/285/79 98/286/79 99/289/79 95/292/79
f 96/291/80 100/290/80 101/287/80 97/288/80
f 98/286/81 101/287/81 100/290/81 99/289/81
f 87/288/28 86/285/28 94/285/28 97/288/28
f 31/68/18 73/271/18 111/301/82 109/147/43
f 283/302/2 72/303/2 110/304/2 401/305/2
f 6/69/19 31/68/18 109/147/43 103/146/3
f 72/303/2 28/233/2 108/140/2 110/304/2
f 28/233/2 1/232/83 102/141/40 108/140/2
f 12/215/54 6/224/58 103/139/1 105/127/32
f 73/271/18 276/270/18 402/306/82 111/301/82
f 15/201/54 12/215/54 105/127/32 106/126/31
f 18/200/54 15/201/54 106/126/31 107/130/35
f 9/196/53 18/200/54 107/130/35 104/134/38
f 113/307/84 112/307/85 115/307/86 116/307/87
f 104/308/28 102/308/28 118/309/28 121/310/28
f 1/311/11 9/311/11 120/312/11 119/313/11
f 116/307/87 115/307/86 150/307/88 154/307/89
f 117/307/90 116/307/87 154/307/89 152/307/91
f 9/307/92 104/307/92 121/307/93 120/307/94
f 113/314/95 114/315/96 144/316/96 143/317/97
f 112/318/98 113/314/95 143/317/97 141/319/98
f 117/307/90 114/307/99 113/307/84 116/307/87
f 115/307/11 112/307/11 141/307/11 150/307/11
f 102/308/40 1/311/83 119/313/100 118/309/101
f 114/315/28 117/315/28 152/320/28 144/316/28
f 119/313/11 120/312/11 124/321/11 123/322/11
f 139/323/102 133/324/103 148/325/104 151/326/105
f 118/309/101 119/313/100 123/322/106 122/327/107
f 121/310/108 118/309/108 122/327/108 125/328/108
f 120/312/94 121/310/93 125/328/109 124/321/110
f 127/329/111 128/330/111 129/331/111 126/332/111
f 122/327/107 123/322/106 127/329/112 126/332/112
f 125/328/28 122/327/28 126/332/28 129/331/28
f 123/322/11 124/321/11 128/330/11 127/329/11
f 135/333/113 145/334/114 153/335/115 157/336/116
f 124/321/110 125/328/109 134/337/117 137/338/118 131/339/118 130/340/117
f 148/325/117 147/341/117 146/342/117 156/343/117 155/344/117 157/336/117 153/335/117 152/320/117 154/345/117 150/346/117 149/347/117 151/326/117
f 129/331/117 128/330/117 138/348/117 141/319/118 143/317/118 142/349/117
f 125/328/109 129/331/117 142/349/117 145/334/117 135/333/119 134/337/117
f 128/330/117 124/321/110 130/340/117 133/324/117 139/323/117 138/348/117
f 131/339/118 132/350/117 130/340/117
f 132/350/117 133/324/117 130/340/117
f 135/333/119 136/351/117 134/337/117
f 136/351/117 137/338/118 134/337/117
f 139/323/117 140/352/117 138/348/117
f 140/352/117 141/319/118 138/348/117
f 143/317/118 144/316/117 142/349/117
f 144/316/117 145/334/117 142/349/117
f 131/339/120 146/342/121 147/341/122 132/350/122
f 132/350/123 147/341/123 148/325/104 133/324/103
f 150/346/124 141/319/124 140/352/124 149/347/124
f 149/347/125 140/352/125 139/323/102 151/326/105
f 153/335/115 145/334/114 144/316/126 152/320/126
f 156/343/127 137/338/128 136/351/129 155/344/129
f 155/344/130 136/351/130 135/333/113 157/336/116
f 131/339/120 137/338/128 156/343/127 146/342/121
f 158/143/42 459/353/131 461/354/131 175/144/42
f 25/124/30 22/91/26 161/355/132 167/356/36
f 108/140/133 42/37/133 172/357/133 171/358/133
f 401/305/134 110/304/134 174/359/134 480/360/134
f 22/91/26 104/134/38 160/361/135 161/355/132
f 41/148/136 159/142/136 173/145/136 170/277/136
f 42/37/137 70/187/137 168/362/137 172/357/137
f 105/127/32 23/61/13 163/132/37 162/128/33
f 104/134/38 107/130/35 166/363/34 160/361/135
f 110/304/134 108/140/134 171/358/134 174/359/134
f 24/104/138 106/126/138 164/129/138 165/131/138
f 70/187/137 309/259/137 472/364/137 168/362/137
f 107/130/139 25/124/139 167/356/139 166/363/139
f 306/87/140 79/86/66 169/278/66 462/365/140
f 177/67/17 180/366/17 182/367/17 176/272/17 73/271/18 31/68/18
f 177/368/141 179/369/141 193/370/141 192/371/141
f 183/372/142 182/373/142 190/374/142 191/375/142
f 176/376/143 182/373/143 184/377/143 185/378/143
f 184/377/17 187/379/17 186/380/17 185/378/17
f 182/373/144 183/372/144 187/379/144 184/377/144
f 183/372/145 178/381/145 186/380/145 187/379/145
f 178/381/146 176/376/146 185/378/146 186/380/146
f 188/382/17 189/383/17 191/375/17 190/374/17
f 182/373/147 180/384/147 188/382/147 190/374/147
f 181/385/148 183/372/148 191/375/148 189/383/148
f 180/384/149 181/385/149 189/383/149 188/382/149
f 193/370/17 195/386/17 194/387/17 192/371/17
f 179/369/150 181/385/150 195/386/150 193/370/150
f 181/388/151 180/389/151 194/389/151 195/388/151
f 180/384/152 177/368/152 192/371/152 194/387/152
f 199/390/153 506/391/153 609/391/153 271/390/153
f 197/267/154 502/266/154 506/392/154 199/393/154
f 501/269/155 196/268/155 198/394/155 505/395/155
f 196/268/156 197/267/156 199/393/156 198/394/156
f 206/219/12 203/258/12 202/258/12 201/219/12
f 200/48/17 207/190/17 205/396/17 204/397/17
f 204/397/17 205/396/17 201/219/17 202/258/17
f 510/47/17 509/191/17 207/190/17 200/48/17
f 80/189/49 51/398/49 205/396/49 207/190/49
f 14/257/47 5/257/48 202/258/157 203/258/158
f 51/398/49 45/218/55 201/219/57 205/396/49
f 5/257/48 27/399/9 204/397/10 202/258/157
f 27/399/9 63/45/9 200/48/10 204/397/10
f 159/142/44 109/147/43 224/400/159 226/401/160
f 524/280/161 211/279/161 230/279/161 551/280/161
f 209/279/162 208/279/162 227/279/163 229/279/162
f 208/279/164 518/280/164 546/280/164 227/279/164
f 109/147/43 111/301/82 223/402/165 224/400/159
f 158/143/166 159/142/44 226/401/160 225/403/167
f 210/136/168 209/136/168 229/137/169 228/137/170
f 211/279/171 212/279/171 231/279/171 230/279/171
f 210/136/20 522/135/20 526/404/20 212/405/20
f 518/280/28 208/279/28 209/279/28 520/280/28
f 111/301/82 402/306/82 542/406/165 223/402/165
f 459/353/167 158/143/166 225/403/167 544/407/167
f 209/279/71 210/279/71 212/279/71 211/279/71
f 520/135/63 209/136/63 211/405/63 524/404/63
f 216/283/20 215/408/20 218/409/20 217/284/20
f 213/72/20 214/173/20 89/172/20 88/73/20
f 213/410/172 81/281/172 217/284/172 218/409/172
f 50/282/173 214/411/173 215/408/173 216/283/173
f 214/411/174 213/410/174 218/409/174 215/408/174
f 219/412/23 536/413/23 537/414/23 222/415/23
f 220/416/23 219/412/23 222/415/23 221/417/23
f 83/82/175 54/165/175 221/417/175 222/415/175
f 345/83/175 83/82/175 222/415/175 537/414/175
f 54/165/176 28/233/176 220/416/176 221/417/176
f 231/279/11 553/280/11 582/280/11 247/279/11
f 225/403/177 226/401/177 235/401/177 234/403/177
f 551/280/28 230/279/28 246/279/28 580/280/28
f 227/418/11 546/138/11 566/138/11 240/418/11
f 544/407/28 225/403/177 234/403/177 560/407/28
f 229/279/169 227/279/28 240/279/28 245/279/28
f 226/401/178 224/400/178 233/400/178 235/401/178
f 228/137/170 229/137/169 245/137/28 244/137/28
f 548/138/28 228/137/170 244/137/28 577/138/28
f 223/402/11 542/406/11 557/406/11 232/402/11
f 224/419/11 223/420/11 232/420/11 233/419/11
s 0
f 230/421/179 231/421/179 247/421/179 246/421/179
s 1
f 232/402/3 557/406/3 562/422/3 237/423/3 236/424/3 559/425/3 560/407/3 234/403/3
f 233/400/3 232/402/3 234/403/3 235/401/3
f 567/426/3 238/427/3 239/428/3 563/429/3 570/430/3 241/431/3 240/418/3 566/138/3
f 236/424/180 237/423/180 239/428/180 238/427/180
f 237/423/181 562/422/181 563/429/181 239/428/181
f 559/425/182 236/424/182 238/427/182 567/426/182
f 241/279/11 570/280/11 573/280/11 243/279/11
f 574/138/3 242/418/3 243/431/3 573/430/3
f 242/418/28 574/138/28 577/138/28 244/137/28
f 240/418/12 241/431/12 243/431/12 242/418/12
f 240/418/28 242/418/28 244/137/28 245/137/28
f 580/280/28 246/279/28 247/279/28 582/280/28
f 255/432/12 258/433/12 259/434/12 254/435/12
f 18/200/54 248/199/12 251/436/12 250/197/12 9/196/53 46/101/12 49/116/12
f 250/197/183 251/436/183 255/432/183 254/435/183
f 248/199/184 249/198/184 253/437/184 252/438/184
f 251/436/185 248/199/185 252/438/185 256/439/185 258/433/185 255/432/185
f 249/198/186 250/197/186 254/435/186 259/434/186 257/440/186 253/437/186
f 263/434/12 260/433/12 261/439/12 262/440/12
f 257/440/12 256/439/12 252/438/12 253/437/12
f 259/434/11 258/433/11 260/433/11 263/434/11
f 257/440/20 259/434/20 263/434/20 262/440/20
f 256/439/28 257/440/28 262/440/28 261/439/28
f 258/433/63 256/439/63 261/439/63 260/433/63
f 269/43/28 264/186/28 265/185/28 266/441/28
f 267/44/28 269/43/28 266/441/28 268/262/28
f 604/442/28 267/44/28 268/262/28 603/261/28
f 37/42/8 13/113/8 264/186/8 269/43/8
f 297/275/8 67/41/8 267/44/8 604/442/8
f 33/162/65 75/89/65 268/262/65 266/441/65
f 8/163/65 33/162/65 266/441/65 265/185/65
f 608/443/17 270/444/17 271/445/17 609/446/17
f 505/395/187 198/394/187 270/447/187 608/448/187
f 198/394/188 199/393/188 271/449/188 270/447/188
f 330/450/5 320/451/7 284/452/7 308/453/6
f 361/454/8 605/455/8 607/456/8 325/457/8
f 357/458/9 511/459/10 510/47/10 277/46/9
f 347/460/11 314/461/11 275/462/11 343/463/11
f 348/464/71 332/465/71 274/466/71 342/467/71
f 371/468/11 357/469/9 277/59/9 294/58/11
f 311/470/189 295/471/190 286/472/191 307/473/192
f 341/474/17 334/475/17 279/476/19 319/477/18 482/478/17 484/479/17
f 375/480/20 335/81/20 385/80/20 387/481/193 386/482/194 384/77/20 281/76/20 359/483/20 380/484/20 382/485/20 528/486/20
f 377/487/23 359/488/23 281/84/23 345/83/23
f 373/489/24 369/490/24 285/88/24 306/87/24
f 308/491/195 284/492/196 292/493/196 310/494/197
f 358/495/11 370/496/11 290/96/11 280/95/11
f 331/497/71 336/498/71 289/499/71 273/500/71
f 320/451/28 323/501/28 292/502/28 284/452/28
f 312/503/198 300/504/196 295/471/190 311/470/189
f 338/505/71 699/506/71 698/507/71 696/508/71 716/509/71
f 326/510/28 325/457/28 295/511/28 300/512/28
f 328/513/28 326/510/28 300/512/28 305/514/28
f 339/515/71 338/505/71 716/509/71 707/516/71 715/517/71 301/518/71
f 372/519/11 712/520/11 711/122/11 304/121/11
f 313/521/199 305/522/196 300/504/196 312/503/198
f 310/494/197 292/493/196 305/522/196 313/521/199
f 370/496/11 372/519/11 304/121/11 290/96/11
f 336/498/71 339/515/71 301/518/71 289/499/71
f 323/501/28 328/513/28 305/514/28 292/502/28
f 406/523/200 467/524/201 465/525/202 405/526/203
f 407/527/204 313/521/199 312/503/198 406/523/200
f 311/470/189 466/528/205 468/529/206 312/503/198
f 400/530/4 308/491/195 310/494/197 404/531/207
f 522/135/39 548/138/39 549/532/208 523/533/39
f 405/526/203 311/470/189 307/473/192 403/534/4
f 408/535/2 330/450/5 308/453/6 400/536/209
f 460/537/210 477/538/210 479/539/211 458/540/211
f 403/541/3 307/542/46 329/543/45 460/537/212 409/544/213
f 360/545/28 363/546/28 328/513/28 323/501/28
f 289/547/11 301/548/11 327/549/11 322/550/11
f 301/548/11 715/551/11 713/552/11 327/549/11
f 363/546/28 362/553/28 326/510/28 328/513/28
f 362/553/28 361/454/28 325/457/28 326/510/28
f 368/554/28 360/545/28 323/501/28 320/451/28
f 307/542/46 286/555/24 321/556/24 329/543/45
f 342/557/23 274/558/23 318/559/23 346/560/23
f 332/561/20 340/562/20 529/563/20 383/564/20 381/565/20 318/566/20 274/567/20
f 374/568/17 341/474/17 484/479/17 486/569/17 488/570/17 483/571/17
f 296/572/214 278/573/215 315/574/9 324/575/11
f 376/576/11 365/577/11 314/461/11 347/460/11
f 295/471/190 600/578/71 601/579/71 286/472/191
f 364/580/7 368/554/7 320/451/7 330/450/5
f 333/188/49 509/191/49 517/581/49 374/582/49
f 348/583/216 355/584/216 349/585/217 332/586/218
f 288/587/219 303/588/220 584/589/71 585/590/71 586/591/71
f 303/588/220 299/592/220 338/505/71 339/515/71
f 299/592/220 293/593/220 337/594/71 680/595/71 675/596/71 673/597/71 686/598/71 671/599/71 667/600/71 677/601/71 682/602/71 684/603/71 703/604/71 701/605/71 706/606/71 699/506/71 338/505/71
f 272/607/71 288/587/219 336/498/71 331/497/71
f 332/586/218 349/585/217 354/608/28 340/608/28
f 334/609/221 512/610/222 516/610/223 337/609/223
f 314/611/11 351/611/11 350/612/11 275/613/11
f 293/593/220 279/614/224 334/615/71 337/594/71
f 273/500/71 636/616/71 613/617/71 617/618/71 627/619/71 628/620/71 331/497/71
f 358/495/11 640/621/11 641/622/11 317/623/11
f 272/624/23 342/557/23 346/560/23 316/625/23
f 366/234/59 534/234/59 536/235/59 283/235/59
f 331/497/71 628/620/71 623/626/71 621/627/71 634/628/71 619/629/71 615/630/71 625/631/71 630/632/71 632/633/71 652/634/71 650/635/71 654/636/71 648/637/71 643/638/71 348/464/71 342/467/71 272/607/71
f 317/623/11 641/622/11 636/639/11 273/640/11
f 350/612/225 351/611/226 354/608/226 349/585/225
f 378/641/20 353/253/20 352/252/20 379/642/20
f 356/643/227 350/612/227 349/585/227 355/584/227
f 365/641/11 378/641/11 351/611/11 314/611/11
f 343/613/63 356/643/63 355/584/63 348/583/63
f 375/642/28 379/642/28 352/252/28 335/252/28
f 275/613/11 350/612/11 356/643/11 343/613/11
f 340/608/28 354/608/28 379/642/28 375/642/28
f 282/253/11 353/253/11 378/641/11 365/641/11
f 351/611/226 378/641/20 379/642/20 354/608/226
f 316/255/59 535/255/59 534/234/59 366/234/59
f 280/95/11 639/256/11 640/621/11 358/495/11
f 337/609/228 516/610/228 513/644/228 296/645/228
f 309/259/7 287/260/7 368/554/7 364/580/7
f 369/490/65 606/646/65 603/261/65 285/88/65
f 344/263/11 282/264/11 365/577/11 376/576/11
f 333/265/17 374/568/17 483/571/17 481/647/17 367/648/18 276/270/18 501/269/17 503/649/17 504/650/17 502/266/17
f 287/260/28 291/273/28 360/545/28 368/554/28
f 298/274/28 297/275/28 361/454/28 362/553/28
f 302/276/28 298/274/28 362/553/28 363/546/28
f 291/273/28 302/276/28 363/546/28 360/545/28
f 373/489/66 473/651/66 474/652/66 329/543/66
f 527/279/67 554/279/67 553/280/68 526/280/68
f 322/550/11 327/549/11 372/519/11 370/496/11
f 327/549/11 713/552/11 712/520/11 372/519/11
f 317/623/11 322/550/11 370/496/11 358/495/11
f 329/543/45 321/556/24 369/490/24 373/489/24
f 346/560/23 318/559/23 359/488/23 377/487/23
f 375/653/229 532/654/229 531/655/229 340/656/229
f 324/575/11 315/574/9 357/469/9 371/468/11
f 380/657/12 392/657/12 396/658/12 382/658/12
f 380/484/20 359/483/20 318/566/20 381/565/20
f 383/659/71 399/659/71 395/660/71 381/660/71
f 382/658/11 396/658/11 399/659/11 383/659/11
f 397/661/20 393/662/20 394/663/20 398/664/20
f 385/293/72 389/296/72 391/665/230 387/666/230
f 389/296/20 388/298/20 390/667/231 391/665/232
f 386/668/233 390/667/233 388/298/77 384/300/77
f 387/666/193 391/665/232 390/667/231 386/668/194
f 393/662/78 392/657/78 395/660/78 394/663/78
f 392/657/234 393/662/234 397/661/234 396/658/234
f 394/663/235 395/660/235 399/659/235 398/664/235
f 396/658/81 397/661/81 398/664/81 399/659/81
f 381/660/28 395/660/28 392/657/28 380/657/28
f 319/477/18 409/544/213 411/669/82 367/648/18
f 283/302/2 401/305/2 410/670/2 366/671/2
f 279/476/19 403/541/3 409/544/213 319/477/18
f 366/671/2 410/670/2 408/535/2 316/625/2
f 316/625/2 408/535/2 400/536/209 272/624/236
f 293/593/220 405/526/203 403/534/4 279/614/224
f 367/648/18 411/669/82 402/306/82 276/270/18
f 299/592/220 406/523/200 405/526/203 293/593/220
f 303/588/220 407/527/204 406/523/200 299/592/220
f 288/587/219 404/531/207 407/527/204 303/588/220
f 413/307/237 416/307/238 415/307/239 412/307/240
f 404/672/28 421/673/28 418/674/28 400/672/28
f 272/675/11 419/676/11 420/677/11 288/675/11
f 416/307/238 454/307/241 450/307/242 415/307/239
f 417/307/243 452/307/244 454/307/241 416/307/238
f 288/675/245 420/677/246 421/673/247 404/672/245
f 413/307/248 443/307/249 444/307/250 414/307/250
f 412/307/251 441/307/251 443/307/249 413/307/248
f 417/307/243 416/307/238 413/307/237 414/307/252
f 415/307/11 450/307/11 441/307/11 412/307/11
f 400/672/209 418/674/253 419/676/254 272/675/236
f 414/307/28 444/307/28 452/307/28 417/307/28
f 419/676/11 423/678/11 424/679/11 420/677/11
f 439/680/255 451/681/256 448/682/257 433/683/258
f 418/674/253 422/684/259 423/678/260 419/676/254
f 421/673/261 425/685/261 422/684/261 418/674/261
f 420/677/246 424/679/262 425/685/263 421/673/247
f 427/686/264 426/687/264 429/688/264 428/689/264
f 422/684/259 426/687/265 427/686/265 423/678/260
f 425/685/28 429/688/28 426/687/28 422/684/28
f 423/678/11 427/686/11 428/689/11 424/679/11
f 435/690/266 457/691/267 453/692/268 445/693/269
f 424/679/262 430/694/270 431/695/271 437/696/271 434/697/270 425/685/263
f 448/682/270 451/681/270 449/698/270 450/699/270 454/700/270 452/701/270 453/692/270 457/691/270 455/702/270 456/703/270 446/704/270 447/705/270
f 429/688/270 442/706/270 443/707/271 441/708/271 438/709/270 428/689/270
f 425/685/263 434/697/270 435/690/272 445/693/270 442/706/270 429/688/270
f 428/689/270 438/709/270 439/680/270 433/683/270 430/694/270 424/679/262
f 431/695/271 430/694/270 432/710/270
f 432/710/270 430/694/270 433/683/270
f 435/690/272 434/697/270 436/711/270
f 436/711/270 434/697/270 437/696/271
f 439/680/270 438/709/270 440/712/270
f 440/712/270 438/709/270 441/708/271
f 443/707/271 442/706/270 444/713/270
f 444/713/270 442/706/270 445/693/270
f 431/695/273 432/710/274 447/705/274 446/704/275
f 432/710/276 433/683/258 448/682/257 447/705/276
f 450/307/277 449/307/277 440/307/277 441/307/277
f 449/698/278 451/681/256 439/680/255 440/712/278
f 453/692/268 452/701/279 444/713/279 445/693/269
f 456/703/280 455/702/281 436/711/281 437/696/282
f 455/702/283 457/691/267 435/690/266 436/711/283
f 431/695/273 446/704/275 456/703/280 437/696/282
f 458/540/211 479/539/211 461/354/131 459/353/131
f 313/521/199 470/714/206 464/715/284 310/494/197
f 408/535/285 475/716/285 476/717/285 330/450/285
f 401/305/134 480/360/134 478/718/134 410/670/134
f 310/494/197 464/715/284 463/719/286 404/531/207
f 329/543/287 474/652/287 477/538/287 460/537/287
f 330/450/137 476/717/137 471/720/137 364/580/137
f 405/526/203 465/525/202 466/528/205 311/470/189
f 404/531/207 463/719/286 469/721/201 407/527/204
f 410/670/134 478/718/134 475/716/134 408/535/134
f 312/503/288 468/529/288 467/524/288 406/523/288
f 364/580/137 471/720/137 472/364/137 309/259/137
f 407/527/289 469/721/289 470/714/289 313/521/289
f 306/87/140 462/365/140 473/651/66 373/489/66
f 482/478/17 319/477/18 367/648/18 481/647/17 487/722/17 485/723/17
f 482/724/151 497/725/151 498/726/151 484/727/151
f 488/728/149 496/729/149 495/730/149 487/731/149
f 481/732/143 490/733/143 489/734/143 487/731/143
f 489/734/17 490/733/17 491/735/17 492/736/17
f 487/731/290 489/734/290 492/736/290 488/728/290
f 488/728/145 492/736/145 491/735/145 483/737/145
f 483/737/291 491/735/291 490/733/291 481/732/291
f 493/738/17 495/730/17 496/729/17 494/739/17
f 487/731/147 495/730/147 493/738/147 485/740/147
f 486/741/148 494/739/148 496/729/148 488/728/148
f 485/740/142 493/738/142 494/739/142 486/741/142
f 498/726/17 497/725/17 499/742/17 500/743/17
f 484/727/150 498/726/150 500/743/150 486/741/150
f 486/741/141 500/743/141 499/742/141 485/740/141
f 485/740/152 499/742/152 497/725/152 482/724/152
f 508/744/153 611/745/153 609/746/153 506/392/153
f 504/650/154 508/744/154 506/392/154 502/266/154
f 501/269/155 505/395/155 507/747/155 503/649/155
f 503/649/292 507/747/292 508/744/292 504/650/292
f 511/459/17 514/748/17 515/749/17 517/581/17
f 510/47/17 511/459/17 517/581/17 509/191/17
f 374/582/49 517/581/49 515/749/49 341/750/49
f 341/750/49 515/749/49 512/610/222 334/609/221
f 315/751/9 514/748/10 511/459/10 357/458/9
f 460/537/212 545/752/293 541/753/294 409/544/213
f 524/280/161 551/280/161 552/279/295 525/279/295
f 521/279/296 550/279/296 547/279/297 519/279/296
f 519/279/164 547/279/164 546/280/164 518/280/164
f 409/544/213 541/753/294 540/754/165 411/669/82
f 458/540/166 543/755/167 545/752/293 460/537/212
f 523/533/298 549/532/299 550/532/300 521/533/298
f 525/279/301 552/279/301 554/279/301 527/279/301
f 523/533/20 527/756/20 526/404/20 522/135/20
f 518/280/28 520/280/28 521/279/28 519/279/28
f 411/669/82 540/754/165 542/406/165 402/306/82
f 459/353/167 544/407/167 543/755/167 458/540/166
f 521/279/12 525/279/12 527/279/12 523/279/12
f 520/135/63 524/404/63 525/756/63 521/533/63
f 531/655/20 532/654/20 533/757/20 530/758/20
f 528/486/20 382/485/20 383/564/20 529/563/20
f 528/759/302 533/757/302 532/654/302 375/653/302
f 340/656/303 531/655/303 530/758/303 529/760/303
f 529/760/174 530/758/174 533/757/174 528/759/174
f 534/761/23 539/762/23 537/414/23 536/413/23
f 535/763/23 538/764/23 539/762/23 534/761/23
f 377/487/175 539/762/175 538/764/175 346/560/175
f 345/83/175 537/414/175 539/762/175 377/487/175
f 346/560/304 538/764/304 535/763/304 316/625/304
f 554/279/11 583/279/11 582/280/11 553/280/11
f 543/755/305 558/755/305 561/752/305 545/752/305
f 551/280/28 580/280/28 581/279/28 552/279/28
f 547/765/11 571/765/11 566/138/11 546/138/11
f 544/407/28 560/407/28 558/755/305 543/755/305
f 550/279/300 579/279/306 571/279/28 547/279/28
f 545/752/307 561/752/307 556/753/307 541/753/307
f 549/532/299 578/532/28 579/532/306 550/532/300
f 548/138/28 577/138/28 578/532/28 549/532/299
f 540/754/11 555/754/11 557/406/11 542/406/11
f 541/753/11 556/753/11 555/754/11 540/754/11
f 552/279/308 581/279/20 583/279/20 554/279/20
f 555/754/3 558/755/3 560/407/3 559/425/3 564/766/3 565/767/3 562/422/3 557/406/3
f 556/753/3 561/752/3 558/755/3 555/754/3
f 567/426/3 566/138/3 571/765/3 572/768/3 570/430/3 563/429/3 569/769/3 568/770/3
f 564/766/309 568/770/309 569/769/309 565/767/309
f 565/767/181 569/769/181 563/429/181 562/422/181
f 559/425/182 567/426/182 568/770/182 564/766/182
f 572/279/11 576/279/11 573/280/11 570/280/11
f 574/138/3 573/430/3 576/768/3 575/765/3
f 575/765/28 578/532/28 577/138/28 574/138/28
f 571/765/71 575/765/71 576/768/71 572/768/71
f 571/765/28 579/532/306 578/532/28 575/765/28
f 580/280/28 582/280/28 583/279/28 581/279/28
f 591/771/71 590/772/71 595/773/71 594/774/71
f 303/588/220 339/515/71 336/498/71 288/587/219 586/591/71 587/775/71 584/589/71
f 586/591/310 590/772/310 591/771/310 587/775/310
f 584/589/311 588/776/311 589/777/311 585/590/311
f 587/775/312 591/771/312 594/774/312 592/778/312 588/776/312 584/589/312
f 585/590/313 589/777/313 593/779/313 595/773/313 590/772/313 586/591/313
f 599/773/71 598/779/71 597/778/71 596/774/71
f 593/779/71 589/777/71 588/776/71 592/778/71
f 595/773/11 599/773/11 596/774/11 594/774/11
f 593/779/20 598/779/20 599/773/20 595/773/20
f 592/778/28 597/778/28 598/779/28 593/779/28
f 594/774/63 596/774/63 597/778/63 592/778/63
f 607/456/28 602/780/28 601/579/28 600/578/28
f 605/455/28 606/646/28 602/780/28 607/456/28
f 604/442/28 603/261/28 606/646/28 605/455/28
f 325/457/8 607/456/8 600/578/8 295/511/8
f 297/275/8 604/442/8 605/455/8 361/454/8
f 321/556/65 602/780/65 606/646/65 369/490/65
f 286/555/65 601/579/65 602/780/65 321/556/65
f 608/443/17 609/446/17 611/781/17 610/782/17
f 505/395/187 608/448/187 610/783/187 507/747/187
f 507/747/314 610/783/314 611/745/314 508/744/314
f 615/784/315 614/785/315 624/786/11 625/787/11
f 663/788/11 662/789/11 347/460/11 343/463/11
f 613/790/20 612/791/20 616/792/316 617/793/316
f 645/794/317 644/795/317 655/796/63 657/797/63
f 656/798/12 655/799/12 644/800/12 647/236/12 56/53/12 53/801/12
f 634/802/318 633/803/318 618/804/319 619/805/319
f 662/789/11 661/806/11 376/576/11 347/460/11
f 657/797/63 655/796/63 656/807/320 658/808/320 659/809/320 660/810/320 661/806/320 662/789/320 663/788/320
f 617/793/316 616/792/316 626/811/321 627/812/321
f 661/806/11 660/810/11 344/263/11 376/576/11
f 658/808/11 656/807/11 53/50/11 55/49/11
f 654/813/322 653/814/322 646/815/323 648/816/323
f 623/817/324 622/818/324 620/819/325 621/820/325
f 659/809/11 658/808/11 55/49/11 82/183/11
f 619/805/319 618/804/319 614/785/315 615/784/315
f 650/821/326 649/822/326 653/814/322 654/813/322
f 632/823/327 631/824/327 651/825/328 652/826/328
f 612/791/20 613/790/20 636/639/329 641/622/329 640/621/329 639/256/329 638/231/329 637/230/329 635/249/329
f 625/787/11 624/786/11 629/827/330 630/828/330
f 648/816/323 646/815/323 647/829/331 644/795/317 645/794/317 643/830/331
f 627/812/321 626/811/321 642/831/332 622/818/324 623/817/324 628/832/332
f 630/828/330 629/827/330 631/824/327 632/823/327
f 621/820/325 620/819/325 633/803/318 634/802/318
f 660/810/11 659/809/11 82/183/11 344/263/11
f 652/826/328 651/825/328 649/822/326 650/821/326
f 643/638/71 645/833/71 657/834/71 663/835/71 343/836/71 348/464/71
f 692/837/11 689/838/11 77/57/11 36/180/11
f 667/839/315 666/840/315 676/841/11 677/842/11
f 664/843/20 665/844/20 669/845/316 668/846/316
f 696/847/317 695/848/317 717/849/333 708/850/63 707/851/63 716/852/333
f 686/853/318 685/854/318 670/855/319 671/856/319
f 707/851/63 708/850/63 709/157/320 714/156/320 710/123/320 711/122/320 712/520/320 713/552/320 715/551/320
f 668/846/316 669/845/316 679/857/321 678/858/321
f 706/859/322 705/860/322 704/861/334 697/862/323 698/863/323 699/864/334
f 675/865/324 674/866/324 672/867/325 673/868/325
f 691/869/11 693/870/11 324/575/11 371/468/11
f 671/856/319 670/855/319 666/840/315 667/839/315
f 693/870/11 687/871/11 296/572/214 324/575/11
f 701/872/326 700/873/326 705/860/322 706/859/322
f 684/874/327 683/875/327 702/876/328 703/877/328
f 665/844/20 664/843/20 687/871/329 693/870/329 691/869/329 690/878/329 689/838/329 692/837/329 688/879/329
f 677/842/11 676/841/11 681/880/330 682/881/330
f 688/879/11 692/837/11 36/180/11 14/179/47
f 694/213/12 679/882/12 669/883/12 665/884/12 688/885/12 14/886/12 47/214/12
f 687/887/71 664/888/71 668/889/71 678/890/71 680/595/71 337/594/71 296/891/71
f 698/863/323 697/862/323 695/848/317 696/847/317
f 678/858/321 679/857/321 694/892/332 674/866/324 675/865/324 680/893/332
f 682/881/330 681/880/330 683/875/327 684/874/327
f 673/868/325 672/867/325 685/854/318 686/853/318
f 689/838/11 690/878/11 294/58/11 77/57/11
f 690/878/11 691/869/11 371/468/11 294/58/11
f 703/877/328 702/876/328 700/873/326 701/872/326
f 718/894/63 719/894/63 721/895/317 720/895/317
f 720/895/317 721/895/317 723/896/323 722/896/323
f 722/896/323 723/896/323 725/897/335 724/897/335
f 726/898/336 727/898/336 729/899/337 728/899/337
f 728/899/337 729/899/337 731/900/338 730/900/338
f 733/901/339 734/901/340 736/902/341 735/902/341
f 735/902/341 736/902/341 738/903/342 737/903/342
f 737/903/342 738/903/342 740/904/28 739/904/28
f 739/904/28 740/904/28 742/905/343 741/905/343
f 741/905/343 742/905/343 744/906/344 743/906/344
f 743/906/344 744/906/344 746/907/345 745/907/345
f 747/908/346 748/908/346 750/909/347 749/909/347
f 749/909/347 750/909/347 752/910/348 751/910/348
f 751/910/348 752/910/348 719/894/63 718/894/63
f 721/895/12 719/894/12 754/911/12 753/912/12
f 719/894/12 752/910/12 759/913/12 754/911/12
f 723/896/12 721/895/12 753/912/12 755/914/12
f 752/910/12 750/909/12 758/915/12 759/913/12
f 775/916/349 776/916/349 778/917/350 777/917/350
f 777/917/350 778/917/350 780/918/351 779/918/351
f 779/918/351 780/918/351 782/919/352 781/919/352
f 781/919/352 782/919/352 784/920/353 783/920/353
f 788/921/354 789/921/354 791/922/355 790/922/355
l 730 732
l 797 798
l 785 786
l 787 789
l 791 792
l 793 794
l 798 799
l 800 801
l 803 804
l 805 806
l 807 808
l 810 811
l 796 811
l 773 774
l 761 767
l 761 762
l 761 763
l 784 785
l 786 787
l 792 793
l 794 795
l 772 795
l 799 800
l 802 803
l 804 805
l 806 807
l 809 810
