# Blender 4.5.3 LTS
# www.blender.org
mtllib Llanta.mtl
o Cube.004
v -0.090359 -1.057499 0.655610
v -0.090359 -1.030266 0.663871
v -0.090359 -1.085820 0.652821
v -0.090359 -1.079243 0.764925
v -0.090359 -1.072918 0.766844
v -0.090359 -1.085821 0.764277
v -0.274778 -1.085820 0.567462
v -0.093540 -1.085820 0.567462
v -0.274778 -1.130795 0.571891
v -0.093540 -1.130795 0.571891
v -0.274778 -1.174041 0.585010
v -0.093540 -1.174041 0.585010
v -0.274778 -1.213897 0.606313
v -0.093540 -1.213897 0.606313
v -0.274778 -1.248831 0.634983
v -0.093540 -1.248831 0.634983
v -0.274778 -1.277500 0.669917
v -0.093540 -1.277500 0.669917
v -0.274778 -1.298804 0.709773
v -0.093540 -1.298804 0.709773
v -0.274778 -1.311922 0.753019
v -0.093540 -1.311922 0.753019
v -0.274778 -1.316352 0.797993
v -0.093540 -1.316352 0.797993
v -0.274778 -1.311922 0.842968
v -0.093540 -1.311922 0.842967
v -0.274778 -1.298804 0.886214
v -0.093540 -1.298804 0.886213
v -0.274778 -1.277500 0.926069
v -0.093540 -1.277500 0.926069
v -0.274778 -1.248831 0.961003
v -0.093540 -1.248831 0.961003
v -0.274778 -1.213897 0.989673
v -0.093540 -1.213897 0.989673
v -0.274778 -1.174041 1.010976
v -0.093540 -1.174041 1.010976
v -0.274778 -1.130795 1.024095
v -0.093540 -1.130795 1.024095
v -0.274778 -1.085820 1.028524
v -0.093540 -1.085820 1.028524
v -0.274778 -1.040846 1.024095
v -0.093540 -1.040846 1.024095
v -0.274778 -0.997600 1.010976
v -0.093540 -0.997600 1.010976
v -0.274778 -0.957744 0.989673
v -0.093540 -0.957744 0.989673
v -0.274778 -0.922810 0.961003
v -0.093540 -0.922810 0.961003
v -0.274778 -0.894140 0.926069
v -0.093540 -0.894140 0.926069
v -0.274778 -0.872837 0.886213
v -0.093540 -0.872837 0.886213
v -0.274778 -0.859719 0.842967
v -0.093540 -0.859719 0.842967
v -0.274778 -0.855289 0.797993
v -0.093540 -0.855289 0.797993
v -0.274778 -0.859719 0.753018
v -0.093540 -0.859719 0.753018
v -0.274778 -0.872837 0.709772
v -0.093540 -0.872837 0.709772
v -0.274778 -0.894141 0.669916
v -0.093540 -0.894141 0.669916
v -0.274778 -0.922810 0.634983
v -0.093540 -0.922810 0.634983
v -0.274778 -0.957744 0.606313
v -0.093540 -0.957744 0.606313
v -0.274778 -0.997600 0.585010
v -0.093540 -0.997600 0.585010
v -0.274778 -1.040846 0.571891
v -0.093540 -1.040846 0.571891
v -0.093540 -1.116307 0.644728
v -0.093540 -1.085820 0.641726
v -0.093540 -1.145621 0.653621
v -0.093540 -1.172638 0.668062
v -0.093540 -1.196318 0.687495
v -0.093540 -1.215752 0.711176
v -0.093540 -1.230192 0.738192
v -0.093540 -1.239085 0.767507
v -0.093540 -1.242088 0.797993
v -0.093540 -1.239085 0.828479
v -0.093540 -1.230192 0.857794
v -0.093540 -1.215752 0.884810
v -0.093540 -1.196318 0.908491
v -0.093540 -1.172638 0.927924
v -0.093540 -1.145621 0.942365
v -0.093540 -1.116306 0.951258
v -0.093540 -1.085820 0.954260
v -0.093540 -1.055334 0.951258
v -0.093540 -1.026019 0.942365
v -0.093540 -0.999003 0.927924
v -0.093540 -0.975323 0.908491
v -0.093540 -0.955889 0.884810
v -0.093540 -0.941448 0.857794
v -0.093540 -0.932556 0.828479
v -0.093540 -0.929553 0.797993
v -0.093540 -0.932556 0.767507
v -0.093540 -0.941448 0.738192
v -0.093540 -0.955889 0.711176
v -0.093540 -0.975323 0.687495
v -0.093540 -0.999003 0.668061
v -0.093540 -1.026020 0.653621
v -0.093540 -1.055334 0.644728
v -0.073004 -1.116307 0.644728
v -0.073004 -1.085820 0.641726
v -0.073003 -1.145621 0.653621
v -0.073003 -1.172638 0.668062
v -0.073003 -1.196318 0.687495
v -0.073003 -1.215752 0.711176
v -0.073003 -1.230192 0.738192
v -0.073003 -1.239085 0.767507
v -0.073003 -1.242088 0.797993
v -0.073003 -1.239085 0.828479
v -0.073003 -1.230192 0.857794
v -0.073003 -1.215752 0.884810
v -0.073003 -1.196318 0.908491
v -0.073003 -1.172638 0.927924
v -0.073003 -1.145621 0.942365
v -0.073003 -1.116306 0.951258
v -0.073003 -1.085820 0.954260
v -0.073003 -1.055334 0.951258
v -0.073003 -1.026019 0.942365
v -0.073003 -0.999003 0.927924
v -0.073003 -0.975323 0.908491
v -0.073004 -0.955889 0.884810
v -0.073004 -0.941448 0.857794
v -0.073004 -0.932556 0.828479
v -0.073004 -0.929553 0.797993
v -0.073004 -0.932556 0.767507
v -0.073004 -0.941448 0.738192
v -0.073004 -0.955889 0.711176
v -0.073004 -0.975323 0.687495
v -0.073004 -0.999003 0.668061
v -0.073004 -1.026020 0.653621
v -0.073004 -1.055334 0.644728
v -0.073003 -1.092901 0.762398
v -0.073003 -1.085821 0.761701
v -0.073003 -1.099709 0.764463
v -0.073003 -1.105984 0.767817
v -0.073003 -1.111483 0.772330
v -0.073003 -1.115997 0.777830
v -0.073003 -1.119350 0.784104
v -0.073003 -1.121416 0.790913
v -0.073003 -1.122113 0.797993
v -0.073003 -1.121416 0.805073
v -0.073003 -1.119350 0.811882
v -0.073003 -1.115997 0.818156
v -0.073003 -1.111483 0.823656
v -0.073003 -1.105984 0.828169
v -0.073003 -1.099709 0.831523
v -0.073003 -1.092901 0.833588
v -0.073003 -1.085820 0.834286
v -0.073003 -1.078740 0.833588
v -0.073003 -1.071932 0.831523
v -0.073003 -1.065657 0.828169
v -0.073003 -1.060158 0.823656
v -0.073003 -1.055644 0.818156
v -0.073003 -1.052291 0.811882
v -0.073003 -1.050225 0.805073
v -0.073003 -1.049528 0.797993
v -0.073003 -1.050225 0.790913
v -0.073003 -1.052291 0.784104
v -0.073003 -1.055644 0.777830
v -0.073003 -1.060158 0.772330
v -0.073003 -1.065657 0.767817
v -0.073003 -1.071932 0.764463
v -0.073003 -1.078740 0.762398
v -0.073003 -1.166474 0.677287
v -0.073003 -1.141375 0.663871
v -0.073003 -1.188473 0.695341
v -0.073003 -1.228203 0.769671
v -0.073003 -1.219942 0.742438
v -0.073003 -1.230993 0.797993
v -0.073003 -1.206527 0.878646
v -0.073003 -1.219942 0.853548
v -0.073003 -1.188473 0.900645
v -0.073003 -1.114142 0.940376
v -0.073003 -1.141375 0.932115
v -0.073003 -1.085820 0.943165
v -0.073003 -1.005167 0.918699
v -0.073003 -1.030265 0.932115
v -0.073003 -0.983168 0.900645
v -0.073004 -0.943437 0.826315
v -0.073004 -0.951698 0.853548
v -0.073004 -0.940648 0.797993
v -0.073004 -0.965114 0.717339
v -0.073004 -0.951699 0.742438
v -0.073004 -0.983168 0.695341
v -0.073004 -1.057499 0.655610
v -0.073004 -1.030266 0.663871
v -0.073004 -1.085820 0.652821
v -0.090359 -1.166474 0.677287
v -0.090359 -1.141375 0.663871
v -0.090359 -1.188473 0.695341
v -0.090359 -1.228203 0.769671
v -0.090359 -1.219942 0.742438
v -0.090359 -1.230993 0.797993
v -0.090359 -1.206527 0.878646
v -0.090359 -1.219942 0.853548
v -0.090359 -1.188473 0.900645
v -0.090359 -1.114142 0.940376
v -0.090359 -1.141375 0.932115
v -0.090359 -1.085820 0.943165
v -0.090359 -1.005167 0.918699
v -0.090359 -1.030265 0.932115
v -0.090359 -0.983168 0.900645
v -0.090359 -0.943437 0.826315
v -0.090359 -0.951698 0.853548
v -0.090359 -0.940648 0.797993
v -0.090359 -0.965114 0.717339
v -0.090359 -0.951699 0.742438
v -0.090359 -0.983168 0.695341
v -0.090359 -1.057499 0.655610
v -0.090359 -1.030266 0.663871
v -0.090359 -1.085820 0.652821
v -0.090359 -1.104552 0.769959
v -0.090359 -1.098723 0.766844
v -0.090359 -1.109661 0.774152
v -0.090359 -1.118888 0.791415
v -0.090359 -1.116970 0.785091
v -0.090359 -1.119536 0.797993
v -0.090359 -1.113854 0.816724
v -0.090359 -1.116970 0.810896
v -0.090359 -1.109661 0.821834
v -0.090359 -1.092398 0.831061
v -0.090359 -1.098723 0.829142
v -0.090359 -1.085820 0.831709
v -0.090359 -1.067089 0.826027
v -0.090359 -1.072918 0.829142
v -0.090359 -1.061980 0.821834
v -0.090359 -1.052752 0.804571
v -0.090359 -1.054671 0.810896
v -0.090359 -1.052105 0.797993
v -0.090359 -1.057787 0.779262
v -0.090359 -1.054671 0.785091
v -0.090359 -1.061980 0.774152
v -0.090359 -1.079243 0.764925
v -0.090359 -1.072918 0.766844
v -0.090359 -1.085821 0.764277
v -0.053377 -1.090934 0.772284
v -0.063408 -1.092901 0.762398
v -0.056315 -1.092325 0.765293
v -0.063408 -1.085821 0.761701
v -0.053377 -1.085820 0.771780
v -0.056315 -1.085821 0.764653
v -0.053377 -1.095852 0.773775
v -0.063408 -1.099709 0.764463
v -0.056315 -1.098579 0.767191
v -0.053377 -1.100384 0.776197
v -0.063408 -1.105984 0.767817
v -0.056315 -1.104343 0.770272
v -0.053377 -1.104356 0.779458
v -0.063408 -1.111483 0.772330
v -0.056315 -1.109396 0.774418
v -0.053377 -1.107616 0.783430
v -0.063408 -1.115997 0.777830
v -0.056315 -1.113542 0.779470
v -0.053377 -1.110038 0.787962
v -0.063408 -1.119350 0.784104
v -0.056315 -1.116623 0.785234
v -0.053377 -1.111530 0.792879
v -0.063408 -1.121416 0.790913
v -0.056315 -1.118520 0.791489
v -0.053377 -1.112034 0.797993
v -0.063408 -1.122113 0.797993
v -0.056315 -1.119161 0.797993
v -0.053377 -1.111530 0.803107
v -0.063408 -1.121416 0.805073
v -0.056315 -1.118520 0.804497
v -0.053377 -1.110038 0.808024
v -0.063408 -1.119350 0.811882
v -0.056315 -1.116623 0.810752
v -0.053377 -1.107616 0.812556
v -0.063408 -1.115997 0.818156
v -0.056315 -1.113542 0.816516
v -0.053377 -1.104356 0.816529
v -0.063408 -1.111483 0.823656
v -0.056315 -1.109396 0.821568
v -0.053377 -1.100384 0.819789
v -0.063408 -1.105984 0.828169
v -0.056315 -1.104343 0.825715
v -0.053377 -1.095852 0.822211
v -0.063408 -1.099709 0.831523
v -0.056315 -1.098579 0.828795
v -0.053377 -1.090934 0.823703
v -0.063408 -1.092901 0.833588
v -0.056315 -1.092325 0.830693
v -0.053377 -1.085821 0.824206
v -0.063408 -1.085820 0.834286
v -0.056315 -1.085821 0.831333
v -0.053377 -1.080707 0.823703
v -0.063408 -1.078740 0.833588
v -0.056315 -1.079316 0.830693
v -0.053377 -1.075789 0.822211
v -0.063408 -1.071932 0.831523
v -0.056315 -1.073062 0.828795
v -0.053377 -1.071257 0.819789
v -0.063408 -1.065657 0.828169
v -0.056315 -1.067298 0.825715
v -0.053377 -1.067285 0.816529
v -0.063408 -1.060158 0.823656
v -0.056315 -1.062245 0.821568
v -0.053377 -1.064025 0.812556
v -0.063408 -1.055644 0.818156
v -0.056315 -1.058099 0.816516
v -0.053377 -1.061603 0.808024
v -0.063408 -1.052291 0.811882
v -0.056315 -1.055018 0.810752
v -0.053377 -1.060111 0.803107
v -0.063408 -1.050225 0.805073
v -0.056315 -1.053121 0.804497
v -0.053377 -1.059607 0.797993
v -0.063408 -1.049528 0.797993
v -0.056315 -1.052480 0.797993
v -0.053377 -1.060111 0.792879
v -0.063408 -1.050225 0.790913
v -0.056315 -1.053121 0.791489
v -0.053377 -1.061603 0.787962
v -0.063408 -1.052291 0.784104
v -0.056315 -1.055018 0.785234
v -0.053377 -1.064025 0.783430
v -0.063408 -1.055644 0.777830
v -0.056315 -1.058099 0.779470
v -0.053377 -1.067285 0.779457
v -0.063408 -1.060158 0.772330
v -0.056315 -1.062245 0.774418
v -0.053377 -1.071257 0.776197
v -0.063408 -1.065657 0.767817
v -0.056315 -1.067298 0.770271
v -0.053377 -1.075789 0.773775
v -0.063408 -1.071932 0.764463
v -0.056315 -1.073062 0.767191
v -0.053377 -1.080707 0.772284
v -0.063408 -1.078740 0.762398
v -0.056315 -1.079316 0.765293
v -0.093540 -1.085820 0.567462
v -0.093540 -1.130795 0.571891
v -0.093540 -1.174041 0.585010
v -0.093540 -1.213897 0.606313
v -0.093540 -1.248831 0.634983
v -0.093540 -1.277500 0.669917
v -0.093540 -1.298804 0.709773
v -0.093540 -1.311922 0.753019
v -0.093540 -1.316352 0.797993
v -0.093540 -1.311922 0.842967
v -0.093540 -1.298804 0.886213
v -0.093540 -1.277500 0.926069
v -0.093540 -1.248831 0.961003
v -0.093540 -1.213897 0.989673
v -0.093540 -1.174041 1.010976
v -0.093540 -1.130795 1.024095
v -0.093540 -1.085820 1.028524
v -0.093540 -1.040846 1.024095
v -0.093540 -0.997600 1.010976
v -0.093540 -0.957744 0.989673
v -0.093540 -0.922810 0.961003
v -0.093540 -0.894140 0.926069
v -0.093540 -0.872837 0.886213
v -0.093540 -0.859719 0.842967
v -0.093540 -0.855289 0.797993
v -0.093540 -0.859719 0.753018
v -0.093540 -0.872837 0.709772
v -0.093540 -0.894141 0.669916
v -0.093540 -0.922810 0.634983
v -0.093540 -0.957744 0.606313
v -0.093540 -0.997600 0.585010
v -0.093540 -1.040846 0.571891
v -0.093540 -1.116307 0.644728
v -0.093540 -1.085820 0.641726
v -0.093540 -1.145621 0.653621
v -0.093540 -1.172638 0.668062
v -0.093540 -1.196318 0.687495
v -0.093540 -1.215752 0.711176
v -0.093540 -1.230192 0.738192
v -0.093540 -1.239085 0.767507
v -0.093540 -1.242088 0.797993
v -0.093540 -1.239085 0.828479
v -0.093540 -1.230192 0.857794
v -0.093540 -1.215752 0.884810
v -0.093540 -1.196318 0.908491
v -0.093540 -1.172638 0.927924
v -0.093540 -1.145621 0.942365
v -0.093540 -1.116306 0.951258
v -0.093540 -1.085820 0.954260
v -0.093540 -1.055334 0.951258
v -0.093540 -1.026019 0.942365
v -0.093540 -0.999003 0.927924
v -0.093540 -0.975323 0.908491
v -0.093540 -0.955889 0.884810
v -0.093540 -0.941448 0.857794
v -0.093540 -0.932556 0.828479
v -0.093540 -0.929553 0.797993
v -0.093540 -0.932556 0.767507
v -0.093540 -0.941448 0.738192
v -0.093540 -0.955889 0.711176
v -0.093540 -0.975323 0.687495
v -0.093540 -0.999003 0.668061
v -0.093540 -1.026020 0.653621
v -0.093540 -1.055334 0.644728
v -0.073004 -1.085820 0.641726
v -0.073003 -1.145621 0.653621
v -0.073003 -1.196318 0.687495
v -0.073003 -1.230192 0.738192
v -0.073003 -1.242088 0.797993
v -0.073003 -1.230192 0.857794
v -0.073003 -1.145621 0.942365
v -0.073003 -1.085820 0.954260
v -0.073003 -1.026019 0.942365
v -0.073003 -0.975323 0.908491
v -0.073004 -0.929553 0.797993
v -0.073004 -0.941448 0.738192
v -0.073004 -0.975323 0.687495
v -0.073004 -1.026020 0.653621
v -0.073003 -1.085821 0.761701
v -0.073003 -1.099709 0.764463
v -0.073003 -1.105984 0.767817
v -0.073003 -1.111483 0.772330
v -0.073003 -1.119350 0.811882
v -0.073003 -1.115997 0.818156
v -0.073003 -1.052291 0.784104
v -0.090359 -1.166474 0.677287
v -0.090359 -1.228203 0.769671
v -0.090359 -1.206527 0.878646
v -0.090359 -1.114142 0.940376
v -0.090359 -1.005167 0.918699
v -0.090359 -0.943437 0.826315
v -0.090359 -0.965114 0.717339
v -0.090359 -1.057499 0.655610
v -0.073003 -1.196318 0.908491
v -0.073004 -0.941448 0.857794
v -0.073003 -1.119350 0.784104
v -0.073003 -1.121416 0.790913
v -0.073003 -1.122113 0.797993
v -0.073003 -1.111483 0.823656
v -0.073003 -1.099709 0.831523
v -0.073003 -1.092901 0.833588
v -0.073003 -1.085820 0.834286
v -0.073003 -1.071932 0.831523
v -0.073003 -1.065657 0.828169
v -0.073003 -1.060158 0.823656
v -0.073003 -1.052291 0.811882
v -0.073003 -1.050225 0.805073
v -0.073003 -1.049528 0.797993
v -0.073003 -1.055644 0.777830
v -0.073003 -1.060158 0.772330
v -0.073003 -1.071932 0.764463
v -0.073003 -1.078740 0.762398
v -0.073003 -1.141375 0.663871
v -0.073003 -1.188473 0.695341
v -0.073003 -1.219942 0.742438
v -0.073003 -1.230993 0.797993
v -0.073003 -1.219942 0.853548
v -0.073003 -1.188473 0.900645
v -0.073003 -1.141375 0.932115
v -0.073003 -1.085820 0.943165
v -0.073003 -1.030265 0.932115
v -0.073003 -0.983168 0.900645
v -0.073004 -0.951698 0.853548
v -0.073004 -0.940648 0.797993
v -0.073004 -0.951699 0.742438
v -0.073004 -0.983168 0.695341
v -0.073004 -1.030266 0.663871
v -0.073004 -1.085820 0.652821
v -0.073003 -1.104552 0.769959
v -0.073003 -1.098723 0.766844
v -0.073003 -1.109661 0.774152
v -0.073003 -1.118888 0.791415
v -0.073003 -1.116970 0.785091
v -0.073003 -1.119536 0.797993
v -0.073003 -1.113854 0.816724
v -0.073003 -1.116970 0.810896
v -0.073003 -1.109661 0.821834
v -0.073003 -1.092398 0.831061
v -0.073003 -1.098723 0.829142
v -0.073003 -1.085820 0.831709
v -0.073003 -1.067089 0.826027
v -0.073003 -1.072918 0.829142
v -0.073003 -1.061980 0.821834
v -0.073003 -1.052752 0.804571
v -0.073003 -1.054671 0.810896
v -0.073003 -1.052105 0.797993
v -0.073003 -1.057787 0.779262
v -0.073003 -1.054671 0.785091
v -0.073003 -1.061980 0.774152
v -0.073003 -1.079243 0.764925
v -0.073003 -1.072918 0.766844
v -0.073003 -1.085821 0.764277
v -0.090359 -1.141375 0.663871
v -0.090359 -1.188473 0.695341
v -0.090359 -1.219942 0.742438
v -0.090359 -1.230993 0.797993
v -0.090359 -1.219942 0.853548
v -0.090359 -1.188473 0.900645
v -0.090359 -1.141375 0.932115
v -0.090359 -1.085820 0.943165
v -0.090359 -1.030265 0.932115
v -0.090359 -0.983168 0.900645
v -0.090359 -0.951698 0.853548
v -0.090359 -0.940648 0.797993
v -0.090359 -0.951699 0.742438
v -0.090359 -0.983168 0.695341
v -0.090359 -1.030266 0.663871
v -0.090359 -1.085820 0.652821
v -0.090359 -1.104552 0.769959
v -0.090359 -1.098723 0.766844
v -0.090359 -1.109661 0.774152
v -0.090359 -1.118888 0.791415
v -0.090359 -1.116970 0.785091
v -0.090359 -1.119536 0.797993
v -0.090359 -1.113854 0.816724
v -0.090359 -1.116970 0.810896
v -0.090359 -1.109661 0.821834
v -0.090359 -1.092398 0.831061
v -0.090359 -1.098723 0.829142
v -0.090359 -1.085820 0.831709
v -0.090359 -1.067089 0.826027
v -0.090359 -1.072918 0.829142
v -0.090359 -1.061980 0.821834
v -0.090359 -1.052752 0.804571
v -0.090359 -1.054671 0.810896
v -0.090359 -1.052105 0.797993
v -0.090359 -1.057787 0.779262
v -0.090359 -1.054671 0.785091
v -0.090359 -1.061980 0.774152
v -0.090359 -1.079243 0.764925
v -0.090359 -1.072918 0.766844
v -0.090359 -1.085821 0.764277
v -0.073004 -1.085820 0.641726
v -0.073003 -1.145621 0.653621
v -0.073003 -1.196318 0.687495
v -0.073003 -1.230192 0.738192
v -0.073003 -1.242088 0.797993
v -0.073003 -1.230192 0.857794
v -0.073003 -1.145621 0.942365
v -0.073003 -1.085820 0.954260
v -0.073003 -1.026019 0.942365
v -0.073003 -0.975323 0.908491
v -0.073004 -0.929553 0.797993
v -0.073004 -0.941448 0.738192
v -0.073004 -0.975323 0.687495
v -0.073004 -1.026020 0.653621
v -0.073003 -1.085821 0.761701
v -0.073003 -1.099709 0.764463
v -0.073003 -1.105984 0.767817
v -0.073003 -1.111483 0.772330
v -0.073003 -1.119350 0.784104
v -0.073003 -1.122113 0.797993
v -0.073003 -1.119350 0.811882
v -0.073003 -1.115997 0.818156
v -0.073003 -1.111483 0.823656
v -0.073003 -1.099709 0.831523
v -0.073003 -1.085820 0.834286
v -0.073003 -1.071932 0.831523
v -0.073003 -1.060158 0.823656
v -0.073003 -1.049528 0.797993
v -0.073003 -1.052291 0.784104
v -0.073003 -1.055644 0.777830
v -0.073003 -1.060158 0.772330
v -0.073003 -1.071932 0.764463
v -0.073003 -1.078740 0.762398
v -0.073003 -1.141375 0.663871
v -0.073003 -1.188473 0.695341
v -0.073003 -1.219942 0.742438
v -0.073003 -1.230993 0.797993
v -0.073003 -1.219942 0.853548
v -0.073003 -1.141375 0.932115
v -0.073003 -1.085820 0.943165
v -0.073003 -1.030265 0.932115
v -0.073003 -0.983168 0.900645
v -0.073004 -0.940648 0.797993
v -0.073004 -0.951699 0.742438
v -0.073004 -0.983168 0.695341
v -0.073004 -1.030266 0.663871
v -0.073004 -1.085820 0.652821
v -0.073003 -1.104552 0.769959
v -0.073003 -1.098723 0.766844
v -0.073003 -1.109661 0.774152
v -0.073003 -1.116970 0.785091
v -0.073003 -1.119536 0.797993
v -0.073003 -1.113854 0.816724
v -0.073003 -1.116970 0.810896
v -0.073003 -1.109661 0.821834
v -0.073003 -1.098723 0.829142
v -0.073003 -1.085820 0.831709
v -0.073003 -1.072918 0.829142
v -0.073003 -1.061980 0.821834
v -0.073003 -1.052105 0.797993
v -0.073003 -1.057787 0.779262
v -0.073003 -1.054671 0.785091
v -0.073003 -1.061980 0.774152
v -0.073003 -1.079243 0.764925
v -0.073003 -1.072918 0.766844
v -0.073003 -1.085821 0.764277
v -0.090359 -1.166474 0.677287
v -0.090359 -1.141375 0.663871
v -0.090359 -1.188473 0.695341
v -0.090359 -1.228203 0.769671
v -0.090359 -1.219942 0.742438
v -0.090359 -1.230993 0.797993
v -0.090359 -1.206527 0.878646
v -0.090359 -1.219942 0.853548
v -0.090359 -1.188473 0.900645
v -0.090359 -1.114142 0.940376
v -0.090359 -1.141375 0.932115
v -0.090359 -1.085820 0.943165
v -0.090359 -1.005167 0.918699
v -0.090359 -1.030265 0.932115
v -0.090359 -0.983168 0.900645
v -0.090359 -0.943437 0.826315
v -0.090359 -0.951698 0.853548
v -0.090359 -0.940648 0.797993
v -0.090359 -0.965114 0.717339
v -0.090359 -0.951699 0.742438
v -0.090359 -0.983168 0.695341
v -0.090359 -1.057499 0.655610
v -0.090359 -1.030266 0.663871
v -0.090359 -1.085820 0.652821
v -0.090359 -1.104552 0.769959
v -0.090359 -1.098723 0.766844
v -0.090359 -1.109661 0.774152
v -0.090359 -1.118888 0.791415
v -0.090359 -1.116970 0.785091
v -0.090359 -1.119536 0.797993
v -0.090359 -1.113854 0.816724
v -0.090359 -1.116970 0.810896
v -0.090359 -1.109661 0.821834
v -0.090359 -1.092398 0.831061
v -0.090359 -1.098723 0.829142
v -0.090359 -1.085820 0.831709
v -0.090359 -1.067089 0.826027
v -0.090359 -1.072918 0.829142
v -0.090359 -1.061980 0.821834
v -0.090359 -1.052752 0.804571
v -0.090359 -1.054671 0.810896
v -0.090359 -1.052105 0.797993
v -0.090359 -1.057787 0.779262
v -0.090359 -1.054671 0.785091
v -0.090359 -1.061980 0.774152
v -0.090359 -1.072918 0.766844
v -0.090359 -1.085821 0.764277
vn 1.0000 -0.0000 -0.0000
vn -0.0000 -0.0000 -1.0000
vn -0.0000 -0.1951 -0.9808
vn -0.0000 -0.3827 -0.9239
vn -0.0000 -0.5556 -0.8315
vn -0.0000 -0.7071 -0.7071
vn -0.0000 -0.8315 -0.5556
vn -0.0000 -0.9239 -0.3827
vn -0.0000 -0.9808 -0.1951
vn -0.0000 -1.0000 -0.0000
vn -0.0000 -0.9808 0.1951
vn -0.0000 -0.9239 0.3827
vn -0.0000 -0.8315 0.5556
vn -0.0000 -0.7071 0.7071
vn -0.0000 -0.5556 0.8315
vn -0.0000 -0.3827 0.9239
vn -0.0000 -0.1951 0.9808
vn -0.0000 -0.0000 1.0000
vn -0.0000 0.1951 0.9808
vn -0.0000 0.3827 0.9239
vn -0.0000 0.5556 0.8315
vn -0.0000 0.7071 0.7071
vn -0.0000 0.8315 0.5556
vn -0.0000 0.9239 0.3827
vn -0.0000 0.9808 0.1951
vn -0.0000 1.0000 -0.0000
vn -0.0000 0.9808 -0.1951
vn -0.0000 0.9239 -0.3827
vn -0.0000 0.8315 -0.5556
vn -0.0000 0.7071 -0.7071
vn -0.0000 0.5556 -0.8315
vn -0.0000 0.3827 -0.9239
vn -0.0000 0.1951 -0.9808
vn -1.0000 -0.0000 -0.0000
vn 0.1936 0.1914 0.9622
vn 0.1936 0.3754 0.9064
vn 0.9775 0.2085 -0.0323
vn -0.0000 -0.3824 -0.9240
vn 0.1936 -0.1914 -0.9622
vn 0.1936 -0.3754 -0.9064
vn 0.1936 -0.6937 -0.6937
vn 0.1936 -0.8157 -0.5450
vn 0.1936 0.5450 0.8157
vn 0.1936 -0.9064 -0.3754
vn -0.0000 -0.3829 -0.9238
vn 0.1936 -0.5450 -0.8157
vn 0.1936 0.6937 0.6937
vn 0.1936 -0.9622 -0.1914
vn 0.1936 0.8157 0.5450
vn 0.1936 -0.9811 -0.0000
vn 0.1936 0.9064 0.3754
vn 0.1936 -0.9622 0.1914
vn 0.1936 0.9622 0.1914
vn -0.0000 -0.9240 0.3824
vn 0.1936 -0.9064 0.3754
vn 0.1936 0.9811 -0.0000
vn -0.0000 -0.9238 0.3829
vn 0.1936 -0.8157 0.5450
vn 0.1936 0.9622 -0.1914
vn 0.1936 -0.6937 0.6937
vn -0.0000 0.9240 -0.3824
vn 0.1936 0.9064 -0.3754
vn 0.1936 -0.5450 0.8157
vn -0.0000 0.9238 -0.3829
vn 0.1936 0.8157 -0.5450
vn 0.1936 -0.3754 0.9064
vn 0.1936 0.6937 -0.6937
vn 0.1936 -0.1914 0.9622
vn 0.9786 -0.0402 -0.2019
vn 0.9786 -0.0000 -0.2059
vn 0.9786 0.0402 -0.2019
vn 0.9786 0.0788 -0.1902
vn 0.9786 0.1144 -0.1712
vn 0.9786 0.1456 -0.1456
vn 0.9786 0.1712 -0.1144
vn 0.9786 0.1902 -0.0788
vn 0.9786 0.2019 -0.0402
vn 0.9786 0.2059 -0.0000
vn 0.9786 0.2019 0.0402
vn 0.9786 0.1902 0.0788
vn 0.9786 0.1712 0.1144
vn 0.9786 0.1456 0.1456
vn 0.9786 0.1144 0.1712
vn 0.9786 0.0788 0.1902
vn 0.9786 0.0402 0.2019
vn 0.9786 -0.0000 0.2059
vn 0.9786 -0.0402 0.2019
vn 0.9786 -0.0788 0.1902
vn 0.9786 -0.1144 0.1712
vn 0.9786 -0.1456 0.1456
vn 0.9786 -0.1712 0.1144
vn 0.9786 -0.1902 0.0788
vn 0.9786 -0.2019 0.0402
vn 0.9786 -0.2059 -0.0000
vn 0.9786 -0.2019 -0.0402
vn 0.9786 -0.1902 -0.0788
vn 0.9786 -0.1712 -0.1144
vn 0.9786 -0.1456 -0.1456
vn 0.9786 -0.1144 -0.1712
vn 0.9786 -0.0788 -0.1902
vn 0.1936 0.5450 -0.8157
vn 0.1936 -0.0000 0.9811
vn -0.0000 0.1948 -0.9808
vn 0.1936 0.1914 -0.9622
vn 0.1936 -0.0000 -0.9811
vn 0.1936 0.3754 -0.9064
vn -0.0000 0.1953 -0.9807
vn -0.0000 0.6344 0.7730
vn -0.0000 -0.2903 0.9569
vn -0.0000 0.4714 0.8819
vn -0.0000 -0.7730 0.6344
vn -0.0000 -0.8819 0.4714
vn -0.0000 -0.9952 -0.0980
vn 0.9775 -0.1781 0.1132
vn -0.0000 -0.0980 0.9952
vn -0.0000 0.9569 0.2903
vn -0.0000 0.9952 0.0980
vn -0.0000 0.8819 -0.4714
vn -0.0000 0.7730 -0.6344
vn -0.0000 0.2903 -0.9569
vn -0.0000 0.0980 -0.9952
vn -0.0000 -0.4714 -0.8819
vn -0.0000 -0.6344 -0.7730
vn -0.0000 -0.9569 -0.2903
vn 0.3842 -0.0000 -0.9232
vn 0.3842 -0.1801 -0.9055
vn 0.9245 -0.0743 -0.3738
vn 0.9245 -0.0000 -0.3811
vn 0.3843 -0.3533 -0.8529
vn 0.9245 -0.1459 -0.3521
vn 0.3843 -0.5129 -0.7676
vn 0.9245 -0.2118 -0.3169
vn 0.3843 -0.6528 -0.6528
vn 0.9245 -0.2695 -0.2695
vn 0.3843 -0.7676 -0.5129
vn 0.9245 -0.3169 -0.2117
vn 0.3843 -0.8530 -0.3533
vn 0.9245 -0.3521 -0.1458
vn 0.3843 -0.9055 -0.1801
vn 0.9245 -0.3738 -0.0744
vn 0.3843 -0.9232 -0.0000
vn 0.9245 -0.3811 -0.0000
vn 0.3843 -0.9055 0.1801
vn 0.9245 -0.3738 0.0744
vn 0.3843 -0.8530 0.3533
vn 0.9245 -0.3521 0.1458
vn 0.3843 -0.7676 0.5129
vn 0.9245 -0.3169 0.2117
vn 0.3843 -0.6528 0.6528
vn 0.9245 -0.2695 0.2695
vn 0.3843 -0.5129 0.7676
vn 0.9245 -0.2117 0.3169
vn 0.3843 -0.3533 0.8529
vn 0.9245 -0.1459 0.3521
vn 0.3843 -0.1801 0.9055
vn 0.9245 -0.0744 0.3738
vn 0.3843 -0.0000 0.9232
vn 0.9245 -0.0000 0.3811
vn 0.3843 0.1801 0.9055
vn 0.9245 0.0743 0.3738
vn 0.3843 0.3533 0.8529
vn 0.9245 0.1459 0.3521
vn 0.3843 0.5129 0.7676
vn 0.9245 0.2117 0.3169
vn 0.3843 0.6528 0.6528
vn 0.9245 0.2695 0.2695
vn 0.3843 0.7676 0.5129
vn 0.9245 0.3169 0.2117
vn 0.3843 0.8530 0.3533
vn 0.9245 0.3521 0.1458
vn 0.3843 0.9055 0.1801
vn 0.9245 0.3738 0.0744
vn 0.3843 0.9232 -0.0000
vn 0.9245 0.3811 -0.0000
vn 0.3843 0.9055 -0.1801
vn 0.9245 0.3738 -0.0744
vn 0.3843 0.8530 -0.3533
vn 0.9245 0.3521 -0.1458
vn 0.3843 0.7676 -0.5129
vn 0.9245 0.3169 -0.2117
vn 0.3843 0.6528 -0.6528
vn 0.9245 0.2695 -0.2695
vn 0.3843 0.5129 -0.7676
vn 0.9245 0.2117 -0.3169
vn 0.3843 0.3533 -0.8529
vn 0.9245 0.1458 -0.3521
vn 0.3842 0.1801 -0.9055
vn 0.9245 0.0743 -0.3738
vn -0.0000 0.9808 0.1950
vn -0.0000 0.9952 0.0979
vn -0.0000 0.5555 0.8315
vn -0.0000 0.4713 0.8820
vn 0.9775 0.1965 -0.0768
vn 0.9476 0.3156 -0.0488
vn -0.0012 -0.8552 -0.5183
vn -0.0246 -0.8576 -0.5137
vn -0.0486 -0.8596 -0.5086
vn -0.0246 -0.8577 -0.5136
vn -0.0000 0.8316 -0.5554
vn -0.0000 0.8313 -0.5558
vn -0.0000 0.7731 -0.6343
vn -0.0000 -0.4713 -0.8820
vn -0.0000 -0.5555 -0.8315
vn -0.0000 -0.9570 -0.2902
vn -0.0000 -0.8819 0.4715
vn -0.0000 -0.7731 0.6343
vn 0.3425 -0.9251 -0.1639
vn 0.5761 -0.8036 -0.1492
vn 0.7042 -0.6971 -0.1349
vn 0.5761 -0.8036 -0.1495
vn 0.9881 -0.0000 0.1536
vn -0.7457 0.6572 -0.1098
vn -0.7316 0.6724 -0.1125
vn -0.7457 0.6572 -0.1099
vn -0.7585 0.6428 -0.1073
vn -0.9800 0.0525 0.1917
vn -0.9902 0.0373 0.1347
vn -0.9787 0.0542 0.1978
vn 0.7021 -0.7021 -0.1187
vn 0.7018 -0.7018 -0.1220
vn 0.7016 -0.7015 -0.1251
vn -0.0999 -0.0097 -0.9949
vn -0.0999 0.0001 -0.9950
vn -0.1000 0.0115 -0.9949
vn -0.0999 -0.0000 -0.9950
vn 0.9978 -0.0668 -0.0000
vn 0.9669 -0.0325 -0.2531
vn 0.9583 -0.0393 -0.2831
vn 0.9485 -0.0463 -0.3132
vn 0.9583 -0.0394 -0.2831
vn 0.9802 -0.0000 0.1978
vn 0.0185 -0.0078 0.9998
vn 0.0507 -0.0036 0.9987
vn -0.0154 -0.0121 0.9998
vn -0.9883 -0.0000 0.1526
vn -0.0000 0.0001 1.0000
vn -0.0000 -1.0000 0.0001
vn -0.0000 1.0000 -0.0001
vn -0.0000 -0.0000 -0.0000
vt 0.369233 0.145477
vt 0.367804 0.150187
vt 0.349992 0.142810
vt 0.350324 0.141716
vt 0.369715 0.140578
vt 0.350436 0.140578
vt 0.384480 0.140578
vt 0.383714 0.132798
vt 0.381445 0.125318
vt 0.377760 0.118424
vt 0.372801 0.112381
vt 0.366758 0.107422
vt 0.359864 0.103737
vt 0.352383 0.101468
vt 0.344604 0.100702
vt 0.336825 0.101468
vt 0.329344 0.103737
vt 0.322450 0.107422
vt 0.316407 0.112381
vt 0.311448 0.118424
vt 0.307763 0.125318
vt 0.305494 0.132799
vt 0.305494 0.132798
vt 0.304728 0.140578
vt 0.305494 0.148357
vt 0.307763 0.155838
vt 0.311448 0.162732
vt 0.316407 0.168775
vt 0.322450 0.173734
vt 0.329344 0.177419
vt 0.336825 0.179688
vt 0.344604 0.180454
vt 0.352383 0.179688
vt 0.359864 0.177419
vt 0.366758 0.173734
vt 0.372801 0.168774
vt 0.377760 0.162732
vt 0.381445 0.155838
vt 0.383714 0.148357
vt 0.321544 0.037659
vt 0.325225 0.033175
vt 0.318810 0.042775
vt 0.340436 0.050282
vt 0.339800 0.051470
vt 0.362591 0.078706
vt 0.357475 0.081441
vt 0.375175 0.048327
vt 0.375743 0.054100
vt 0.367076 0.075026
vt 0.317126 0.048327
vt 0.373491 0.042775
vt 0.370756 0.070541
vt 0.316557 0.054100
vt 0.370756 0.037659
vt 0.373491 0.065425
vt 0.317126 0.059873
vt 0.367076 0.033175
vt 0.375175 0.059873
vt 0.318810 0.065425
vt 0.362591 0.029494
vt 0.321544 0.070541
vt 0.357475 0.026760
vt 0.325225 0.075026
vt 0.351923 0.025076
vt 0.329709 0.078706
vt 0.346150 0.024507
vt 0.334825 0.081441
vt 0.340377 0.025076
vt 0.340377 0.083125
vt 0.334825 0.026760
vt 0.346150 0.083693
vt 0.329709 0.029494
vt 0.351924 0.083125
vt 0.351728 0.119203
vt 0.351743 0.119190
vt 0.351778 0.119282
vt 0.351776 0.119278
vt 0.353023 0.054100
vt 0.352891 0.052759
vt 0.369009 0.038826
vt 0.365590 0.034660
vt 0.352500 0.051470
vt 0.351010 0.058960
vt 0.351865 0.057919
vt 0.352500 0.056730
vt 0.339277 0.054100
vt 0.339409 0.055441
vt 0.371550 0.043579
vt 0.339800 0.056730
vt 0.351010 0.049240
vt 0.349969 0.048386
vt 0.348780 0.047750
vt 0.319186 0.048737
vt 0.318658 0.054100
vt 0.341290 0.058960
vt 0.342332 0.059815
vt 0.343520 0.060450
vt 0.346150 0.047227
vt 0.344809 0.047359
vt 0.320751 0.043579
vt 0.343520 0.047750
vt 0.361424 0.076959
vt 0.365590 0.073540
vt 0.346150 0.060973
vt 0.347491 0.060841
vt 0.348780 0.060450
vt 0.341290 0.049240
vt 0.351821 0.119265
vt 0.351822 0.119269
vt 0.351812 0.119254
vt 0.351816 0.119257
vt 0.351780 0.119286
vt 0.351819 0.119261
vt 0.351783 0.119290
vt 0.351804 0.119251
vt 0.351808 0.119252
vt 0.351799 0.119250
vt 0.351790 0.119295
vt 0.351786 0.119293
vt 0.351795 0.119251
vt 0.344809 0.060841
vt 0.351790 0.119252
vt 0.351799 0.119297
vt 0.351795 0.119296
vt 0.351786 0.119254
vt 0.351804 0.119296
vt 0.342332 0.048386
vt 0.351780 0.119261
vt 0.351783 0.119257
vt 0.351812 0.119293
vt 0.351808 0.119295
vt 0.351778 0.119265
vt 0.349969 0.059815
vt 0.351776 0.119269
vt 0.351019 0.053132
vt 0.351114 0.054100
vt 0.351019 0.055069
vt 0.350736 0.056000
vt 0.350278 0.056858
vt 0.349660 0.057610
vt 0.348908 0.058228
vt 0.348050 0.058686
vt 0.347119 0.058969
vt 0.346150 0.059064
vt 0.345182 0.058969
vt 0.344251 0.058686
vt 0.343392 0.058228
vt 0.342640 0.057610
vt 0.342023 0.056858
vt 0.341564 0.056000
vt 0.341281 0.055069
vt 0.341186 0.054100
vt 0.341281 0.053132
vt 0.341564 0.052200
vt 0.342023 0.051342
vt 0.342640 0.050590
vt 0.343392 0.049973
vt 0.344251 0.049514
vt 0.345182 0.049231
vt 0.346150 0.049136
vt 0.347119 0.049231
vt 0.348050 0.049514
vt 0.348908 0.049973
vt 0.349660 0.050590
vt 0.350278 0.051342
vt 0.350736 0.052200
vt 0.351819 0.119286
vt 0.351816 0.119290
vt 0.339409 0.052759
vt 0.352891 0.055441
vt 0.351821 0.119282
vt 0.351822 0.119278
vt 0.373114 0.059464
vt 0.371550 0.064621
vt 0.356671 0.079500
vt 0.351799 0.119367
vt 0.351781 0.119365
vt 0.373642 0.054100
vt 0.320751 0.064621
vt 0.323291 0.069374
vt 0.326710 0.073540
vt 0.356671 0.028701
vt 0.351514 0.027136
vt 0.346150 0.026608
vt 0.335629 0.079500
vt 0.340787 0.081064
vt 0.346150 0.081592
vt 0.335629 0.028701
vt 0.330876 0.031241
vt 0.326710 0.034660
vt 0.351747 0.119196
vt 0.351763 0.119187
vt 0.351708 0.119255
vt 0.351713 0.119238
vt 0.351763 0.119360
vt 0.351822 0.119274
vt 0.351821 0.119274
vt 0.351820 0.119269
vt 0.352343 0.052868
vt 0.352464 0.054100
vt 0.351819 0.119265
vt 0.351983 0.051684
vt 0.351865 0.050282
vt 0.351400 0.050592
vt 0.350615 0.049636
vt 0.351814 0.119258
vt 0.351817 0.119262
vt 0.351813 0.119264
vt 0.351811 0.119262
vt 0.349658 0.048850
vt 0.351811 0.119256
vt 0.351807 0.119254
vt 0.348566 0.048267
vt 0.347491 0.047359
vt 0.347382 0.047908
vt 0.346150 0.047786
vt 0.344918 0.047908
vt 0.351795 0.119253
vt 0.351799 0.119252
vt 0.351799 0.119257
vt 0.351796 0.119257
vt 0.343734 0.048267
vt 0.342642 0.048850
vt 0.341686 0.049636
vt 0.351784 0.119258
vt 0.351781 0.119262
vt 0.340900 0.050592
vt 0.340317 0.051684
vt 0.339958 0.052868
vt 0.351776 0.119274
vt 0.351778 0.119269
vt 0.351778 0.119274
vt 0.339836 0.054100
vt 0.351778 0.119278
vt 0.339958 0.055332
vt 0.351779 0.119282
vt 0.351783 0.119277
vt 0.351784 0.119280
vt 0.340436 0.057919
vt 0.340317 0.056516
vt 0.340900 0.057608
vt 0.341686 0.058565
vt 0.351784 0.119289
vt 0.351787 0.119291
vt 0.342642 0.059350
vt 0.343734 0.059933
vt 0.344918 0.060293
vt 0.351795 0.119295
vt 0.351791 0.119293
vt 0.351793 0.119289
vt 0.351796 0.119290
vt 0.346150 0.060414
vt 0.347382 0.060293
vt 0.351803 0.119295
vt 0.351807 0.119293
vt 0.348566 0.059933
vt 0.349658 0.059350
vt 0.351811 0.119291
vt 0.351814 0.119289
vt 0.350615 0.058565
vt 0.351400 0.057608
vt 0.351983 0.056516
vt 0.352343 0.055332
vt 0.351820 0.119278
vt 0.322129 0.125561
vt 0.319631 0.130234
vt 0.371634 0.140578
vt 0.371115 0.135305
vt 0.334260 0.165551
vt 0.339331 0.167089
vt 0.371115 0.145851
vt 0.339331 0.114067
vt 0.334260 0.115605
vt 0.319631 0.150922
vt 0.322129 0.155595
vt 0.359621 0.163053
vt 0.363717 0.159691
vt 0.359621 0.118103
vt 0.354948 0.115605
vt 0.318093 0.135305
vt 0.344604 0.167608
vt 0.369577 0.130234
vt 0.329587 0.118103
vt 0.325491 0.159691
vt 0.367079 0.155595
vt 0.349877 0.114067
vt 0.317574 0.140578
vt 0.349877 0.167089
vt 0.367079 0.125561
vt 0.325491 0.121465
vt 0.329587 0.163053
vt 0.369577 0.150922
vt 0.344604 0.113548
vt 0.318093 0.145851
vt 0.354948 0.165551
vt 0.363717 0.121465
vt 0.351803 0.119252
vt 0.351781 0.119286
vt 0.351819 0.119282
vt 0.350665 0.049585
vt 0.351733 0.119208
vt 0.351799 0.119295
vt 0.352049 0.056543
vt 0.351791 0.119294
vt 0.346150 0.060485
vt 0.339765 0.054100
vt 0.343707 0.048201
vt 0.341635 0.049585
vt 0.351815 0.119289
vt 0.351811 0.119292
vt 0.351779 0.119265
vt 0.343707 0.059999
vt 0.351807 0.119294
vt 0.348594 0.059999
vt 0.351817 0.119261
vt 0.340251 0.056543
vt 0.351815 0.119258
vt 0.348594 0.048201
vt 0.340251 0.051657
vt 0.341635 0.058615
vt 0.352535 0.054100
vt 0.351791 0.119254
vt 0.351787 0.119256
vt 0.346150 0.047715
vt 0.350665 0.058615
vt 0.352049 0.051657
vt 0.338804 0.138176
vt 0.339216 0.138346
vt 0.321404 0.130968
vt 0.344604 0.146856
vt 0.344604 0.165689
vt 0.344604 0.146410
vt 0.349043 0.136139
vt 0.362360 0.122822
vt 0.348728 0.136454
vt 0.342202 0.134778
vt 0.342372 0.135190
vt 0.334994 0.117378
vt 0.350761 0.141803
vt 0.350882 0.140578
vt 0.349824 0.137090
vt 0.349453 0.137338
vt 0.350404 0.142980
vt 0.338804 0.142980
vt 0.339216 0.142810
vt 0.321404 0.150188
vt 0.347006 0.146378
vt 0.346836 0.145966
vt 0.354214 0.163778
vt 0.347006 0.134778
vt 0.346836 0.135190
vt 0.354214 0.117378
vt 0.341116 0.135358
vt 0.341364 0.135729
vt 0.349043 0.145017
vt 0.362360 0.158334
vt 0.348728 0.144702
vt 0.340165 0.145017
vt 0.326848 0.158334
vt 0.340480 0.144702
vt 0.340165 0.136139
vt 0.340480 0.136454
vt 0.350404 0.138176
vt 0.349992 0.138346
vt 0.367804 0.130968
vt 0.348092 0.145798
vt 0.347844 0.145427
vt 0.344604 0.134300
vt 0.344604 0.115467
vt 0.344604 0.134746
vt 0.338326 0.140578
vt 0.319493 0.140578
vt 0.338772 0.140578
vt 0.358555 0.161457
vt 0.319975 0.135679
vt 0.338884 0.139440
vt 0.365483 0.126627
vt 0.323725 0.154529
vt 0.339755 0.143818
vt 0.349503 0.115949
vt 0.345742 0.134858
vt 0.339705 0.165206
vt 0.334994 0.163778
vt 0.342372 0.145966
vt 0.343466 0.146298
vt 0.330653 0.119699
vt 0.326848 0.122822
s 1
usemtl Material.003
f 1/1/1 2/2/1 5/3/1 4/4/1
f 3/5/1 1/1/1 4/4/1 6/6/1
f 7/7/2 8/7/2 10/8/3 9/8/3
f 9/8/3 10/8/3 12/9/4 11/9/4
f 11/9/4 12/9/4 14/10/5 13/10/5
f 13/10/5 14/10/5 16/11/6 15/11/6
f 15/11/6 16/11/6 18/12/7 17/12/7
f 17/12/7 18/12/7 20/13/8 19/13/8
f 19/13/8 20/13/8 22/14/9 21/14/9
f 21/14/9 22/14/9 24/15/10 23/15/10
f 23/15/10 24/15/10 26/16/11 25/16/11
f 25/16/11 26/16/11 28/17/12 27/17/12
f 27/17/12 28/17/12 30/18/13 29/18/13
f 29/18/13 30/18/13 32/19/14 31/19/14
f 31/19/14 32/19/14 34/20/15 33/20/15
f 33/20/15 34/20/15 36/21/16 35/21/16
f 35/21/16 36/21/16 38/22/17 37/23/17
f 37/23/17 38/22/17 40/24/18 39/24/18
f 39/24/18 40/24/18 42/25/19 41/25/19
f 41/25/19 42/25/19 44/26/20 43/26/20
f 43/26/20 44/26/20 46/27/21 45/27/21
f 45/27/21 46/27/21 48/28/22 47/28/22
f 47/28/22 48/28/22 50/29/23 49/29/23
f 49/29/23 50/29/23 52/30/24 51/30/24
f 51/30/24 52/30/24 54/31/25 53/31/25
f 53/31/25 54/31/25 56/32/26 55/32/26
f 55/32/26 56/32/26 58/33/27 57/33/27
f 57/33/27 58/33/27 60/34/28 59/34/28
f 59/34/28 60/34/28 62/35/29 61/35/29
f 61/35/29 62/35/29 64/36/30 63/36/30
f 63/36/30 64/36/30 66/37/31 65/37/31
f 65/37/31 66/37/31 68/38/32 67/38/32
f 67/38/32 68/38/32 70/39/33 69/39/33
f 69/39/33 70/39/33 8/7/2 7/7/2
f 7/7/34 9/8/34 11/9/34 13/10/34 15/11/34 17/12/34 19/13/34 21/14/34 23/15/34 25/16/34 27/17/34 29/18/34 31/19/34 33/20/34 35/21/34 37/23/34 39/24/34 41/25/34 43/26/34 45/27/34 47/28/34 49/29/34 51/30/34 53/31/34 55/32/34 57/33/34 59/34/34 61/35/34 63/36/34 65/37/34 67/38/34 69/39/34
f 84/40/15 83/41/14 115/41/14 116/40/15
f 117/42/1 116/40/1 148/43/1 149/44/1
f 98/45/29 97/46/28 129/46/28 130/45/29
f 85/42/16 84/40/15 116/40/15 117/42/16
f 71/47/3 72/48/2 104/48/2 103/47/3
f 99/49/30 98/45/29 130/45/29 131/49/30
f 86/50/17 85/42/16 117/42/16 118/50/17
f 73/51/4 71/47/3 103/47/3 105/51/4
f 100/52/31 99/49/30 131/49/30 132/52/31
f 87/53/18 86/50/17 118/50/17 119/53/18
f 74/54/5 73/51/4 105/51/4 106/54/5
f 101/55/32 100/52/31 132/52/31 133/55/32
f 88/56/19 87/53/18 119/53/18 120/56/19
f 75/57/6 74/54/5 106/54/5 107/57/6
f 102/58/33 101/55/32 133/55/32 134/58/33
f 89/59/20 88/56/19 120/56/19 121/59/20
f 76/60/7 75/57/6 107/57/6 108/60/7
f 72/48/2 102/58/33 134/58/33 104/48/2
f 90/61/21 89/59/20 121/59/20 122/61/21
f 77/62/8 76/60/7 108/60/7 109/62/8
f 91/63/22 90/61/21 122/61/21 123/63/22
f 78/64/9 77/62/8 109/62/8 110/64/9
f 92/65/23 91/63/22 123/63/22 124/65/23
f 79/66/10 78/64/9 110/64/9 111/66/10
f 93/67/24 92/65/23 124/65/23 125/67/24
f 80/68/11 79/66/10 111/66/10 112/68/11
f 94/69/25 93/67/24 125/67/24 126/69/25
f 81/70/12 80/68/11 112/68/11 113/70/12
f 95/71/26 94/69/25 126/69/25 127/71/26
f 82/72/13 81/70/12 113/70/12 114/72/13
f 96/73/27 95/71/26 127/71/26 128/73/27
f 83/74/14 82/75/13 114/75/13 115/74/14
f 97/46/28 96/73/27 128/73/27 129/46/28
f 153/76/20 152/77/19 291/77/35 294/76/36
f 103/47/1 104/48/1 136/78/1 135/79/1
f 107/57/1 106/54/1 167/80/1 169/81/1
f 105/51/1 103/47/1 135/79/1 137/82/1
f 132/52/1 131/49/1 163/83/1 164/84/1
f 133/55/1 132/52/1 164/84/1 165/85/1
f 120/56/1 119/53/1 151/86/1 152/87/1
f 106/54/1 105/51/1 168/88/1 167/80/1
f 121/59/1 120/56/1 152/87/1 153/89/1
f 108/60/1 107/57/1 139/90/1 140/91/1
f 109/62/1 108/60/1 140/91/1 141/92/1
f 119/53/1 118/50/1 176/93/1 178/94/1
f 124/65/1 123/63/1 155/95/1 156/96/1
f 125/67/1 124/65/1 156/96/1 157/97/1
f 112/68/1 111/66/1 143/98/1 144/99/1
f 118/50/1 117/42/1 177/100/1 176/93/1
f 113/70/1 112/68/1 144/99/1 145/101/1
f 131/49/1 130/45/1 185/102/1 187/103/1
f 128/73/1 127/71/1 159/104/1 160/105/1
f 129/46/1 128/73/1 160/105/1 161/106/1
f 116/40/1 115/41/1 147/107/37 148/43/1
f 137/108/38 135/109/3 240/109/39 246/108/40
f 140/110/7 139/111/6 252/111/41 255/110/42
f 154/112/21 153/76/20 294/76/36 297/112/43
f 141/92/8 140/91/7 255/91/42 258/92/44
f 138/113/5 137/108/45 246/108/40 249/113/46
f 155/114/22 154/112/21 297/112/43 300/114/47
f 142/115/9 141/116/8 258/116/44 261/115/48
f 156/96/23 155/95/22 300/95/47 303/96/49
f 143/117/10 142/115/9 261/115/48 264/117/50
f 157/118/24 156/119/23 303/119/49 306/118/51
f 144/120/11 143/117/10 264/117/50 267/120/52
f 158/121/25 157/97/24 306/97/51 309/121/53
f 145/122/54 144/120/11 267/120/52 270/122/55
f 159/123/26 158/124/25 309/124/53 312/123/56
f 146/125/13 145/122/57 270/122/55 273/125/58
f 160/126/27 159/123/26 312/123/56 315/126/59
f 147/107/14 146/127/13 273/127/58 276/107/60
f 161/106/61 160/105/27 315/105/59 318/106/62
f 148/128/15 147/129/14 276/129/60 279/128/63
f 162/130/29 161/131/64 318/131/62 321/130/65
f 149/132/16 148/128/15 279/128/63 282/132/66
f 163/83/30 162/133/29 321/133/65 324/83/67
f 150/134/17 149/132/16 282/132/66 285/134/68
f 239/135/69 243/136/70 332/137/71 329/138/72 326/139/73 323/140/74 320/141/75 317/142/76 314/143/77 311/144/78 308/145/79 305/146/80 302/147/81 299/148/82 296/149/83 293/150/84 290/151/85 287/152/86 284/153/87 281/154/88 278/155/89 275/156/90 272/157/91 269/158/92 266/159/93 263/160/94 260/161/95 257/162/96 254/163/97 251/164/98 248/165/99 245/166/100
f 164/167/31 163/168/30 324/168/67 327/167/101
f 151/86/18 150/169/17 285/169/68 288/86/102
f 136/78/2 166/170/103 333/170/104 242/78/105
f 165/171/32 164/167/31 327/167/101 330/171/106
f 152/87/19 151/86/18 288/86/102 291/87/35
f 139/111/6 138/113/5 249/113/46 252/111/41
f 166/172/107 165/171/32 330/171/106 333/172/104
f 169/81/108 167/80/21 191/80/21 193/81/108
f 188/173/17 189/174/109 213/174/109 212/173/17
f 167/80/21 168/88/110 192/88/110 191/80/21
f 187/103/111 185/102/13 209/102/13 211/103/111
f 185/102/13 186/175/112 210/175/112 209/102/13
f 184/176/113 182/177/9 206/177/9 208/176/113
f 134/58/1 133/55/1 189/174/1 188/173/1
f 104/48/1 134/58/1 188/173/1 190/178/1
f 122/61/1 121/59/1 180/179/1 179/180/1
f 123/63/1 122/61/1 179/180/1 181/181/1
f 110/64/1 109/62/1 171/182/1 170/183/1
f 111/66/1 110/64/1 170/183/1 172/184/1
f 126/69/1 125/67/1 183/185/1 182/186/1
f 127/71/1 126/69/1 182/186/1 184/187/1
f 114/72/1 113/70/1 174/188/1 173/189/1
f 115/41/1 114/72/1 173/189/1 175/190/114
f 130/45/1 129/46/1 186/175/1 185/102/1
f 190/178/115 188/173/17 212/173/17 214/178/115
f 170/183/25 171/182/116 195/182/116 194/183/25
f 172/184/117 170/183/25 194/183/25 196/184/117
f 173/191/29 174/192/118 198/192/118 197/191/29
f 175/190/119 173/189/29 197/189/29 199/190/119
f 176/193/33 177/194/120 201/194/120 200/193/33
f 178/94/121 176/93/33 200/93/33 202/94/121
f 179/180/5 180/179/122 204/179/122 203/180/5
f 181/181/123 179/180/5 203/180/5 205/181/123
f 182/177/9 183/195/124 207/195/124 206/177/9
f 240/109/39 242/196/105 244/197/125 241/198/126
f 241/199/127 244/200/128 243/136/70 239/135/69
f 246/108/40 240/109/39 241/198/126 247/201/129
f 247/202/130 241/199/127 239/135/69 245/166/100
f 249/203/46 246/82/40 247/202/129 250/204/131
f 250/204/132 247/202/130 245/166/100 248/165/99
f 252/90/41 249/203/46 250/204/131 253/205/133
f 253/206/134 250/207/132 248/208/99 251/209/98
f 255/91/42 252/90/41 253/205/133 256/210/135
f 256/210/136 253/205/134 251/164/98 254/163/97
f 258/116/44 255/110/42 256/211/135 259/212/137
f 259/213/138 256/210/136 254/163/97 257/162/96
f 261/214/48 258/92/44 259/213/137 262/215/139
f 262/215/140 259/213/138 257/162/96 260/161/95
f 264/98/50 261/214/48 262/215/139 265/216/141
f 265/216/142 262/215/140 260/161/95 263/160/94
f 267/99/52 264/98/50 265/216/141 268/217/143
f 268/218/144 265/219/142 263/220/94 266/221/93
f 270/101/55 267/99/52 268/217/143 271/222/145
f 271/222/146 268/217/144 266/159/93 269/158/92
f 273/127/58 270/101/55 271/222/145 274/223/147
f 274/223/148 271/222/146 269/158/92 272/157/91
f 276/107/60 273/127/58 274/223/147 277/224/149
f 277/224/150 274/223/148 272/157/91 275/156/90
f 279/128/63 276/129/60 277/225/149 280/226/151
f 280/227/152 277/224/150 275/156/90 278/155/89
f 282/44/66 279/43/63 280/227/151 283/228/153
f 283/228/154 280/227/152 278/155/89 281/154/88
f 285/169/68 282/44/66 283/228/153 286/229/155
f 286/229/156 283/228/154 281/154/88 284/153/87
f 288/230/102 285/134/68 286/231/155 289/232/157
f 289/233/158 286/229/156 284/153/87 287/152/86
f 291/77/35 288/230/102 289/232/157 292/234/159
f 292/235/160 289/233/158 287/152/86 290/151/85
f 294/76/36 291/77/35 292/234/159 295/236/161
f 295/236/162 292/234/160 290/237/85 293/238/84
f 297/239/43 294/89/36 295/240/161 298/241/163
f 298/241/164 295/240/162 293/150/84 296/149/83
f 300/95/47 297/239/43 298/241/163 301/242/165
f 301/242/166 298/241/164 296/149/83 299/148/82
f 303/119/49 300/114/47 301/243/165 304/244/167
f 304/245/168 301/242/166 299/148/82 302/147/81
f 306/97/51 303/96/49 304/245/167 307/246/169
f 307/246/170 304/245/168 302/147/81 305/146/80
f 309/121/53 306/97/51 307/246/169 310/247/171
f 310/248/172 307/249/170 305/250/80 308/251/79
f 312/104/56 309/121/53 310/247/171 313/252/173
f 313/252/174 310/247/172 308/145/79 311/144/78
f 315/105/59 312/104/56 313/252/173 316/253/175
f 316/253/176 313/252/174 311/144/78 314/143/77
f 318/131/62 315/126/59 316/254/175 319/255/177
f 319/256/178 316/253/176 314/143/77 317/142/76
f 321/133/65 318/106/62 319/256/177 322/257/179
f 322/257/180 319/256/178 317/142/76 320/141/75
f 324/168/67 321/130/65 322/258/179 325/259/181
f 325/260/182 322/257/180 320/141/75 323/140/74
f 327/84/101 324/83/67 325/260/181 328/261/183
f 328/261/184 325/260/182 323/140/74 326/139/73
f 330/85/106 327/84/101 328/261/183 331/262/185
f 331/262/186 328/261/184 326/139/73 329/138/72
f 333/170/104 330/85/106 331/262/185 334/263/187
f 334/263/188 331/262/186 329/138/72 332/137/71
f 242/196/105 333/172/104 334/264/187 244/197/125
f 244/200/128 334/263/188 332/137/71 243/136/70
f 135/79/3 136/78/2 242/78/105 240/79/39
f 349/21/1 348/20/1 380/265/1 381/266/1
f 336/8/1 335/7/1 368/267/1 367/268/1
f 358/31/1 357/30/1 389/269/1 390/270/1
f 335/7/1 366/39/1 398/271/1 368/267/1
f 345/17/1 344/16/1 376/272/1 377/273/1
f 354/27/1 353/26/1 385/274/1 386/275/1
f 363/36/1 362/35/1 394/276/1 395/277/1
f 341/13/1 340/12/1 372/278/1 373/279/1
f 350/22/1 349/21/1 381/266/1 382/280/1
f 359/32/1 358/31/1 390/270/1 391/281/1
f 337/9/1 336/8/1 367/268/1 369/282/1
f 346/18/1 345/17/1 377/273/1 378/283/1
f 355/28/1 354/27/1 386/275/1 387/284/1
f 364/37/1 363/36/1 395/277/1 396/285/1
f 342/14/1 341/13/1 373/279/1 374/286/1
f 351/24/1 350/22/1 382/280/1 383/287/1
f 360/33/1 359/32/1 391/281/1 392/288/1
f 338/10/1 337/9/1 369/282/1 370/289/1
f 347/19/1 346/18/1 378/283/1 379/290/1
f 356/29/1 355/28/1 387/284/1 388/291/1
f 365/38/1 364/37/1 396/285/1 397/292/1
f 343/15/1 342/14/1 374/286/1 375/293/1
f 352/25/1 351/24/1 383/287/1 384/294/1
f 361/34/1 360/33/1 392/288/1 393/295/1
f 339/11/1 338/10/1 370/289/1 371/296/1
f 348/20/1 347/19/1 379/290/1 380/265/1
f 357/30/1 356/29/1 388/291/1 389/269/1
f 366/39/1 365/38/1 397/292/1 398/271/1
f 344/16/1 343/15/1 375/293/1 376/272/1
f 353/26/1 352/25/1 384/294/1 385/274/1
f 362/35/1 361/34/1 393/295/1 394/276/1
f 340/12/1 339/11/1 371/296/1 372/278/1
f 430/116/34 431/115/34 466/297/34 467/212/34
f 438/112/34 439/114/34 477/243/34 475/298/34
f 437/76/34 438/112/34 475/298/34 476/236/34
f 445/171/34 446/172/34 484/264/34 485/299/34
f 465/300/30 448/81/30 488/81/30 505/300/30
f 471/225/6 452/301/6 492/301/6 511/225/6
f 478/248/189 480/302/190 520/302/190 518/248/189
f 461/174/8 485/303/8 525/303/8 501/174/8
f 479/304/116 478/248/189 518/248/189 519/304/116
f 480/305/18 458/187/18 498/187/18 520/305/18
f 475/298/191 477/243/108 517/243/108 515/298/191
f 474/306/10 454/94/10 494/94/10 514/306/10
f 451/188/20 470/307/20 510/307/20 491/188/20
f 476/236/192 475/298/191 515/298/191 516/236/192
f 431/115/34 432/117/34 468/219/34 466/297/34
f 433/107/37 428/41/1 452/190/193 471/308/194
f 440/118/34 441/124/34 478/248/34 479/304/34
f 441/124/34 442/123/34 480/302/34 478/248/34
f 443/130/34 444/168/34 483/309/34 481/310/34
f 434/132/34 435/134/34 472/231/34 473/311/34
f 429/67/195 440/97/196 479/312/197 457/185/198
f 435/134/34 436/230/34 474/232/34 472/231/34
f 482/313/118 481/310/199 521/310/199 522/313/118
f 459/175/4 482/314/4 522/314/4 499/175/4
f 481/310/200 483/309/201 523/309/201 521/310/200
f 464/201/202 463/315/203 503/315/203 504/201/202
f 455/179/28 476/316/28 516/316/28 495/179/28
f 485/299/120 484/264/33 524/264/33 525/299/120
f 463/315/203 465/317/123 505/317/123 503/315/203
f 484/264/33 486/197/121 526/197/121 524/264/33
f 467/212/204 466/297/9 506/297/9 507/212/204
f 449/182/16 467/318/16 507/318/16 489/182/16
f 453/100/24 473/319/24 513/319/24 493/100/24
f 466/297/9 468/219/113 508/219/113 506/297/9
f 477/320/14 456/181/14 496/181/14 517/320/14
f 486/321/26 462/178/26 502/178/26 526/321/26
f 470/322/205 469/323/13 509/323/13 510/322/205
f 469/323/13 471/225/206 511/225/206 509/323/13
f 468/324/2 450/184/2 490/184/2 508/324/2
f 483/325/22 460/103/22 500/103/22 523/325/22
f 473/311/109 472/231/17 512/231/17 513/311/109
f 457/185/32 479/312/32 519/312/32 497/185/32
f 472/231/17 474/232/115 514/232/115 512/231/17
f 447/88/12 464/326/12 504/326/12 487/88/12
f 533/266/207 550/327/208 582/328/209 565/329/210
f 554/330/211 537/281/211 569/331/211 586/332/211
f 544/333/212 529/296/213 561/334/214 576/335/215
f 532/273/216 547/336/217 580/337/34 564/338/218
f 559/339/34 541/340/34 592/6/34 590/4/34
f 543/341/34 544/333/34 576/335/34 574/342/34
f 540/292/219 558/343/220 591/3/221 572/2/220
f 535/274/222 552/344/223 584/345/224 567/346/225
f 541/340/226 527/267/226 573/5/226 592/6/226
f 538/295/227 555/347/228 588/348/229 570/349/230
f 530/279/231 545/350/231 577/351/231 562/352/231
f 547/336/217 548/353/34 579/354/34 580/337/34
f 557/355/232 539/277/233 571/356/232 589/357/234
f 553/358/235 536/284/235 568/359/235 585/360/235
f 548/353/34 549/361/34 581/362/34 579/354/34
f 528/282/18 542/363/18 575/364/236 560/365/18
f 555/347/34 556/366/34 587/367/34 588/348/34
s 0
f 546/368/26 531/293/237 563/369/10 578/370/238
s 1
f 551/371/239 534/287/239 566/372/239 583/373/239
f 542/363/34 543/341/34 574/342/34 575/364/34
f 613/356/1 611/374/1 635/367/1 637/357/1
f 602/375/1 603/329/1 627/328/1 626/376/1
f 604/372/1 602/375/1 626/376/1 628/373/1
f 593/377/1 594/365/1 618/364/1 617/342/1
f 595/334/1 593/377/1 617/342/1 619/335/1
f 605/378/1 606/346/1 630/345/1 629/379/1
f 607/359/1 605/378/1 629/379/1 631/360/1
f 596/380/1 597/352/1 621/351/1 620/381/1
f 598/369/1 596/380/1 620/381/1 622/370/1
f 608/382/1 609/383/1 633/384/1 632/385/1
f 610/331/1 608/382/1 632/385/1 634/332/1
f 599/386/1 600/338/1 624/337/1 623/354/1
f 601/387/1 599/386/1 623/354/1 625/362/1
f 611/374/1 612/349/1 636/348/1 635/367/1
l 199 223
l 227 229
l 227 228
l 215 216
l 215 217
l 195 219
l 211 235
l 207 231
l 208 232
l 204 228
l 236 237
l 236 238
l 196 220
l 224 225
l 224 226
l 192 216
l 193 217
l 213 237
l 233 234
l 233 235
l 201 225
l 205 229
l 221 222
l 221 223
l 230 232
l 230 231
l 202 226
l 198 222
l 210 234
l 218 219
l 218 220
l 214 238
l 401 416
l 410 419
l 414 415
l 415 416
l 399 413
l 417 418
l 404 417
l 400 414
l 614 615
l 614 616
l 615 638
l 616 639
