# Blender 4.5.3 LTS
# www.blender.org
mtllib CarritoLlanta.mtl
o Cube.004
v 0.079937 0.024084 -0.126107
v 0.079937 0.051317 -0.117846
v 0.079937 -0.004237 -0.128896
v 0.079937 0.002340 -0.016792
v 0.079937 0.008665 -0.014873
v 0.079937 -0.004238 -0.017440
v -0.104482 -0.004237 -0.214255
v 0.076756 -0.004237 -0.214255
v -0.104482 -0.049212 -0.209826
v 0.076756 -0.049212 -0.209826
v -0.104482 -0.092458 -0.196707
v 0.076756 -0.092458 -0.196707
v -0.104482 -0.132314 -0.175404
v 0.076756 -0.132314 -0.175404
v -0.104482 -0.167248 -0.146734
v 0.076756 -0.167248 -0.146734
v -0.104482 -0.195917 -0.111800
v 0.076756 -0.195917 -0.111800
v -0.104482 -0.217221 -0.071944
v 0.076756 -0.217221 -0.071944
v -0.104482 -0.230339 -0.028698
v 0.076756 -0.230339 -0.028698
v -0.104482 -0.234769 0.016276
v 0.076756 -0.234769 0.016276
v -0.104482 -0.230339 0.061251
v 0.076756 -0.230339 0.061250
v -0.104482 -0.217221 0.104497
v 0.076756 -0.217221 0.104496
v -0.104482 -0.195917 0.144352
v 0.076756 -0.195917 0.144352
v -0.104482 -0.167248 0.179286
v 0.076756 -0.167248 0.179286
v -0.104482 -0.132314 0.207956
v 0.076756 -0.132314 0.207956
v -0.104482 -0.092458 0.229259
v 0.076756 -0.092458 0.229259
v -0.104482 -0.049212 0.242378
v 0.076756 -0.049212 0.242378
v -0.104482 -0.004237 0.246807
v 0.076756 -0.004237 0.246807
v -0.104482 0.040737 0.242378
v 0.076756 0.040737 0.242378
v -0.104482 0.083983 0.229259
v 0.076756 0.083983 0.229259
v -0.104482 0.123839 0.207956
v 0.076756 0.123839 0.207956
v -0.104482 0.158773 0.179286
v 0.076756 0.158773 0.179286
v -0.104482 0.187443 0.144352
v 0.076756 0.187443 0.144352
v -0.104482 0.208746 0.104496
v 0.076756 0.208746 0.104496
v -0.104482 0.221864 0.061250
v 0.076756 0.221864 0.061250
v -0.104482 0.226294 0.016276
v 0.076756 0.226294 0.016276
v -0.104482 0.221864 -0.028699
v 0.076756 0.221864 -0.028699
v -0.104482 0.208746 -0.071945
v 0.076756 0.208746 -0.071945
v -0.104482 0.187442 -0.111801
v 0.076756 0.187442 -0.111801
v -0.104482 0.158773 -0.146734
v 0.076756 0.158773 -0.146734
v -0.104482 0.123839 -0.175404
v 0.076756 0.123839 -0.175404
v -0.104482 0.083983 -0.196707
v 0.076756 0.083983 -0.196707
v -0.104482 0.040737 -0.209826
v 0.076756 0.040737 -0.209826
v 0.076756 -0.034724 -0.136989
v 0.076756 -0.004237 -0.139991
v 0.076756 -0.064038 -0.128096
v 0.076756 -0.091055 -0.113655
v 0.076756 -0.114735 -0.094222
v 0.076756 -0.134169 -0.070541
v 0.076756 -0.148609 -0.043525
v 0.076756 -0.157502 -0.014210
v 0.076756 -0.160505 0.016276
v 0.076756 -0.157502 0.046762
v 0.076756 -0.148609 0.076077
v 0.076756 -0.134169 0.103093
v 0.076756 -0.114735 0.126774
v 0.076756 -0.091055 0.146207
v 0.076756 -0.064038 0.160648
v 0.076756 -0.034723 0.169541
v 0.076756 -0.004237 0.172543
v 0.076756 0.026249 0.169541
v 0.076756 0.055564 0.160648
v 0.076756 0.082580 0.146207
v 0.076756 0.106260 0.126774
v 0.076756 0.125694 0.103093
v 0.076756 0.140135 0.076077
v 0.076756 0.149027 0.046762
v 0.076756 0.152030 0.016276
v 0.076756 0.149027 -0.014210
v 0.076756 0.140135 -0.043525
v 0.076756 0.125694 -0.070541
v 0.076756 0.106260 -0.094222
v 0.076756 0.082580 -0.113656
v 0.076756 0.055563 -0.128096
v 0.076756 0.026249 -0.136989
v 0.097292 -0.034724 -0.136989
v 0.097292 -0.004237 -0.139991
v 0.097293 -0.064038 -0.128096
v 0.097293 -0.091055 -0.113655
v 0.097293 -0.114735 -0.094222
v 0.097293 -0.134169 -0.070541
v 0.097293 -0.148609 -0.043525
v 0.097293 -0.157502 -0.014210
v 0.097293 -0.160505 0.016276
v 0.097293 -0.157502 0.046762
v 0.097293 -0.148609 0.076077
v 0.097293 -0.134169 0.103093
v 0.097293 -0.114735 0.126774
v 0.097293 -0.091055 0.146207
v 0.097293 -0.064038 0.160648
v 0.097293 -0.034723 0.169541
v 0.097293 -0.004237 0.172543
v 0.097293 0.026249 0.169541
v 0.097293 0.055564 0.160648
v 0.097293 0.082580 0.146207
v 0.097293 0.106260 0.126774
v 0.097292 0.125694 0.103093
v 0.097292 0.140135 0.076077
v 0.097292 0.149027 0.046762
v 0.097292 0.152030 0.016276
v 0.097292 0.149027 -0.014210
v 0.097292 0.140135 -0.043525
v 0.097292 0.125694 -0.070541
v 0.097292 0.106260 -0.094222
v 0.097292 0.082580 -0.113656
v 0.097292 0.055563 -0.128096
v 0.097292 0.026249 -0.136989
v 0.097293 -0.011318 -0.019319
v 0.097293 -0.004238 -0.020016
v 0.097293 -0.018126 -0.017254
v 0.097293 -0.024401 -0.013900
v 0.097293 -0.029900 -0.009387
v 0.097293 -0.034414 -0.003887
v 0.097293 -0.037767 0.002387
v 0.097293 -0.039833 0.009196
v 0.097293 -0.040530 0.016276
v 0.097293 -0.039833 0.023356
v 0.097293 -0.037767 0.030165
v 0.097293 -0.034414 0.036439
v 0.097293 -0.029900 0.041939
v 0.097293 -0.024401 0.046452
v 0.097293 -0.018126 0.049806
v 0.097293 -0.011318 0.051871
v 0.097293 -0.004237 0.052569
v 0.097293 0.002843 0.051871
v 0.097293 0.009651 0.049806
v 0.097293 0.015926 0.046452
v 0.097293 0.021425 0.041939
v 0.097293 0.025939 0.036439
v 0.097293 0.029292 0.030165
v 0.097293 0.031358 0.023356
v 0.097293 0.032055 0.016276
v 0.097293 0.031358 0.009196
v 0.097293 0.029292 0.002387
v 0.097293 0.025939 -0.003887
v 0.097293 0.021425 -0.009387
v 0.097293 0.015926 -0.013900
v 0.097293 0.009651 -0.017254
v 0.097293 0.002843 -0.019319
v 0.097293 -0.084891 -0.104430
v 0.097293 -0.059792 -0.117846
v 0.097293 -0.106890 -0.086376
v 0.097293 -0.146620 -0.012046
v 0.097293 -0.138359 -0.039279
v 0.097293 -0.149410 0.016276
v 0.097293 -0.124944 0.096929
v 0.097293 -0.138359 0.071831
v 0.097293 -0.106890 0.118928
v 0.097293 -0.032559 0.158659
v 0.097293 -0.059792 0.150398
v 0.097293 -0.004237 0.161448
v 0.097293 0.076416 0.136982
v 0.097293 0.051318 0.150398
v 0.097293 0.098415 0.118928
v 0.097292 0.138146 0.044598
v 0.097292 0.129885 0.071831
v 0.097292 0.140935 0.016276
v 0.097292 0.116469 -0.064378
v 0.097292 0.129884 -0.039279
v 0.097292 0.098415 -0.086376
v 0.097292 0.024084 -0.126107
v 0.097292 0.051317 -0.117846
v 0.097292 -0.004237 -0.128896
v 0.079937 -0.084891 -0.104430
v 0.079937 -0.059792 -0.117846
v 0.079937 -0.106890 -0.086376
v 0.079937 -0.146620 -0.012046
v 0.079937 -0.138359 -0.039279
v 0.079937 -0.149410 0.016276
v 0.079937 -0.124944 0.096929
v 0.079937 -0.138359 0.071831
v 0.079937 -0.106890 0.118928
v 0.079937 -0.032559 0.158659
v 0.079937 -0.059792 0.150398
v 0.079937 -0.004237 0.161448
v 0.079937 0.076416 0.136982
v 0.079937 0.051318 0.150398
v 0.079937 0.098415 0.118928
v 0.079937 0.138146 0.044598
v 0.079937 0.129885 0.071831
v 0.079937 0.140935 0.016276
v 0.079937 0.116469 -0.064378
v 0.079937 0.129884 -0.039279
v 0.079937 0.098415 -0.086376
v 0.079937 0.024084 -0.126107
v 0.079937 0.051317 -0.117846
v 0.079937 -0.004237 -0.128896
v 0.079937 -0.022969 -0.011758
v 0.079937 -0.017140 -0.014873
v 0.079937 -0.028078 -0.007565
v 0.079937 -0.037305 0.009698
v 0.079937 -0.035387 0.003374
v 0.079937 -0.037953 0.016276
v 0.079937 -0.032271 0.035007
v 0.079937 -0.035387 0.029179
v 0.079937 -0.028078 0.040117
v 0.079937 -0.010815 0.049344
v 0.079937 -0.017140 0.047425
v 0.079937 -0.004237 0.049992
v 0.079937 0.014494 0.044310
v 0.079937 0.008665 0.047425
v 0.079937 0.019603 0.040117
v 0.079937 0.028831 0.022854
v 0.079937 0.026912 0.029179
v 0.079937 0.029478 0.016276
v 0.079937 0.023796 -0.002455
v 0.079937 0.026912 0.003374
v 0.079937 0.019603 -0.007565
v 0.079937 0.002340 -0.016792
v 0.079937 0.008665 -0.014873
v 0.079937 -0.004238 -0.017440
v 0.116919 -0.009351 -0.009433
v 0.106888 -0.011318 -0.019319
v 0.113981 -0.010742 -0.016424
v 0.106888 -0.004238 -0.020016
v 0.116919 -0.004237 -0.009937
v 0.113981 -0.004238 -0.017064
v 0.116919 -0.014269 -0.007942
v 0.106888 -0.018126 -0.017254
v 0.113981 -0.016996 -0.014526
v 0.116919 -0.018801 -0.005520
v 0.106888 -0.024401 -0.013900
v 0.113981 -0.022760 -0.011445
v 0.116919 -0.022773 -0.002259
v 0.106888 -0.029900 -0.009387
v 0.113981 -0.027813 -0.007299
v 0.116919 -0.026033 0.001713
v 0.106888 -0.034414 -0.003887
v 0.113981 -0.031959 -0.002247
v 0.116919 -0.028455 0.006245
v 0.106888 -0.037767 0.002387
v 0.113981 -0.035040 0.003517
v 0.116919 -0.029947 0.011162
v 0.106888 -0.039833 0.009196
v 0.113981 -0.036937 0.009772
v 0.116919 -0.030451 0.016276
v 0.106888 -0.040530 0.016276
v 0.113981 -0.037578 0.016276
v 0.116919 -0.029947 0.021390
v 0.106888 -0.039833 0.023356
v 0.113981 -0.036937 0.022780
v 0.116919 -0.028455 0.026307
v 0.106888 -0.037767 0.030165
v 0.113981 -0.035040 0.029035
v 0.116919 -0.026033 0.030839
v 0.106888 -0.034414 0.036439
v 0.113981 -0.031959 0.034799
v 0.116919 -0.022773 0.034812
v 0.106888 -0.029900 0.041939
v 0.113981 -0.027813 0.039851
v 0.116919 -0.018801 0.038072
v 0.106888 -0.024401 0.046452
v 0.113981 -0.022760 0.043998
v 0.116919 -0.014269 0.040494
v 0.106888 -0.018126 0.049806
v 0.113981 -0.016996 0.047078
v 0.116919 -0.009351 0.041986
v 0.106888 -0.011318 0.051871
v 0.113981 -0.010742 0.048976
v 0.116919 -0.004238 0.042489
v 0.106888 -0.004237 0.052569
v 0.113981 -0.004238 0.049616
v 0.116919 0.000876 0.041986
v 0.106888 0.002843 0.051871
v 0.113981 0.002267 0.048976
v 0.116919 0.005794 0.040494
v 0.106888 0.009651 0.049806
v 0.113981 0.008521 0.047078
v 0.116919 0.010326 0.038072
v 0.106888 0.015926 0.046452
v 0.113981 0.014285 0.043998
v 0.116919 0.014298 0.034812
v 0.106888 0.021425 0.041939
v 0.113981 0.019338 0.039851
v 0.116919 0.017558 0.030839
v 0.106888 0.025939 0.036439
v 0.113981 0.023484 0.034799
v 0.116919 0.019980 0.026307
v 0.106888 0.029292 0.030165
v 0.113981 0.026565 0.029035
v 0.116919 0.021472 0.021390
v 0.106888 0.031358 0.023356
v 0.113981 0.028462 0.022780
v 0.116919 0.021976 0.016276
v 0.106888 0.032055 0.016276
v 0.113981 0.029103 0.016276
v 0.116919 0.021472 0.011162
v 0.106888 0.031358 0.009196
v 0.113981 0.028462 0.009772
v 0.116919 0.019980 0.006245
v 0.106888 0.029292 0.002387
v 0.113981 0.026565 0.003517
v 0.116919 0.017558 0.001713
v 0.106888 0.025939 -0.003887
v 0.113981 0.023484 -0.002247
v 0.116919 0.014298 -0.002260
v 0.106888 0.021425 -0.009387
v 0.113981 0.019338 -0.007299
v 0.116919 0.010326 -0.005520
v 0.106888 0.015926 -0.013900
v 0.113981 0.014285 -0.011446
v 0.116919 0.005794 -0.007942
v 0.106888 0.009651 -0.017254
v 0.113981 0.008521 -0.014526
v 0.116919 0.000876 -0.009433
v 0.106888 0.002843 -0.019319
v 0.113981 0.002267 -0.016424
v 0.076756 -0.004237 -0.214255
v 0.076756 -0.049212 -0.209826
v 0.076756 -0.092458 -0.196707
v 0.076756 -0.132314 -0.175404
v 0.076756 -0.167248 -0.146734
v 0.076756 -0.195917 -0.111800
v 0.076756 -0.217221 -0.071944
v 0.076756 -0.230339 -0.028698
v 0.076756 -0.234769 0.016276
v 0.076756 -0.230339 0.061250
v 0.076756 -0.217221 0.104496
v 0.076756 -0.195917 0.144352
v 0.076756 -0.167248 0.179286
v 0.076756 -0.132314 0.207956
v 0.076756 -0.092458 0.229259
v 0.076756 -0.049212 0.242378
v 0.076756 -0.004237 0.246807
v 0.076756 0.040737 0.242378
v 0.076756 0.083983 0.229259
v 0.076756 0.123839 0.207956
v 0.076756 0.158773 0.179286
v 0.076756 0.187443 0.144352
v 0.076756 0.208746 0.104496
v 0.076756 0.221864 0.061250
v 0.076756 0.226294 0.016276
v 0.076756 0.221864 -0.028699
v 0.076756 0.208746 -0.071945
v 0.076756 0.187442 -0.111801
v 0.076756 0.158773 -0.146734
v 0.076756 0.123839 -0.175404
v 0.076756 0.083983 -0.196707
v 0.076756 0.040737 -0.209826
v 0.076756 -0.034724 -0.136989
v 0.076756 -0.004237 -0.139991
v 0.076756 -0.064038 -0.128096
v 0.076756 -0.091055 -0.113655
v 0.076756 -0.114735 -0.094222
v 0.076756 -0.134169 -0.070541
v 0.076756 -0.148609 -0.043525
v 0.076756 -0.157502 -0.014210
v 0.076756 -0.160505 0.016276
v 0.076756 -0.157502 0.046762
v 0.076756 -0.148609 0.076077
v 0.076756 -0.134169 0.103093
v 0.076756 -0.114735 0.126774
v 0.076756 -0.091055 0.146207
v 0.076756 -0.064038 0.160648
v 0.076756 -0.034723 0.169541
v 0.076756 -0.004237 0.172543
v 0.076756 0.026249 0.169541
v 0.076756 0.055564 0.160648
v 0.076756 0.082580 0.146207
v 0.076756 0.106260 0.126774
v 0.076756 0.125694 0.103093
v 0.076756 0.140135 0.076077
v 0.076756 0.149027 0.046762
v 0.076756 0.152030 0.016276
v 0.076756 0.149027 -0.014210
v 0.076756 0.140135 -0.043525
v 0.076756 0.125694 -0.070541
v 0.076756 0.106260 -0.094222
v 0.076756 0.082580 -0.113656
v 0.076756 0.055563 -0.128096
v 0.076756 0.026249 -0.136989
v 0.097292 -0.004237 -0.139991
v 0.097293 -0.064038 -0.128096
v 0.097293 -0.114735 -0.094222
v 0.097293 -0.148609 0.076077
v 0.097292 0.140135 -0.043525
v 0.097293 -0.004238 -0.020016
v 0.097293 -0.018126 -0.017254
v 0.097293 -0.024401 -0.013900
v 0.097293 -0.029900 -0.009387
v 0.097293 -0.037767 0.030165
v 0.097293 -0.034414 0.036439
v 0.097293 0.029292 0.002387
v 0.097293 -0.114735 0.126774
v 0.097292 0.140135 0.076077
v 0.097293 -0.037767 0.002387
v 0.097293 -0.039833 0.009196
v 0.097293 -0.040530 0.016276
v 0.097293 -0.029900 0.041939
v 0.097293 -0.018126 0.049806
v 0.097293 -0.011318 0.051871
v 0.097293 -0.004237 0.052569
v 0.097293 0.009651 0.049806
v 0.097293 0.015926 0.046452
v 0.097293 0.021425 0.041939
v 0.097293 0.029292 0.030165
v 0.097293 0.031358 0.023356
v 0.097293 0.032055 0.016276
v 0.097293 0.025939 -0.003887
v 0.097293 0.021425 -0.009387
v 0.097293 0.009651 -0.017254
v 0.097293 0.002843 -0.019319
v 0.097293 -0.059792 -0.117846
v 0.097293 -0.106890 -0.086376
v 0.097293 -0.138359 -0.039279
v 0.097293 -0.149410 0.016276
v 0.097293 -0.138359 0.071831
v 0.097293 -0.106890 0.118928
v 0.097293 -0.059792 0.150398
v 0.097293 -0.004237 0.161448
v 0.097293 0.051318 0.150398
v 0.097293 0.098415 0.118928
v 0.097292 0.129885 0.071831
v 0.097292 0.140935 0.016276
v 0.097292 0.129884 -0.039279
v 0.097292 0.098415 -0.086376
v 0.097292 0.051317 -0.117846
v 0.097292 -0.004237 -0.128896
v 0.097293 -0.022969 -0.011758
v 0.097293 -0.017140 -0.014873
v 0.097293 -0.028078 -0.007565
v 0.097293 -0.037305 0.009698
v 0.097293 -0.035387 0.003374
v 0.097293 -0.037953 0.016276
v 0.097293 -0.032271 0.035007
v 0.097293 -0.035387 0.029179
v 0.097293 -0.028078 0.040117
v 0.097293 -0.010815 0.049344
v 0.097293 -0.017140 0.047425
v 0.097293 -0.004237 0.049992
v 0.097293 0.014494 0.044310
v 0.097293 0.008665 0.047425
v 0.097293 0.019603 0.040117
v 0.097293 0.028831 0.022854
v 0.097293 0.026912 0.029179
v 0.097293 0.029478 0.016276
v 0.097293 0.023796 -0.002455
v 0.097293 0.026912 0.003374
v 0.097293 0.019603 -0.007565
v 0.097293 0.002340 -0.016792
v 0.097293 0.008665 -0.014873
v 0.097293 -0.004238 -0.017440
v 0.079937 -0.059792 -0.117846
v 0.079937 -0.106890 -0.086376
v 0.079937 -0.138359 -0.039279
v 0.079937 -0.149410 0.016276
v 0.079937 -0.138359 0.071831
v 0.079937 -0.106890 0.118928
v 0.079937 -0.059792 0.150398
v 0.079937 -0.004237 0.161448
v 0.079937 0.051318 0.150398
v 0.079937 0.098415 0.118928
v 0.079937 0.129885 0.071831
v 0.079937 0.140935 0.016276
v 0.079937 0.129884 -0.039279
v 0.079937 0.098415 -0.086376
v 0.079937 0.051317 -0.117846
v 0.079937 -0.004237 -0.128896
v 0.079937 -0.022969 -0.011758
v 0.079937 -0.017140 -0.014873
v 0.079937 -0.028078 -0.007565
v 0.079937 -0.037305 0.009698
v 0.079937 -0.035387 0.003374
v 0.079937 -0.037953 0.016276
v 0.079937 -0.032271 0.035007
v 0.079937 -0.035387 0.029179
v 0.079937 -0.028078 0.040117
v 0.079937 -0.010815 0.049344
v 0.079937 -0.017140 0.047425
v 0.079937 -0.004237 0.049992
v 0.079937 0.014494 0.044310
v 0.079937 0.008665 0.047425
v 0.079937 0.019603 0.040117
v 0.079937 0.028831 0.022854
v 0.079937 0.026912 0.029179
v 0.079937 0.029478 0.016276
v 0.079937 0.023796 -0.002455
v 0.079937 0.026912 0.003374
v 0.079937 0.019603 -0.007565
v 0.079937 0.002340 -0.016792
v 0.079937 0.008665 -0.014873
v 0.079937 -0.004238 -0.017440
v 0.097292 -0.004237 -0.139991
v 0.097293 -0.064038 -0.128096
v 0.097293 -0.114735 -0.094222
v 0.097293 -0.148609 -0.043525
v 0.097293 -0.160505 0.016276
v 0.097293 -0.148609 0.076077
v 0.097293 -0.064038 0.160648
v 0.097293 -0.004237 0.172543
v 0.097293 0.055564 0.160648
v 0.097293 0.106260 0.126774
v 0.097292 0.152030 0.016276
v 0.097292 0.140135 -0.043525
v 0.097292 0.106260 -0.094222
v 0.097292 0.055563 -0.128096
v 0.097293 -0.004238 -0.020016
v 0.097293 -0.018126 -0.017254
v 0.097293 -0.024401 -0.013900
v 0.097293 -0.029900 -0.009387
v 0.097293 -0.037767 0.002387
v 0.097293 -0.040530 0.016276
v 0.097293 -0.037767 0.030165
v 0.097293 -0.034414 0.036439
v 0.097293 -0.029900 0.041939
v 0.097293 -0.018126 0.049806
v 0.097293 -0.004237 0.052569
v 0.097293 0.009651 0.049806
v 0.097293 0.021425 0.041939
v 0.097293 0.032055 0.016276
v 0.097293 0.029292 0.002387
v 0.097293 0.025939 -0.003887
v 0.097293 0.021425 -0.009387
v 0.097293 0.009651 -0.017254
v 0.097293 0.002843 -0.019319
v 0.097293 -0.059792 -0.117846
v 0.097293 -0.106890 -0.086376
v 0.097293 -0.138359 -0.039279
v 0.097293 -0.149410 0.016276
v 0.097293 -0.138359 0.071831
v 0.097293 -0.059792 0.150398
v 0.097293 -0.004237 0.161448
v 0.097293 0.051318 0.150398
v 0.097293 0.098415 0.118928
v 0.097292 0.140935 0.016276
v 0.097292 0.129884 -0.039279
v 0.097292 0.098415 -0.086376
v 0.097292 0.051317 -0.117846
v 0.097292 -0.004237 -0.128896
v 0.097293 -0.022969 -0.011758
v 0.097293 -0.017140 -0.014873
v 0.097293 -0.028078 -0.007565
v 0.097293 -0.035387 0.003374
v 0.097293 -0.037953 0.016276
v 0.097293 -0.032271 0.035007
v 0.097293 -0.035387 0.029179
v 0.097293 -0.028078 0.040117
v 0.097293 -0.017140 0.047425
v 0.097293 -0.004237 0.049992
v 0.097293 0.008665 0.047425
v 0.097293 0.019603 0.040117
v 0.097293 0.029478 0.016276
v 0.097293 0.023796 -0.002455
v 0.097293 0.026912 0.003374
v 0.097293 0.019603 -0.007565
v 0.097293 0.002340 -0.016792
v 0.097293 0.008665 -0.014873
v 0.097293 -0.004238 -0.017440
v 0.079937 -0.084891 -0.104430
v 0.079937 -0.059792 -0.117846
v 0.079937 -0.106890 -0.086376
v 0.079937 -0.146620 -0.012046
v 0.079937 -0.138359 -0.039279
v 0.079937 -0.149410 0.016276
v 0.079937 -0.124944 0.096929
v 0.079937 -0.138359 0.071831
v 0.079937 -0.106890 0.118928
v 0.079937 -0.032559 0.158659
v 0.079937 -0.059792 0.150398
v 0.079937 -0.004237 0.161448
v 0.079937 0.076416 0.136982
v 0.079937 0.051318 0.150398
v 0.079937 0.098415 0.118928
v 0.079937 0.138146 0.044598
v 0.079937 0.129885 0.071831
v 0.079937 0.140935 0.016276
v 0.079937 0.116469 -0.064378
v 0.079937 0.129884 -0.039279
v 0.079937 0.098415 -0.086376
v 0.079937 0.024084 -0.126107
v 0.079937 0.051317 -0.117846
v 0.079937 -0.004237 -0.128896
v 0.079937 -0.022969 -0.011758
v 0.079937 -0.017140 -0.014873
v 0.079937 -0.028078 -0.007565
v 0.079937 -0.037305 0.009698
v 0.079937 -0.035387 0.003374
v 0.079937 -0.037953 0.016276
v 0.079937 -0.032271 0.035007
v 0.079937 -0.035387 0.029179
v 0.079937 -0.028078 0.040117
v 0.079937 -0.010815 0.049344
v 0.079937 -0.017140 0.047425
v 0.079937 -0.004237 0.049992
v 0.079937 0.014494 0.044310
v 0.079937 0.008665 0.047425
v 0.079937 0.019603 0.040117
v 0.079937 0.028831 0.022854
v 0.079937 0.026912 0.029179
v 0.079937 0.029478 0.016276
v 0.079937 0.023796 -0.002455
v 0.079937 0.026912 0.003374
v 0.079937 0.019603 -0.007565
v 0.079937 0.008665 -0.014873
v 0.079937 -0.004238 -0.017440
vn 1.0000 -0.0000 -0.0000
vn -0.0000 -0.0000 -1.0000
vn -0.0000 -0.1951 -0.9808
vn -0.0000 -0.3827 -0.9239
vn -0.0000 -0.5556 -0.8315
vn -0.0000 -0.7071 -0.7071
vn -0.0000 -0.8315 -0.5556
vn -0.0000 -0.9239 -0.3827
vn -0.0000 -0.9808 -0.1951
vn -0.0000 -1.0000 -0.0000
vn -0.0000 -0.9808 0.1951
vn -0.0000 -0.9239 0.3827
vn -0.0000 -0.8315 0.5556
vn -0.0000 -0.7071 0.7071
vn -0.0000 -0.5556 0.8315
vn -0.0000 -0.3827 0.9239
vn -0.0000 -0.1951 0.9808
vn -0.0000 -0.0000 1.0000
vn -0.0000 0.1951 0.9808
vn -0.0000 0.3827 0.9239
vn -0.0000 0.5556 0.8315
vn -0.0000 0.7071 0.7071
vn -0.0000 0.8315 0.5556
vn -0.0000 0.9239 0.3827
vn -0.0000 0.9808 0.1951
vn -0.0000 1.0000 -0.0000
vn -0.0000 0.9808 -0.1951
vn -0.0000 0.9239 -0.3827
vn -0.0000 0.8315 -0.5556
vn -0.0000 0.7071 -0.7071
vn -0.0000 0.5556 -0.8315
vn -0.0000 0.3827 -0.9239
vn -0.0000 0.1951 -0.9808
vn -1.0000 -0.0000 -0.0000
vn 0.1936 0.1914 0.9622
vn 0.1936 0.3754 0.9064
vn 0.9775 0.2085 -0.0323
vn -0.0000 -0.3824 -0.9240
vn 0.1936 -0.1914 -0.9622
vn 0.1936 -0.3754 -0.9064
vn 0.1936 -0.6937 -0.6937
vn 0.1936 -0.8157 -0.5450
vn 0.1936 0.5451 0.8157
vn 0.1936 -0.9064 -0.3754
vn -0.0000 -0.3829 -0.9238
vn 0.1936 -0.5450 -0.8157
vn 0.1936 0.6937 0.6937
vn 0.1936 -0.9622 -0.1914
vn 0.1936 0.8157 0.5450
vn 0.1936 -0.9811 -0.0000
vn 0.1936 0.9064 0.3754
vn 0.1936 -0.9622 0.1914
vn 0.1936 0.9622 0.1914
vn -0.0000 -0.9240 0.3824
vn 0.1936 -0.9064 0.3754
vn 0.1936 0.9811 -0.0000
vn -0.0000 -0.9238 0.3829
vn 0.1936 -0.8157 0.5450
vn 0.1936 0.9622 -0.1914
vn 0.1936 -0.6937 0.6937
vn -0.0000 0.9240 -0.3824
vn 0.1936 0.9064 -0.3754
vn 0.1936 -0.5451 0.8157
vn -0.0000 0.9238 -0.3829
vn 0.1936 0.8157 -0.5450
vn 0.1936 -0.3754 0.9064
vn 0.1936 0.6937 -0.6937
vn 0.1936 -0.1914 0.9622
vn 0.9786 -0.0402 -0.2019
vn 0.9786 -0.0000 -0.2059
vn 0.9786 0.0402 -0.2019
vn 0.9786 0.0788 -0.1902
vn 0.9786 0.1144 -0.1712
vn 0.9786 0.1456 -0.1456
vn 0.9786 0.1712 -0.1144
vn 0.9786 0.1902 -0.0788
vn 0.9786 0.2019 -0.0402
vn 0.9786 0.2059 -0.0000
vn 0.9786 0.2019 0.0402
vn 0.9786 0.1902 0.0788
vn 0.9786 0.1712 0.1144
vn 0.9786 0.1456 0.1456
vn 0.9786 0.1144 0.1712
vn 0.9786 0.0788 0.1902
vn 0.9786 0.0402 0.2019
vn 0.9786 -0.0000 0.2059
vn 0.9786 -0.0402 0.2019
vn 0.9786 -0.0788 0.1902
vn 0.9786 -0.1144 0.1712
vn 0.9786 -0.1456 0.1456
vn 0.9786 -0.1712 0.1144
vn 0.9786 -0.1902 0.0788
vn 0.9786 -0.2019 0.0402
vn 0.9786 -0.2059 -0.0000
vn 0.9786 -0.2019 -0.0402
vn 0.9786 -0.1902 -0.0788
vn 0.9786 -0.1712 -0.1144
vn 0.9786 -0.1456 -0.1456
vn 0.9786 -0.1144 -0.1712
vn 0.9786 -0.0788 -0.1902
vn 0.1936 0.5451 -0.8157
vn 0.1936 -0.0000 0.9811
vn -0.0000 0.1950 -0.9808
vn 0.1936 0.1914 -0.9622
vn 0.1936 -0.0000 -0.9811
vn 0.1936 0.3754 -0.9064
vn -0.0000 0.6344 0.7730
vn -0.0000 -0.2903 0.9569
vn -0.0000 0.4714 0.8819
vn -0.0000 -0.7730 0.6344
vn -0.0000 -0.8819 0.4714
vn -0.0000 -0.9952 -0.0980
vn 0.9775 -0.1780 0.1132
vn -0.0000 -0.0980 0.9952
vn -0.0000 0.9569 0.2903
vn -0.0000 0.9952 0.0980
vn -0.0000 0.8819 -0.4714
vn -0.0000 0.7730 -0.6344
vn -0.0000 0.2903 -0.9569
vn -0.0000 0.0980 -0.9952
vn -0.0000 -0.4714 -0.8819
vn -0.0000 -0.6344 -0.7730
vn -0.0000 -0.9569 -0.2903
vn 0.3842 -0.0000 -0.9232
vn 0.3842 -0.1801 -0.9055
vn 0.9245 -0.0743 -0.3738
vn 0.9245 -0.0000 -0.3811
vn 0.3843 -0.3533 -0.8529
vn 0.9245 -0.1459 -0.3521
vn 0.3843 -0.5129 -0.7676
vn 0.9245 -0.2118 -0.3169
vn 0.3843 -0.6528 -0.6528
vn 0.9245 -0.2695 -0.2695
vn 0.3843 -0.7676 -0.5129
vn 0.9245 -0.3169 -0.2117
vn 0.3843 -0.8530 -0.3533
vn 0.9245 -0.3521 -0.1458
vn 0.3843 -0.9055 -0.1801
vn 0.9245 -0.3738 -0.0744
vn 0.3843 -0.9232 -0.0000
vn 0.9245 -0.3811 -0.0000
vn 0.3843 -0.9055 0.1801
vn 0.9245 -0.3738 0.0744
vn 0.3843 -0.8530 0.3533
vn 0.9245 -0.3521 0.1458
vn 0.3843 -0.7676 0.5129
vn 0.9245 -0.3169 0.2117
vn 0.3843 -0.6528 0.6528
vn 0.9245 -0.2695 0.2695
vn 0.3843 -0.5129 0.7676
vn 0.9245 -0.2117 0.3169
vn 0.3843 -0.3533 0.8529
vn 0.9245 -0.1459 0.3521
vn 0.3843 -0.1801 0.9055
vn 0.9245 -0.0744 0.3738
vn 0.3843 -0.0000 0.9232
vn 0.9245 -0.0000 0.3811
vn 0.3843 0.1801 0.9055
vn 0.9245 0.0743 0.3738
vn 0.3843 0.3533 0.8529
vn 0.9245 0.1459 0.3521
vn 0.3843 0.5129 0.7676
vn 0.9245 0.2117 0.3169
vn 0.3843 0.6528 0.6528
vn 0.9245 0.2695 0.2695
vn 0.3843 0.7676 0.5129
vn 0.9245 0.3169 0.2117
vn 0.3843 0.8530 0.3533
vn 0.9245 0.3521 0.1458
vn 0.3843 0.9055 0.1801
vn 0.9245 0.3738 0.0744
vn 0.3843 0.9232 -0.0000
vn 0.9245 0.3811 -0.0000
vn 0.3843 0.9055 -0.1801
vn 0.9245 0.3738 -0.0744
vn 0.3843 0.8530 -0.3533
vn 0.9245 0.3521 -0.1458
vn 0.3843 0.7676 -0.5129
vn 0.9245 0.3169 -0.2117
vn 0.3843 0.6528 -0.6528
vn 0.9245 0.2695 -0.2695
vn 0.3843 0.5129 -0.7676
vn 0.9245 0.2117 -0.3169
vn 0.3843 0.3533 -0.8529
vn 0.9245 0.1458 -0.3521
vn 0.3842 0.1801 -0.9055
vn 0.9245 0.0743 -0.3738
vn -0.0000 0.9952 0.0979
vn -0.0000 0.5555 0.8315
vn -0.0000 0.4713 0.8820
vn 0.9748 0.2206 -0.0323
vn 0.9999 0.0124 -0.0000
vn 0.9750 0.2087 -0.0768
vn 0.9430 0.3292 -0.0490
vn -0.0056 -0.8553 -0.5182
vn -0.0354 -0.8584 -0.5117
vn -0.0658 -0.8609 -0.5045
vn -0.0353 -0.8585 -0.5116
vn -0.0000 0.8316 -0.5554
vn -0.0000 0.8313 -0.5558
vn -0.0000 0.7731 -0.6343
vn -0.0000 -0.4713 -0.8820
vn -0.0000 -0.5555 -0.8315
vn -0.0000 -0.9570 -0.2902
vn -0.0000 -0.8819 0.4715
vn -0.0000 -0.7731 0.6343
vn 0.4154 -0.8949 -0.1632
vn 0.6251 -0.7660 -0.1497
vn 0.7387 -0.6599 -0.1371
vn 0.6251 -0.7660 -0.1502
vn 0.9888 -0.0000 0.1493
vn -0.7538 0.6479 -0.1098
vn -0.7371 0.6663 -0.1131
vn -0.7538 0.6478 -0.1099
vn -0.7689 0.6303 -0.1068
vn -0.9801 0.0525 0.1917
vn -0.9902 0.0373 0.1346
vn -0.9788 0.0542 0.1978
vn 0.7169 -0.6880 -0.1131
vn 0.7166 -0.6877 -0.1163
vn 0.7165 -0.6873 -0.1195
vn 0.7166 -0.6877 -0.1164
vn -0.0777 -0.0042 -0.9970
vn -0.0996 0.0056 -0.9950
vn -0.1209 0.0170 -0.9925
vn -0.0996 0.0052 -0.9950
vn 0.9978 -0.0669 -0.0000
vn 0.9693 -0.0331 -0.2437
vn 0.9602 -0.0403 -0.2764
vn 0.9497 -0.0480 -0.3093
vn 0.9602 -0.0406 -0.2764
vn 0.9802 -0.0000 0.1978
vn 0.0270 -0.0053 0.9996
vn 0.0459 -0.0022 0.9989
vn 0.0270 -0.0050 0.9996
vn 0.0069 -0.0081 0.9999
vn -0.9882 0.0103 0.1525
vn -0.9881 0.0103 0.1533
vn -0.9884 0.0102 0.1518
vn 0.0237 0.0008 0.9997
vn -0.0000 0.0008 1.0000
vn -0.0235 0.0008 0.9997
vn -0.0000 0.0011 1.0000
vn 0.0001 -1.0000 -0.0000
vn -0.0001 1.0000 -0.0000
vn -0.0000 -0.0000 -0.0000
vt 0.369233 0.145477
vt 0.367804 0.150187
vt 0.349992 0.142810
vt 0.350324 0.141716
vt 0.369715 0.140578
vt 0.350436 0.140578
vt 0.384480 0.140578
vt 0.383714 0.132798
vt 0.381445 0.125318
vt 0.377760 0.118424
vt 0.372801 0.112381
vt 0.366758 0.107422
vt 0.359864 0.103737
vt 0.352383 0.101468
vt 0.344604 0.100702
vt 0.336825 0.101468
vt 0.329344 0.103737
vt 0.322450 0.107422
vt 0.316407 0.112381
vt 0.311448 0.118424
vt 0.307763 0.125318
vt 0.305494 0.132799
vt 0.305494 0.132798
vt 0.304728 0.140578
vt 0.305494 0.148357
vt 0.307763 0.155838
vt 0.311448 0.162732
vt 0.316407 0.168775
vt 0.322450 0.173734
vt 0.329344 0.177419
vt 0.336825 0.179688
vt 0.344604 0.180454
vt 0.352383 0.179688
vt 0.359864 0.177419
vt 0.366758 0.173734
vt 0.372801 0.168774
vt 0.377760 0.162732
vt 0.381445 0.155838
vt 0.383714 0.148357
vt 0.321544 0.037659
vt 0.325225 0.033175
vt 0.318810 0.042775
vt 0.340436 0.050282
vt 0.339800 0.051470
vt 0.362591 0.078706
vt 0.357475 0.081441
vt 0.375175 0.048327
vt 0.375743 0.054100
vt 0.367076 0.075026
vt 0.317126 0.048327
vt 0.373491 0.042775
vt 0.370756 0.070541
vt 0.316557 0.054100
vt 0.370756 0.037659
vt 0.373491 0.065425
vt 0.317126 0.059873
vt 0.367076 0.033175
vt 0.375175 0.059873
vt 0.318810 0.065425
vt 0.362591 0.029494
vt 0.321544 0.070541
vt 0.357475 0.026760
vt 0.325225 0.075026
vt 0.351923 0.025076
vt 0.329709 0.078706
vt 0.346150 0.024507
vt 0.334825 0.081441
vt 0.340377 0.025076
vt 0.340377 0.083125
vt 0.334825 0.026760
vt 0.346150 0.083693
vt 0.329709 0.029494
vt 0.351924 0.083125
vt 0.351728 0.119203
vt 0.351743 0.119190
vt 0.351778 0.119282
vt 0.351776 0.119278
vt 0.353023 0.054100
vt 0.352891 0.052759
vt 0.369009 0.038826
vt 0.365590 0.034660
vt 0.352500 0.051470
vt 0.351010 0.058960
vt 0.351865 0.057919
vt 0.352500 0.056730
vt 0.339277 0.054100
vt 0.339409 0.055441
vt 0.371550 0.043579
vt 0.339800 0.056730
vt 0.351010 0.049240
vt 0.349969 0.048386
vt 0.348780 0.047750
vt 0.319186 0.048737
vt 0.318658 0.054100
vt 0.341290 0.058960
vt 0.342332 0.059815
vt 0.343520 0.060450
vt 0.346150 0.047227
vt 0.344809 0.047359
vt 0.320751 0.043579
vt 0.343520 0.047750
vt 0.361424 0.076959
vt 0.365590 0.073540
vt 0.346150 0.060973
vt 0.347491 0.060841
vt 0.348780 0.060450
vt 0.341290 0.049240
vt 0.351821 0.119265
vt 0.351822 0.119269
vt 0.351812 0.119254
vt 0.351816 0.119257
vt 0.351780 0.119286
vt 0.351819 0.119261
vt 0.351783 0.119290
vt 0.351804 0.119251
vt 0.351808 0.119252
vt 0.351799 0.119250
vt 0.351790 0.119295
vt 0.351786 0.119293
vt 0.351795 0.119251
vt 0.344809 0.060841
vt 0.351790 0.119252
vt 0.351799 0.119297
vt 0.351795 0.119296
vt 0.351786 0.119254
vt 0.351804 0.119296
vt 0.342332 0.048386
vt 0.351780 0.119261
vt 0.351783 0.119257
vt 0.351812 0.119293
vt 0.351808 0.119295
vt 0.351778 0.119265
vt 0.349969 0.059815
vt 0.351776 0.119269
vt 0.351019 0.053132
vt 0.351114 0.054100
vt 0.351019 0.055069
vt 0.350736 0.056000
vt 0.350278 0.056858
vt 0.349660 0.057610
vt 0.348908 0.058228
vt 0.348050 0.058686
vt 0.347119 0.058969
vt 0.346150 0.059064
vt 0.345182 0.058969
vt 0.344251 0.058686
vt 0.343392 0.058228
vt 0.342640 0.057610
vt 0.342023 0.056858
vt 0.341564 0.056000
vt 0.341281 0.055069
vt 0.341186 0.054100
vt 0.341281 0.053132
vt 0.341564 0.052200
vt 0.342023 0.051342
vt 0.342640 0.050590
vt 0.343392 0.049973
vt 0.344251 0.049514
vt 0.345182 0.049231
vt 0.346150 0.049136
vt 0.347119 0.049231
vt 0.348050 0.049514
vt 0.348908 0.049973
vt 0.349660 0.050590
vt 0.350278 0.051342
vt 0.350736 0.052200
vt 0.351819 0.119286
vt 0.351816 0.119290
vt 0.339409 0.052759
vt 0.352891 0.055441
vt 0.351821 0.119282
vt 0.351822 0.119278
vt 0.373114 0.059464
vt 0.371550 0.064621
vt 0.356671 0.079500
vt 0.351799 0.119367
vt 0.351781 0.119365
vt 0.373642 0.054100
vt 0.320751 0.064621
vt 0.323291 0.069374
vt 0.326710 0.073540
vt 0.356671 0.028701
vt 0.351514 0.027136
vt 0.346150 0.026608
vt 0.335629 0.079500
vt 0.340787 0.081064
vt 0.346150 0.081592
vt 0.335629 0.028701
vt 0.330876 0.031241
vt 0.326710 0.034660
vt 0.351747 0.119196
vt 0.351763 0.119187
vt 0.351708 0.119255
vt 0.351713 0.119238
vt 0.351763 0.119360
vt 0.351822 0.119274
vt 0.351821 0.119274
vt 0.351820 0.119269
vt 0.352343 0.052868
vt 0.352464 0.054100
vt 0.351819 0.119265
vt 0.351983 0.051684
vt 0.351865 0.050282
vt 0.351400 0.050592
vt 0.350615 0.049636
vt 0.351814 0.119258
vt 0.351817 0.119262
vt 0.351813 0.119264
vt 0.351811 0.119262
vt 0.349658 0.048850
vt 0.351811 0.119256
vt 0.351807 0.119254
vt 0.348566 0.048267
vt 0.347491 0.047359
vt 0.347382 0.047908
vt 0.346150 0.047786
vt 0.344918 0.047908
vt 0.351795 0.119253
vt 0.351799 0.119252
vt 0.351799 0.119257
vt 0.351796 0.119257
vt 0.343734 0.048267
vt 0.342642 0.048850
vt 0.341686 0.049636
vt 0.351784 0.119258
vt 0.351781 0.119262
vt 0.340900 0.050592
vt 0.340317 0.051684
vt 0.339958 0.052868
vt 0.351776 0.119274
vt 0.351778 0.119269
vt 0.351778 0.119274
vt 0.339836 0.054100
vt 0.351778 0.119278
vt 0.339958 0.055332
vt 0.351779 0.119282
vt 0.351783 0.119277
vt 0.351784 0.119280
vt 0.340436 0.057919
vt 0.340317 0.056516
vt 0.340900 0.057608
vt 0.341686 0.058565
vt 0.351784 0.119289
vt 0.351787 0.119291
vt 0.342642 0.059350
vt 0.343734 0.059933
vt 0.344918 0.060293
vt 0.351795 0.119295
vt 0.351791 0.119293
vt 0.351793 0.119289
vt 0.351796 0.119290
vt 0.346150 0.060414
vt 0.347382 0.060293
vt 0.351803 0.119295
vt 0.351807 0.119293
vt 0.348566 0.059933
vt 0.349658 0.059350
vt 0.351811 0.119291
vt 0.351814 0.119289
vt 0.350615 0.058565
vt 0.351400 0.057608
vt 0.351983 0.056516
vt 0.352343 0.055332
vt 0.351820 0.119278
vt 0.322129 0.125561
vt 0.319631 0.130234
vt 0.371634 0.140578
vt 0.371115 0.135305
vt 0.334260 0.165551
vt 0.339331 0.167089
vt 0.371115 0.145851
vt 0.339331 0.114067
vt 0.334260 0.115605
vt 0.319631 0.150922
vt 0.322129 0.155595
vt 0.359621 0.163053
vt 0.363717 0.159691
vt 0.359621 0.118103
vt 0.354948 0.115605
vt 0.318093 0.135305
vt 0.344604 0.167608
vt 0.369577 0.130234
vt 0.329587 0.118103
vt 0.325491 0.159691
vt 0.367079 0.155595
vt 0.349877 0.114067
vt 0.317574 0.140578
vt 0.349877 0.167089
vt 0.367079 0.125561
vt 0.325491 0.121465
vt 0.329587 0.163053
vt 0.369577 0.150922
vt 0.344604 0.113548
vt 0.318093 0.145851
vt 0.354948 0.165551
vt 0.363717 0.121465
vt 0.351803 0.119252
vt 0.351781 0.119286
vt 0.351819 0.119282
vt 0.350665 0.049585
vt 0.351733 0.119208
vt 0.351799 0.119295
vt 0.352049 0.056543
vt 0.351791 0.119294
vt 0.346150 0.060485
vt 0.339765 0.054100
vt 0.343707 0.048201
vt 0.341635 0.049585
vt 0.351815 0.119289
vt 0.351811 0.119292
vt 0.351779 0.119265
vt 0.343707 0.059999
vt 0.351807 0.119294
vt 0.348594 0.059999
vt 0.351817 0.119261
vt 0.340251 0.056543
vt 0.351815 0.119258
vt 0.348594 0.048201
vt 0.340251 0.051657
vt 0.341635 0.058615
vt 0.352535 0.054100
vt 0.351791 0.119254
vt 0.351787 0.119256
vt 0.346150 0.047715
vt 0.350665 0.058615
vt 0.352049 0.051657
vt 0.338804 0.138176
vt 0.339216 0.138346
vt 0.321404 0.130968
vt 0.344604 0.146856
vt 0.344604 0.165689
vt 0.344604 0.146410
vt 0.349043 0.136139
vt 0.362360 0.122822
vt 0.348728 0.136454
vt 0.342202 0.134778
vt 0.342372 0.135190
vt 0.334994 0.117378
vt 0.350761 0.141803
vt 0.350882 0.140578
vt 0.349824 0.137090
vt 0.349453 0.137338
vt 0.350404 0.142980
vt 0.338804 0.142980
vt 0.339216 0.142810
vt 0.321404 0.150188
vt 0.347006 0.146378
vt 0.346836 0.145966
vt 0.354214 0.163778
vt 0.347006 0.134778
vt 0.346836 0.135190
vt 0.354214 0.117378
vt 0.341116 0.135358
vt 0.341364 0.135729
vt 0.349043 0.145017
vt 0.362360 0.158334
vt 0.348728 0.144702
vt 0.340165 0.145017
vt 0.326848 0.158334
vt 0.340480 0.144702
vt 0.340165 0.136139
vt 0.340480 0.136454
vt 0.350404 0.138176
vt 0.349992 0.138346
vt 0.367804 0.130968
vt 0.348092 0.145798
vt 0.347844 0.145427
vt 0.344604 0.134300
vt 0.344604 0.115467
vt 0.344604 0.134746
vt 0.338326 0.140578
vt 0.319493 0.140578
vt 0.338772 0.140578
vt 0.358555 0.161457
vt 0.319975 0.135679
vt 0.338884 0.139440
vt 0.365483 0.126627
vt 0.323725 0.154529
vt 0.339755 0.143818
vt 0.349503 0.115949
vt 0.345742 0.134858
vt 0.339705 0.165206
vt 0.334994 0.163778
vt 0.342372 0.145966
vt 0.343466 0.146298
vt 0.330653 0.119699
vt 0.326848 0.122822
s 1
g Cube.004_Material.003
usemtl Material.003
f 1/1/1 2/2/1 5/3/1 4/4/1
f 3/5/1 1/1/1 4/4/1 6/6/1
f 7/7/2 8/7/2 10/8/3 9/8/3
f 9/8/3 10/8/3 12/9/4 11/9/4
f 11/9/4 12/9/4 14/10/5 13/10/5
f 13/10/5 14/10/5 16/11/6 15/11/6
f 15/11/6 16/11/6 18/12/7 17/12/7
f 17/12/7 18/12/7 20/13/8 19/13/8
f 19/13/8 20/13/8 22/14/9 21/14/9
f 21/14/9 22/14/9 24/15/10 23/15/10
f 23/15/10 24/15/10 26/16/11 25/16/11
f 25/16/11 26/16/11 28/17/12 27/17/12
f 27/17/12 28/17/12 30/18/13 29/18/13
f 29/18/13 30/18/13 32/19/14 31/19/14
f 31/19/14 32/19/14 34/20/15 33/20/15
f 33/20/15 34/20/15 36/21/16 35/21/16
f 35/21/16 36/21/16 38/22/17 37/23/17
f 37/23/17 38/22/17 40/24/18 39/24/18
f 39/24/18 40/24/18 42/25/19 41/25/19
f 41/25/19 42/25/19 44/26/20 43/26/20
f 43/26/20 44/26/20 46/27/21 45/27/21
f 45/27/21 46/27/21 48/28/22 47/28/22
f 47/28/22 48/28/22 50/29/23 49/29/23
f 49/29/23 50/29/23 52/30/24 51/30/24
f 51/30/24 52/30/24 54/31/25 53/31/25
f 53/31/25 54/31/25 56/32/26 55/32/26
f 55/32/26 56/32/26 58/33/27 57/33/27
f 57/33/27 58/33/27 60/34/28 59/34/28
f 59/34/28 60/34/28 62/35/29 61/35/29
f 61/35/29 62/35/29 64/36/30 63/36/30
f 63/36/30 64/36/30 66/37/31 65/37/31
f 65/37/31 66/37/31 68/38/32 67/38/32
f 67/38/32 68/38/32 70/39/33 69/39/33
f 69/39/33 70/39/33 8/7/2 7/7/2
f 7/7/34 9/8/34 11/9/34 13/10/34 15/11/34 17/12/34 19/13/34 21/14/34 23/15/34 25/16/34 27/17/34 29/18/34 31/19/34 33/20/34 35/21/34 37/23/34 39/24/34 41/25/34 43/26/34 45/27/34 47/28/34 49/29/34 51/30/34 53/31/34 55/32/34 57/33/34 59/34/34 61/35/34 63/36/34 65/37/34 67/38/34 69/39/34
f 84/40/15 83/41/14 115/41/14 116/40/15
f 117/42/1 116/40/1 148/43/1 149/44/1
f 98/45/29 97/46/28 129/46/28 130/45/29
f 85/42/16 84/40/15 116/40/15 117/42/16
f 71/47/3 72/48/2 104/48/2 103/47/3
f 99/49/30 98/45/29 130/45/29 131/49/30
f 86/50/17 85/42/16 117/42/16 118/50/17
f 73/51/4 71/47/3 103/47/3 105/51/4
f 100/52/31 99/49/30 131/49/30 132/52/31
f 87/53/18 86/50/17 118/50/17 119/53/18
f 74/54/5 73/51/4 105/51/4 106/54/5
f 101/55/32 100/52/31 132/52/31 133/55/32
f 88/56/19 87/53/18 119/53/18 120/56/19
f 75/57/6 74/54/5 106/54/5 107/57/6
f 102/58/33 101/55/32 133/55/32 134/58/33
f 89/59/20 88/56/19 120/56/19 121/59/20
f 76/60/7 75/57/6 107/57/6 108/60/7
f 72/48/2 102/58/33 134/58/33 104/48/2
f 90/61/21 89/59/20 121/59/20 122/61/21
f 77/62/8 76/60/7 108/60/7 109/62/8
f 91/63/22 90/61/21 122/61/21 123/63/22
f 78/64/9 77/62/8 109/62/8 110/64/9
f 92/65/23 91/63/22 123/63/22 124/65/23
f 79/66/10 78/64/9 110/64/9 111/66/10
f 93/67/24 92/65/23 124/65/23 125/67/24
f 80/68/11 79/66/10 111/66/10 112/68/11
f 94/69/25 93/67/24 125/67/24 126/69/25
f 81/70/12 80/68/11 112/68/11 113/70/12
f 95/71/26 94/69/25 126/69/25 127/71/26
f 82/72/13 81/70/12 113/70/12 114/72/13
f 96/73/27 95/71/26 127/71/26 128/73/27
f 83/74/14 82/75/13 114/75/13 115/74/14
f 97/46/28 96/73/27 128/73/27 129/46/28
f 153/76/20 152/77/19 291/77/35 294/76/36
f 103/47/1 104/48/1 136/78/1 135/79/1
f 107/57/1 106/54/1 167/80/1 169/81/1
f 105/51/1 103/47/1 135/79/1 137/82/1
f 132/52/1 131/49/1 163/83/1 164/84/1
f 133/55/1 132/52/1 164/84/1 165/85/1
f 120/56/1 119/53/1 151/86/1 152/87/1
f 106/54/1 105/51/1 168/88/1 167/80/1
f 121/59/1 120/56/1 152/87/1 153/89/1
f 108/60/1 107/57/1 139/90/1 140/91/1
f 109/62/1 108/60/1 140/91/1 141/92/1
f 119/53/1 118/50/1 176/93/1 178/94/1
f 124/65/1 123/63/1 155/95/1 156/96/1
f 125/67/1 124/65/1 156/96/1 157/97/1
f 112/68/1 111/66/1 143/98/1 144/99/1
f 118/50/1 117/42/1 177/100/1 176/93/1
f 113/70/1 112/68/1 144/99/1 145/101/1
f 131/49/1 130/45/1 185/102/1 187/103/1
f 128/73/1 127/71/1 159/104/1 160/105/1
f 129/46/1 128/73/1 160/105/1 161/106/1
f 116/40/1 115/41/1 147/107/37 148/43/1
f 137/108/38 135/109/3 240/109/39 246/108/40
f 140/110/7 139/111/6 252/111/41 255/110/42
f 154/112/21 153/76/20 294/76/36 297/112/43
f 141/92/8 140/91/7 255/91/42 258/92/44
f 138/113/5 137/108/45 246/108/40 249/113/46
f 155/114/22 154/112/21 297/112/43 300/114/47
f 142/115/9 141/116/8 258/116/44 261/115/48
f 156/96/23 155/95/22 300/95/47 303/96/49
f 143/117/10 142/115/9 261/115/48 264/117/50
f 157/118/24 156/119/23 303/119/49 306/118/51
f 144/120/11 143/117/10 264/117/50 267/120/52
f 158/121/25 157/97/24 306/97/51 309/121/53
f 145/122/54 144/120/11 267/120/52 270/122/55
f 159/123/26 158/124/25 309/124/53 312/123/56
f 146/125/13 145/122/57 270/122/55 273/125/58
f 160/126/27 159/123/26 312/123/56 315/126/59
f 147/107/14 146/127/13 273/127/58 276/107/60
f 161/106/61 160/105/27 315/105/59 318/106/62
f 148/128/15 147/129/14 276/129/60 279/128/63
f 162/130/29 161/131/64 318/131/62 321/130/65
f 149/132/16 148/128/15 279/128/63 282/132/66
f 163/83/30 162/133/29 321/133/65 324/83/67
f 150/134/17 149/132/16 282/132/66 285/134/68
f 239/135/69 243/136/70 332/137/71 329/138/72 326/139/73 323/140/74 320/141/75 317/142/76 314/143/77 311/144/78 308/145/79 305/146/80 302/147/81 299/148/82 296/149/83 293/150/84 290/151/85 287/152/86 284/153/87 281/154/88 278/155/89 275/156/90 272/157/91 269/158/92 266/159/93 263/160/94 260/161/95 257/162/96 254/163/97 251/164/98 248/165/99 245/166/100
f 164/167/31 163/168/30 324/168/67 327/167/101
f 151/86/18 150/169/17 285/169/68 288/86/102
f 136/78/2 166/170/103 333/170/104 242/78/105
f 165/171/32 164/167/31 327/167/101 330/171/106
f 152/87/19 151/86/18 288/86/102 291/87/35
f 139/111/6 138/113/5 249/113/46 252/111/41
f 166/172/103 165/171/32 330/171/106 333/172/104
f 169/81/107 167/80/21 191/80/21 193/81/107
f 188/173/17 189/174/108 213/174/108 212/173/17
f 167/80/21 168/88/109 192/88/109 191/80/21
f 187/103/110 185/102/13 209/102/13 211/103/110
f 185/102/13 186/175/111 210/175/111 209/102/13
f 184/176/112 182/177/9 206/177/9 208/176/112
f 134/58/1 133/55/1 189/174/1 188/173/1
f 104/48/1 134/58/1 188/173/1 190/178/1
f 122/61/1 121/59/1 180/179/1 179/180/1
f 123/63/1 122/61/1 179/180/1 181/181/1
f 110/64/1 109/62/1 171/182/1 170/183/1
f 111/66/1 110/64/1 170/183/1 172/184/1
f 126/69/1 125/67/1 183/185/1 182/186/1
f 127/71/1 126/69/1 182/186/1 184/187/1
f 114/72/1 113/70/1 174/188/1 173/189/1
f 115/41/1 114/72/1 173/189/1 175/190/113
f 130/45/1 129/46/1 186/175/1 185/102/1
f 190/178/114 188/173/17 212/173/17 214/178/114
f 170/183/25 171/182/115 195/182/115 194/183/25
f 172/184/116 170/183/25 194/183/25 196/184/116
f 173/191/29 174/192/117 198/192/117 197/191/29
f 175/190/118 173/189/29 197/189/29 199/190/118
f 176/193/33 177/194/119 201/194/119 200/193/33
f 178/94/120 176/93/33 200/93/33 202/94/120
f 179/180/5 180/179/121 204/179/121 203/180/5
f 181/181/122 179/180/5 203/180/5 205/181/122
f 182/177/9 183/195/123 207/195/123 206/177/9
f 240/109/39 242/196/105 244/197/124 241/198/125
f 241/199/126 244/200/127 243/136/70 239/135/69
f 246/108/40 240/109/39 241/198/125 247/201/128
f 247/202/129 241/199/126 239/135/69 245/166/100
f 249/203/46 246/82/40 247/202/128 250/204/130
f 250/204/131 247/202/129 245/166/100 248/165/99
f 252/90/41 249/203/46 250/204/130 253/205/132
f 253/206/133 250/207/131 248/208/99 251/209/98
f 255/91/42 252/90/41 253/205/132 256/210/134
f 256/210/135 253/205/133 251/164/98 254/163/97
f 258/116/44 255/110/42 256/211/134 259/212/136
f 259/213/137 256/210/135 254/163/97 257/162/96
f 261/214/48 258/92/44 259/213/136 262/215/138
f 262/215/139 259/213/137 257/162/96 260/161/95
f 264/98/50 261/214/48 262/215/138 265/216/140
f 265/216/141 262/215/139 260/161/95 263/160/94
f 267/99/52 264/98/50 265/216/140 268/217/142
f 268/218/143 265/219/141 263/220/94 266/221/93
f 270/101/55 267/99/52 268/217/142 271/222/144
f 271/222/145 268/217/143 266/159/93 269/158/92
f 273/127/58 270/101/55 271/222/144 274/223/146
f 274/223/147 271/222/145 269/158/92 272/157/91
f 276/107/60 273/127/58 274/223/146 277/224/148
f 277/224/149 274/223/147 272/157/91 275/156/90
f 279/128/63 276/129/60 277/225/148 280/226/150
f 280/227/151 277/224/149 275/156/90 278/155/89
f 282/44/66 279/43/63 280/227/150 283/228/152
f 283/228/153 280/227/151 278/155/89 281/154/88
f 285/169/68 282/44/66 283/228/152 286/229/154
f 286/229/155 283/228/153 281/154/88 284/153/87
f 288/230/102 285/134/68 286/231/154 289/232/156
f 289/233/157 286/229/155 284/153/87 287/152/86
f 291/77/35 288/230/102 289/232/156 292/234/158
f 292/235/159 289/233/157 287/152/86 290/151/85
f 294/76/36 291/77/35 292/234/158 295/236/160
f 295/236/161 292/234/159 290/237/85 293/238/84
f 297/239/43 294/89/36 295/240/160 298/241/162
f 298/241/163 295/240/161 293/150/84 296/149/83
f 300/95/47 297/239/43 298/241/162 301/242/164
f 301/242/165 298/241/163 296/149/83 299/148/82
f 303/119/49 300/114/47 301/243/164 304/244/166
f 304/245/167 301/242/165 299/148/82 302/147/81
f 306/97/51 303/96/49 304/245/166 307/246/168
f 307/246/169 304/245/167 302/147/81 305/146/80
f 309/121/53 306/97/51 307/246/168 310/247/170
f 310/248/171 307/249/169 305/250/80 308/251/79
f 312/104/56 309/121/53 310/247/170 313/252/172
f 313/252/173 310/247/171 308/145/79 311/144/78
f 315/105/59 312/104/56 313/252/172 316/253/174
f 316/253/175 313/252/173 311/144/78 314/143/77
f 318/131/62 315/126/59 316/254/174 319/255/176
f 319/256/177 316/253/175 314/143/77 317/142/76
f 321/133/65 318/106/62 319/256/176 322/257/178
f 322/257/179 319/256/177 317/142/76 320/141/75
f 324/168/67 321/130/65 322/258/178 325/259/180
f 325/260/181 322/257/179 320/141/75 323/140/74
f 327/84/101 324/83/67 325/260/180 328/261/182
f 328/261/183 325/260/181 323/140/74 326/139/73
f 330/85/106 327/84/101 328/261/182 331/262/184
f 331/262/185 328/261/183 326/139/73 329/138/72
f 333/170/104 330/85/106 331/262/184 334/263/186
f 334/263/187 331/262/185 329/138/72 332/137/71
f 242/196/105 333/172/104 334/264/186 244/197/124
f 244/200/127 334/263/187 332/137/71 243/136/70
f 135/79/3 136/78/2 242/78/105 240/79/39
f 349/21/1 348/20/1 380/265/1 381/266/1
f 336/8/1 335/7/1 368/267/1 367/268/1
f 358/31/1 357/30/1 389/269/1 390/270/1
f 335/7/1 366/39/1 398/271/1 368/267/1
f 345/17/1 344/16/1 376/272/1 377/273/1
f 354/27/1 353/26/1 385/274/1 386/275/1
f 363/36/1 362/35/1 394/276/1 395/277/1
f 341/13/1 340/12/1 372/278/1 373/279/1
f 350/22/1 349/21/1 381/266/1 382/280/1
f 359/32/1 358/31/1 390/270/1 391/281/1
f 337/9/1 336/8/1 367/268/1 369/282/1
f 346/18/1 345/17/1 377/273/1 378/283/1
f 355/28/1 354/27/1 386/275/1 387/284/1
f 364/37/1 363/36/1 395/277/1 396/285/1
f 342/14/1 341/13/1 373/279/1 374/286/1
f 351/24/1 350/22/1 382/280/1 383/287/1
f 360/33/1 359/32/1 391/281/1 392/288/1
f 338/10/1 337/9/1 369/282/1 370/289/1
f 347/19/1 346/18/1 378/283/1 379/290/1
f 356/29/1 355/28/1 387/284/1 388/291/1
f 365/38/1 364/37/1 396/285/1 397/292/1
f 343/15/1 342/14/1 374/286/1 375/293/1
f 352/25/1 351/24/1 383/287/1 384/294/1
f 361/34/1 360/33/1 392/288/1 393/295/1
f 339/11/1 338/10/1 370/289/1 371/296/1
f 348/20/1 347/19/1 379/290/1 380/265/1
f 357/30/1 356/29/1 388/291/1 389/269/1
f 366/39/1 365/38/1 397/292/1 398/271/1
f 344/16/1 343/15/1 375/293/1 376/272/1
f 353/26/1 352/25/1 384/294/1 385/274/1
f 362/35/1 361/34/1 393/295/1 394/276/1
f 340/12/1 339/11/1 371/296/1 372/278/1
f 413/116/34 414/115/34 449/297/34 450/212/34
f 421/112/34 422/114/34 460/243/34 458/298/34
f 420/76/34 421/112/34 458/298/34 459/236/34
f 428/171/34 429/172/34 467/264/34 468/299/34
f 448/300/30 431/81/30 471/81/30 488/300/30
f 454/225/6 435/301/6 475/301/6 494/225/6
f 461/248/25 463/302/188 503/302/188 501/248/25
f 444/174/8 468/303/8 508/303/8 484/174/8
f 462/304/115 461/248/25 501/248/25 502/304/115
f 463/305/18 441/187/18 481/187/18 503/305/18
f 458/298/189 460/243/107 500/243/107 498/298/189
f 457/306/10 437/94/10 477/94/10 497/306/10
f 434/188/20 453/307/20 493/307/20 474/188/20
f 459/236/190 458/298/189 498/298/189 499/236/190
f 414/115/34 415/117/34 451/219/34 449/297/34
f 416/107/191 411/41/192 435/190/193 454/308/194
f 423/118/34 424/124/34 461/248/34 462/304/34
f 424/124/34 425/123/34 463/302/34 461/248/34
f 426/130/34 427/168/34 466/309/34 464/310/34
f 417/132/34 418/134/34 455/231/34 456/311/34
f 412/67/195 423/97/196 462/312/197 440/185/198
f 418/134/34 419/230/34 457/232/34 455/231/34
f 465/313/117 464/310/199 504/310/199 505/313/117
f 442/175/4 465/314/4 505/314/4 482/175/4
f 464/310/200 466/309/201 506/309/201 504/310/200
f 447/201/202 446/315/203 486/315/203 487/201/202
f 438/179/28 459/316/28 499/316/28 478/179/28
f 468/299/119 467/264/33 507/264/33 508/299/119
f 446/315/203 448/317/122 488/317/122 486/315/203
f 467/264/33 469/197/120 509/197/120 507/264/33
f 450/212/204 449/297/9 489/297/9 490/212/204
f 432/182/16 450/318/16 490/318/16 472/182/16
f 436/100/24 456/319/24 496/319/24 476/100/24
f 449/297/9 451/219/112 491/219/112 489/297/9
f 460/320/14 439/181/14 479/181/14 500/320/14
f 469/321/26 445/178/26 485/178/26 509/321/26
f 453/322/205 452/323/13 492/323/13 493/322/205
f 452/323/13 454/225/206 494/225/206 492/323/13
f 451/324/2 433/184/2 473/184/2 491/324/2
f 466/325/22 443/103/22 483/103/22 506/325/22
f 456/311/108 455/231/17 495/231/17 496/311/108
f 440/185/32 462/312/32 502/312/32 480/185/32
f 455/231/17 457/232/114 497/232/114 495/231/17
f 430/88/12 447/326/12 487/326/12 470/88/12
f 516/266/207 533/327/208 565/328/209 548/329/210
f 537/330/211 520/281/211 552/331/211 569/332/211
f 527/333/212 512/296/213 544/334/214 559/335/215
f 515/273/216 530/336/217 563/337/34 547/338/218
f 542/339/34 524/340/34 575/6/34 573/4/34
f 526/341/34 527/333/34 559/335/34 557/342/34
f 523/292/219 541/343/220 574/3/221 555/2/222
f 518/274/223 535/344/224 567/345/225 550/346/226
f 524/340/227 510/267/227 556/5/227 575/6/227
f 521/295/228 538/347/229 571/348/230 553/349/231
f 513/279/232 528/350/232 560/351/232 545/352/232
f 530/336/217 531/353/34 562/354/34 563/337/34
f 540/355/233 522/277/234 554/356/235 572/357/236
f 536/358/237 519/284/238 551/359/237 568/360/239
f 531/353/34 532/361/34 564/362/34 562/354/34
f 511/282/240 525/363/241 558/364/242 543/365/243
f 538/347/34 539/366/34 570/367/34 571/348/34
f 529/368/26 514/293/244 546/369/10 561/370/245
s 0
f 534/371/246 517/287/246 549/372/246 566/373/246
s 1
f 525/363/34 526/341/34 557/342/34 558/364/34
f 596/356/1 594/374/1 618/367/1 620/357/1
f 585/375/1 586/329/1 610/328/1 609/376/1
f 587/372/1 585/375/1 609/376/1 611/373/1
f 576/377/1 577/365/1 601/364/1 600/342/1
f 578/334/1 576/377/1 600/342/1 602/335/1
f 588/378/1 589/346/1 613/345/1 612/379/1
f 590/359/1 588/378/1 612/379/1 614/360/1
f 579/380/1 580/352/1 604/351/1 603/381/1
f 581/369/1 579/380/1 603/381/1 605/370/1
f 591/382/1 592/383/1 616/384/1 615/385/1
f 593/331/1 591/382/1 615/385/1 617/332/1
f 582/386/1 583/338/1 607/337/1 606/354/1
f 584/387/1 582/386/1 606/354/1 608/362/1
f 594/374/1 595/349/1 619/348/1 618/367/1
l 199 223
l 227 229
l 227 228
l 215 216
l 215 217
l 195 219
l 211 235
l 207 231
l 208 232
l 204 228
l 236 237
l 236 238
l 196 220
l 224 225
l 224 226
l 192 216
l 193 217
l 213 237
l 233 234
l 233 235
l 201 225
l 205 229
l 221 222
l 221 223
l 230 232
l 230 231
l 202 226
l 198 222
l 210 234
l 218 219
l 218 220
l 214 238
l 401 407
l 403 410
l 405 406
l 406 407
l 399 404
l 408 409
l 402 408
l 400 405
l 597 598
l 597 599
l 598 621
l 599 622
